<svg width="322" height="44" viewBox="0 0 322 44" fill="none" xmlns="http://www.w3.org/2000/svg">
<mask id="path-1-outside-1_4021_404" maskUnits="userSpaceOnUse" x="0" y="0" width="322" height="44" fill="black">
<rect fill="white" width="322" height="44"/>
<path d="M18.2577 30H12.1377L6.85766 13.32H11.7777L15.3057 25.272L18.6177 13.32H23.5377L18.2577 30ZM29.509 30H24.805V13.32H29.509V30ZM40.5793 30H32.5393V13.32H40.0753C43.8193 13.32 45.8593 14.88 45.8593 17.592C45.8593 19.44 44.5873 20.808 42.8833 21.264C45.2593 21.816 46.4593 23.136 46.4593 25.224C46.4593 28.296 44.3473 30 40.5793 30ZM37.2433 16.608V19.848H39.2833C40.6033 19.848 41.2513 19.296 41.2513 18.168C41.2513 17.136 40.6033 16.608 39.2833 16.608H37.2433ZM37.2433 23.28V26.712H39.4033C40.8673 26.712 41.6113 26.136 41.6113 25.008C41.6113 23.856 40.8433 23.28 39.3313 23.28H37.2433ZM61.477 30H48.805V13.32H61.285V17.376H53.509V19.584H59.941V23.64H53.509V25.944H61.477V30ZM73.9465 30H69.2425V13.32H73.9465V19.416H79.7785V13.32H84.4825V30H79.7785V23.76H73.9465V30ZM103.052 30L98.1323 30L97.0523 26.544H91.7003L90.6683 30H85.7483L91.3403 13.32H97.4603L103.052 30ZM94.2923 17.736L92.7563 22.968H95.9243L94.2923 17.736ZM118.128 25.632C118.344 25.632 118.56 25.608 118.824 25.584V29.928C118.416 30.048 117.936 30.12 117.432 30.12C115.8 30.12 114.432 29.784 113.352 29.112C112.248 28.44 111.312 27.12 110.568 25.176L110.376 24.696H109.032V30H104.328V13.32H112.272C114.12 13.32 115.656 13.824 116.88 14.856C118.08 15.888 118.68 17.304 118.68 19.08C118.68 21.504 117.408 23.112 115.2 23.784C116.328 25.44 117.072 25.656 118.128 25.632ZM111.528 17.352H109.032V20.688H111.6C113.04 20.688 113.76 20.136 113.76 19.008C113.76 17.904 113.016 17.352 111.528 17.352ZM128.165 30H121.157V13.32H128.165C131.213 13.32 133.877 14.52 135.581 17.112C136.421 18.408 136.853 19.92 136.853 21.672C136.853 27.072 132.581 30 128.165 30ZM125.861 17.664V25.656H127.781C130.109 25.656 131.933 24.408 131.933 21.648C131.933 18.936 130.109 17.664 127.781 17.664H125.861ZM139.853 25.008C141.557 25.008 142.733 26.304 142.733 28.248C142.733 30.096 141.869 31.824 140.141 33.48L138.101 32.064C138.869 31.44 139.325 30.696 139.469 29.856C138.197 29.76 137.213 28.824 137.213 27.504C137.213 25.992 138.341 25.008 139.853 25.008ZM157.943 30.336C155.471 30.336 153.479 29.544 151.919 27.96C150.359 26.376 149.591 24.288 149.591 21.672C149.591 19.152 150.407 17.088 152.015 15.432C153.623 13.8 155.687 12.984 158.159 12.984C162.287 12.984 165.167 15.456 166.103 19.776L161.399 20.928C160.847 18.528 159.671 17.328 157.919 17.328C155.927 17.328 154.511 19.08 154.511 21.672C154.511 24.264 155.951 25.992 158.063 25.992C159.719 25.992 160.799 25.128 161.279 23.376L166.199 24.096C165.119 28.248 162.359 30.336 157.943 30.336ZM182.404 27.888C180.748 29.52 178.66 30.336 176.14 30.336C173.62 30.336 171.532 29.52 169.876 27.888C168.22 26.256 167.404 24.192 167.404 21.672C167.404 19.152 168.22 17.088 169.876 15.432C171.532 13.8 173.62 12.984 176.14 12.984C178.66 12.984 180.748 13.8 182.404 15.432C184.06 17.088 184.876 19.152 184.876 21.672C184.876 24.192 184.06 26.256 182.404 27.888ZM173.38 24.84C174.076 25.608 175.012 25.992 176.14 25.992C177.268 25.992 178.204 25.608 178.9 24.84C179.596 24.072 179.956 23.016 179.956 21.672C179.956 20.328 179.596 19.272 178.9 18.48C178.204 17.712 177.268 17.328 176.14 17.328C175.012 17.328 174.076 17.712 173.38 18.48C172.684 19.272 172.324 20.328 172.324 21.672C172.324 23.016 172.684 24.072 173.38 24.84ZM194.118 30H187.11V13.32H194.118C197.166 13.32 199.83 14.52 201.534 17.112C202.374 18.408 202.806 19.92 202.806 21.672C202.806 27.072 198.534 30 194.118 30ZM191.814 17.664V25.656H193.734C196.062 25.656 197.886 24.408 197.886 21.648C197.886 18.936 196.062 17.664 193.734 17.664H191.814ZM217.711 30H205.039V13.32H217.519V17.376H209.743V19.584H216.175V23.64H209.743V25.944H217.711V30ZM232.197 30.336C229.821 30.336 227.973 29.856 226.629 28.872C225.285 27.912 224.613 26.664 224.613 25.128C224.613 24.408 224.709 23.76 224.925 23.184L229.485 24.096C229.365 24.384 229.293 24.672 229.293 24.936C229.293 25.968 230.445 26.592 232.245 26.592C233.853 26.592 234.765 26.016 234.765 25.08C234.765 24.336 234.069 23.88 233.181 23.76L230.973 23.448C226.821 22.848 224.925 21.168 224.925 18.264C224.925 16.8 225.525 15.552 226.749 14.52C227.973 13.488 229.653 12.984 231.813 12.984C236.397 12.984 238.821 14.856 239.085 18.624L234.453 19.176C234.261 17.616 233.541 16.728 231.645 16.728C230.493 16.728 229.605 17.256 229.605 18C229.605 18.744 230.277 19.2 231.621 19.392L233.853 19.728C237.765 20.304 239.445 21.888 239.445 24.6C239.445 26.28 238.797 27.648 237.525 28.728C236.229 29.808 234.453 30.336 232.197 30.336ZM246.306 30H241.602V13.32H248.13L251.25 21.216L254.25 13.32L260.802 13.32V30H256.098V19.008L253.218 26.304H249.186L246.306 19.008V30ZM279.373 30H274.453L273.373 26.544H268.021L266.989 30H262.069L267.661 13.32H273.781L279.373 30ZM270.613 17.736L269.077 22.968H272.245L270.613 17.736ZM294.449 25.632C294.665 25.632 294.881 25.608 295.145 25.584V29.928C294.737 30.048 294.257 30.12 293.753 30.12C292.121 30.12 290.753 29.784 289.673 29.112C288.569 28.44 287.633 27.12 286.889 25.176L286.697 24.696H285.353V30H280.649V13.32H288.593C290.441 13.32 291.977 13.824 293.201 14.856C294.401 15.888 295.001 17.304 295.001 19.08C295.001 21.504 293.729 23.112 291.521 23.784C292.649 25.44 293.393 25.656 294.449 25.632ZM287.849 17.352H285.353V20.688H287.921C289.361 20.688 290.081 20.136 290.081 19.008C290.081 17.904 289.337 17.352 287.849 17.352ZM305.336 30H300.632V17.664H295.976V13.32H309.992V17.664H305.336V30ZM316.353 24H312.033L311.745 13.32H316.641L316.353 24ZM314.193 30.336C312.681 30.336 311.433 29.16 311.433 27.624C311.433 26.088 312.681 24.912 314.193 24.912C315.753 24.912 316.953 26.064 316.953 27.624C316.953 29.184 315.753 30.336 314.193 30.336Z"/>
</mask>
<path d="M18.2577 30H12.1377L6.85766 13.32H11.7777L15.3057 25.272L18.6177 13.32H23.5377L18.2577 30ZM29.509 30H24.805V13.32H29.509V30ZM40.5793 30H32.5393V13.32H40.0753C43.8193 13.32 45.8593 14.88 45.8593 17.592C45.8593 19.44 44.5873 20.808 42.8833 21.264C45.2593 21.816 46.4593 23.136 46.4593 25.224C46.4593 28.296 44.3473 30 40.5793 30ZM37.2433 16.608V19.848H39.2833C40.6033 19.848 41.2513 19.296 41.2513 18.168C41.2513 17.136 40.6033 16.608 39.2833 16.608H37.2433ZM37.2433 23.28V26.712H39.4033C40.8673 26.712 41.6113 26.136 41.6113 25.008C41.6113 23.856 40.8433 23.28 39.3313 23.28H37.2433ZM61.477 30H48.805V13.32H61.285V17.376H53.509V19.584H59.941V23.64H53.509V25.944H61.477V30ZM73.9465 30H69.2425V13.32H73.9465V19.416H79.7785V13.32H84.4825V30H79.7785V23.76H73.9465V30ZM103.052 30L98.1323 30L97.0523 26.544H91.7003L90.6683 30H85.7483L91.3403 13.32H97.4603L103.052 30ZM94.2923 17.736L92.7563 22.968H95.9243L94.2923 17.736ZM118.128 25.632C118.344 25.632 118.56 25.608 118.824 25.584V29.928C118.416 30.048 117.936 30.12 117.432 30.12C115.8 30.12 114.432 29.784 113.352 29.112C112.248 28.44 111.312 27.12 110.568 25.176L110.376 24.696H109.032V30H104.328V13.32H112.272C114.12 13.32 115.656 13.824 116.88 14.856C118.08 15.888 118.68 17.304 118.68 19.08C118.68 21.504 117.408 23.112 115.2 23.784C116.328 25.44 117.072 25.656 118.128 25.632ZM111.528 17.352H109.032V20.688H111.6C113.04 20.688 113.76 20.136 113.76 19.008C113.76 17.904 113.016 17.352 111.528 17.352ZM128.165 30H121.157V13.32H128.165C131.213 13.32 133.877 14.52 135.581 17.112C136.421 18.408 136.853 19.92 136.853 21.672C136.853 27.072 132.581 30 128.165 30ZM125.861 17.664V25.656H127.781C130.109 25.656 131.933 24.408 131.933 21.648C131.933 18.936 130.109 17.664 127.781 17.664H125.861ZM139.853 25.008C141.557 25.008 142.733 26.304 142.733 28.248C142.733 30.096 141.869 31.824 140.141 33.48L138.101 32.064C138.869 31.44 139.325 30.696 139.469 29.856C138.197 29.76 137.213 28.824 137.213 27.504C137.213 25.992 138.341 25.008 139.853 25.008ZM157.943 30.336C155.471 30.336 153.479 29.544 151.919 27.96C150.359 26.376 149.591 24.288 149.591 21.672C149.591 19.152 150.407 17.088 152.015 15.432C153.623 13.8 155.687 12.984 158.159 12.984C162.287 12.984 165.167 15.456 166.103 19.776L161.399 20.928C160.847 18.528 159.671 17.328 157.919 17.328C155.927 17.328 154.511 19.08 154.511 21.672C154.511 24.264 155.951 25.992 158.063 25.992C159.719 25.992 160.799 25.128 161.279 23.376L166.199 24.096C165.119 28.248 162.359 30.336 157.943 30.336ZM182.404 27.888C180.748 29.52 178.66 30.336 176.14 30.336C173.62 30.336 171.532 29.52 169.876 27.888C168.22 26.256 167.404 24.192 167.404 21.672C167.404 19.152 168.22 17.088 169.876 15.432C171.532 13.8 173.62 12.984 176.14 12.984C178.66 12.984 180.748 13.8 182.404 15.432C184.06 17.088 184.876 19.152 184.876 21.672C184.876 24.192 184.06 26.256 182.404 27.888ZM173.38 24.84C174.076 25.608 175.012 25.992 176.14 25.992C177.268 25.992 178.204 25.608 178.9 24.84C179.596 24.072 179.956 23.016 179.956 21.672C179.956 20.328 179.596 19.272 178.9 18.48C178.204 17.712 177.268 17.328 176.14 17.328C175.012 17.328 174.076 17.712 173.38 18.48C172.684 19.272 172.324 20.328 172.324 21.672C172.324 23.016 172.684 24.072 173.38 24.84ZM194.118 30H187.11V13.32H194.118C197.166 13.32 199.83 14.52 201.534 17.112C202.374 18.408 202.806 19.92 202.806 21.672C202.806 27.072 198.534 30 194.118 30ZM191.814 17.664V25.656H193.734C196.062 25.656 197.886 24.408 197.886 21.648C197.886 18.936 196.062 17.664 193.734 17.664H191.814ZM217.711 30H205.039V13.32H217.519V17.376H209.743V19.584H216.175V23.64H209.743V25.944H217.711V30ZM232.197 30.336C229.821 30.336 227.973 29.856 226.629 28.872C225.285 27.912 224.613 26.664 224.613 25.128C224.613 24.408 224.709 23.76 224.925 23.184L229.485 24.096C229.365 24.384 229.293 24.672 229.293 24.936C229.293 25.968 230.445 26.592 232.245 26.592C233.853 26.592 234.765 26.016 234.765 25.08C234.765 24.336 234.069 23.88 233.181 23.76L230.973 23.448C226.821 22.848 224.925 21.168 224.925 18.264C224.925 16.8 225.525 15.552 226.749 14.52C227.973 13.488 229.653 12.984 231.813 12.984C236.397 12.984 238.821 14.856 239.085 18.624L234.453 19.176C234.261 17.616 233.541 16.728 231.645 16.728C230.493 16.728 229.605 17.256 229.605 18C229.605 18.744 230.277 19.2 231.621 19.392L233.853 19.728C237.765 20.304 239.445 21.888 239.445 24.6C239.445 26.28 238.797 27.648 237.525 28.728C236.229 29.808 234.453 30.336 232.197 30.336ZM246.306 30H241.602V13.32H248.13L251.25 21.216L254.25 13.32L260.802 13.32V30H256.098V19.008L253.218 26.304H249.186L246.306 19.008V30ZM279.373 30H274.453L273.373 26.544H268.021L266.989 30H262.069L267.661 13.32H273.781L279.373 30ZM270.613 17.736L269.077 22.968H272.245L270.613 17.736ZM294.449 25.632C294.665 25.632 294.881 25.608 295.145 25.584V29.928C294.737 30.048 294.257 30.12 293.753 30.12C292.121 30.12 290.753 29.784 289.673 29.112C288.569 28.44 287.633 27.12 286.889 25.176L286.697 24.696H285.353V30H280.649V13.32H288.593C290.441 13.32 291.977 13.824 293.201 14.856C294.401 15.888 295.001 17.304 295.001 19.08C295.001 21.504 293.729 23.112 291.521 23.784C292.649 25.44 293.393 25.656 294.449 25.632ZM287.849 17.352H285.353V20.688H287.921C289.361 20.688 290.081 20.136 290.081 19.008C290.081 17.904 289.337 17.352 287.849 17.352ZM305.336 30H300.632V17.664H295.976V13.32H309.992V17.664H305.336V30ZM316.353 24H312.033L311.745 13.32H316.641L316.353 24ZM314.193 30.336C312.681 30.336 311.433 29.16 311.433 27.624C311.433 26.088 312.681 24.912 314.193 24.912C315.753 24.912 316.953 26.064 316.953 27.624C316.953 29.184 315.753 30.336 314.193 30.336Z" fill="white"/>
<path d="M18.2577 30V35H21.9194L23.0245 31.5089L18.2577 30ZM12.1377 30L7.37078 31.5089L8.47586 35H12.1377V30ZM6.85766 13.32V8.32L0.0303971 8.32L2.09078 14.8289L6.85766 13.32ZM11.7777 13.32L16.5731 11.9045L15.515 8.32H11.7777V13.32ZM15.3057 25.272L10.5102 26.6875L15.4575 43.4476L20.1241 26.6072L15.3057 25.272ZM18.6177 13.32V8.32H14.8148L13.7992 11.9848L18.6177 13.32ZM23.5377 13.32L28.3045 14.8289L30.3649 8.32H23.5377V13.32ZM18.2577 30V25H12.1377V30V35H18.2577V30ZM12.1377 30L16.9045 28.4911L11.6245 11.8111L6.85766 13.32L2.09078 14.8289L7.37078 31.5089L12.1377 30ZM6.85766 13.32V18.32H11.7777V13.32V8.32H6.85766V13.32ZM11.7777 13.32L6.98221 14.7355L10.5102 26.6875L15.3057 25.272L20.1011 23.8565L16.5731 11.9045L11.7777 13.32ZM15.3057 25.272L20.1241 26.6072L23.4361 14.6552L18.6177 13.32L13.7992 11.9848L10.4872 23.9368L15.3057 25.272ZM18.6177 13.32V18.32H23.5377V13.32V8.32H18.6177V13.32ZM23.5377 13.32L18.7708 11.8111L13.4908 28.4911L18.2577 30L23.0245 31.5089L28.3045 14.8289L23.5377 13.32ZM29.509 30V35H34.509V30H29.509ZM24.805 30H19.805V35H24.805V30ZM24.805 13.32V8.32H19.805V13.32H24.805ZM29.509 13.32H34.509V8.32H29.509V13.32ZM29.509 30V25H24.805V30V35H29.509V30ZM24.805 30H29.805V13.32H24.805H19.805V30H24.805ZM24.805 13.32V18.32H29.509V13.32V8.32H24.805V13.32ZM29.509 13.32H24.509V30H29.509H34.509V13.32H29.509ZM32.5393 30H27.5393V35H32.5393V30ZM32.5393 13.32V8.32H27.5393V13.32H32.5393ZM42.8833 21.264L41.5908 16.434L41.7519 26.1343L42.8833 21.264ZM37.2433 16.608V11.608H32.2433V16.608L37.2433 16.608ZM37.2433 19.848L32.2433 19.848V24.848L37.2433 24.848V19.848ZM37.2433 23.28V18.28L32.2433 18.28V23.28L37.2433 23.28ZM37.2433 26.712L32.2433 26.712V31.712H37.2433V26.712ZM40.5793 30V25L32.5393 25V30V35H40.5793V30ZM32.5393 30H37.5393V13.32H32.5393H27.5393V30H32.5393ZM32.5393 13.32V18.32L40.0753 18.32V13.32V8.32H32.5393V13.32ZM40.0753 13.32V18.32C40.6757 18.32 41.0663 18.3837 41.2877 18.4419C41.5064 18.4994 41.4999 18.5349 41.3832 18.4478C41.2469 18.3463 41.0787 18.1644 40.9628 17.9196C40.853 17.6876 40.8593 17.5463 40.8593 17.592H45.8593H50.8593C50.8593 14.8327 49.738 12.2031 47.3595 10.4302C45.196 8.81748 42.5375 8.32 40.0753 8.32V13.32ZM45.8593 17.592H40.8593C40.8593 17.3127 40.9738 16.9808 41.1872 16.7276C41.3749 16.5049 41.5478 16.4455 41.5908 16.434L42.8833 21.264L44.1759 26.094C47.6849 25.155 50.8593 22.0759 50.8593 17.592H45.8593ZM42.8833 21.264L41.7519 26.1343C42.308 26.2635 42.1541 26.3535 41.8543 26.0221C41.701 25.8527 41.585 25.6519 41.5172 25.4589C41.4536 25.2777 41.4593 25.1812 41.4593 25.224H46.4593H51.4593C51.4593 23.1622 50.8366 21.0453 49.2704 19.3139C47.7766 17.6625 45.8347 16.8165 44.0148 16.3937L42.8833 21.264ZM46.4593 25.224H41.4593C41.4593 25.4193 41.4267 25.4073 41.484 25.2753C41.5488 25.1259 41.6617 24.9788 41.7833 24.8802C41.8893 24.7943 41.9041 24.8239 41.7154 24.8778C41.5197 24.9336 41.1558 25 40.5793 25V30V35C43.1282 35 45.8783 34.4341 48.0814 32.6478C50.4457 30.7308 51.4593 27.9979 51.4593 25.224H46.4593ZM37.2433 16.608L32.2433 16.608V19.848L37.2433 19.848H42.2433V16.608H37.2433ZM37.2433 19.848V24.848H39.2833V19.848V14.848H37.2433V19.848ZM39.2833 19.848V24.848C40.5147 24.848 42.3961 24.6097 44.0077 23.2347C45.7763 21.7256 46.2513 19.7006 46.2513 18.168H41.2513H36.2513C36.2513 17.7634 36.4023 16.5784 37.517 15.6273C37.999 15.2161 38.4756 15.0205 38.7925 14.9313C39.0946 14.8462 39.2822 14.848 39.2833 14.848V19.848ZM41.2513 18.168H46.2513C46.2513 16.5411 45.6843 14.5322 43.8814 13.0932C42.2928 11.8252 40.478 11.608 39.2833 11.608V16.608V21.608C39.2827 21.608 39.2737 21.608 39.2568 21.6071C39.2399 21.6062 39.2139 21.6043 39.1795 21.6004C39.1123 21.5927 39.0027 21.576 38.8608 21.5382C38.5779 21.4628 38.122 21.291 37.6432 20.9088C36.4943 19.9918 36.2513 18.7629 36.2513 18.168H41.2513ZM39.2833 16.608V11.608H37.2433V16.608V21.608H39.2833V16.608ZM37.2433 23.28L32.2433 23.28V26.712L37.2433 26.712H42.2433V23.28H37.2433ZM37.2433 26.712V31.712H39.4033V26.712V21.712H37.2433V26.712ZM39.4033 26.712V31.712C40.6591 31.712 42.4983 31.487 44.1127 30.2401C45.9637 28.8104 46.6113 26.7655 46.6113 25.008H41.6113H36.6113C36.6113 24.7456 36.6547 24.2895 36.8883 23.7532C37.1338 23.1897 37.5225 22.6947 38 22.3259C38.8764 21.649 39.6116 21.712 39.4033 21.712V26.712ZM41.6113 25.008H46.6113C46.6113 23.2149 45.9397 21.1492 44.0534 19.7233C42.4272 18.4941 40.5824 18.28 39.3313 18.28V23.28V28.28C39.5923 28.28 38.8875 28.3539 38.0233 27.7007C37.5459 27.3398 37.1486 26.8473 36.8957 26.2761C36.6553 25.7329 36.6113 25.2705 36.6113 25.008H41.6113ZM39.3313 23.28V18.28H37.2433V23.28V28.28H39.3313V23.28ZM61.477 30V35H66.477V30H61.477ZM48.805 30H43.805V35H48.805V30ZM48.805 13.32V8.32H43.805V13.32H48.805ZM61.285 13.32H66.285V8.32H61.285V13.32ZM61.285 17.376V22.376H66.285V17.376H61.285ZM53.509 17.376V12.376H48.509V17.376H53.509ZM53.509 19.584H48.509V24.584H53.509V19.584ZM59.941 19.584H64.941V14.584H59.941V19.584ZM59.941 23.64V28.64H64.941V23.64H59.941ZM53.509 23.64V18.64H48.509V23.64H53.509ZM53.509 25.944H48.509V30.944H53.509V25.944ZM61.477 25.944H66.477V20.944H61.477V25.944ZM61.477 30V25H48.805V30V35H61.477V30ZM48.805 30H53.805V13.32H48.805H43.805V30H48.805ZM48.805 13.32V18.32H61.285V13.32V8.32H48.805V13.32ZM61.285 13.32H56.285V17.376H61.285H66.285V13.32H61.285ZM61.285 17.376V12.376H53.509V17.376V22.376H61.285V17.376ZM53.509 17.376H48.509V19.584H53.509H58.509V17.376H53.509ZM53.509 19.584V24.584H59.941V19.584V14.584H53.509V19.584ZM59.941 19.584H54.941V23.64H59.941H64.941V19.584H59.941ZM59.941 23.64V18.64H53.509V23.64V28.64H59.941V23.64ZM53.509 23.64H48.509V25.944H53.509H58.509V23.64H53.509ZM53.509 25.944V30.944H61.477V25.944V20.944H53.509V25.944ZM61.477 25.944H56.477V30H61.477H66.477V25.944H61.477ZM73.9465 30V35H78.9465V30H73.9465ZM69.2425 30H64.2425V35H69.2425V30ZM69.2425 13.32V8.32L64.2425 8.32V13.32L69.2425 13.32ZM73.9465 13.32H78.9465V8.32H73.9465V13.32ZM73.9465 19.416H68.9465V24.416H73.9465V19.416ZM79.7785 19.416V24.416H84.7785V19.416H79.7785ZM79.7785 13.32V8.32H74.7785V13.32H79.7785ZM84.4825 13.32H89.4825V8.32H84.4825V13.32ZM84.4825 30V35H89.4825V30H84.4825ZM79.7785 30H74.7785V35H79.7785V30ZM79.7785 23.76H84.7785V18.76H79.7785V23.76ZM73.9465 23.76V18.76H68.9465V23.76H73.9465ZM73.9465 30V25H69.2425V30V35H73.9465V30ZM69.2425 30H74.2425V13.32H69.2425L64.2425 13.32V30H69.2425ZM69.2425 13.32V18.32H73.9465V13.32V8.32H69.2425V13.32ZM73.9465 13.32H68.9465V19.416H73.9465H78.9465V13.32H73.9465ZM73.9465 19.416V24.416H79.7785V19.416V14.416H73.9465V19.416ZM79.7785 19.416H84.7785V13.32H79.7785H74.7785V19.416H79.7785ZM79.7785 13.32V18.32H84.4825V13.32V8.32H79.7785V13.32ZM84.4825 13.32H79.4825V30H84.4825H89.4825V13.32H84.4825ZM84.4825 30V25H79.7785V30V35H84.4825V30ZM79.7785 30H84.7785V23.76H79.7785H74.7785V30H79.7785ZM79.7785 23.76V18.76H73.9465V23.76V28.76H79.7785V23.76ZM73.9465 23.76H68.9465V30H73.9465H78.9465V23.76H73.9465ZM103.052 30V35H110.002L107.793 28.4107L103.052 30ZM98.1323 30L93.3599 31.4914L94.4563 35H98.1323V30ZM97.0523 26.544L101.825 25.0526L100.728 21.544H97.0523V26.544ZM91.7003 26.544V21.544H87.9752L86.9093 25.1134L91.7003 26.544ZM90.6683 30V35H94.3934L95.4592 31.4306L90.6683 30ZM85.7483 30L81.0076 28.4107L78.7985 35H85.7483V30ZM91.3403 13.32V8.32H87.743L86.5996 11.7307L91.3403 13.32ZM97.4603 13.32L102.201 11.7307L101.058 8.32H97.4603V13.32ZM94.2923 17.736L99.0655 16.2471L94.1473 0.479951L89.4948 16.3276L94.2923 17.736ZM92.7563 22.968L87.9588 21.5596L86.0774 27.968H92.7563V22.968ZM95.9243 22.968V27.968H102.722L100.697 21.4791L95.9243 22.968ZM103.052 30V25H98.1323V30V35L103.052 35V30ZM98.1323 30L102.905 28.5086L101.825 25.0526L97.0523 26.544L92.2799 28.0354L93.3599 31.4914L98.1323 30ZM97.0523 26.544V21.544H91.7003V26.544V31.544H97.0523V26.544ZM91.7003 26.544L86.9093 25.1134L85.8773 28.5694L90.6683 30L95.4592 31.4306L96.4912 27.9746L91.7003 26.544ZM90.6683 30V25H85.7483V30V35H90.6683V30ZM85.7483 30L90.489 31.5893L96.081 14.9093L91.3403 13.32L86.5996 11.7307L81.0076 28.4107L85.7483 30ZM91.3403 13.32V18.32H97.4603V13.32V8.32H91.3403V13.32ZM97.4603 13.32L92.7196 14.9093L98.3116 31.5893L103.052 30L107.793 28.4107L102.201 11.7307L97.4603 13.32ZM94.2923 17.736L89.4948 16.3276L87.9588 21.5596L92.7563 22.968L97.5538 24.3764L99.0898 19.1444L94.2923 17.736ZM92.7563 22.968V27.968H95.9243V22.968V17.968H92.7563V22.968ZM95.9243 22.968L100.697 21.4791L99.0655 16.2471L94.2923 17.736L89.5191 19.2249L91.1511 24.4569L95.9243 22.968ZM118.128 25.632V20.632H118.072L118.015 20.6333L118.128 25.632ZM118.824 25.584H123.824V20.1088L118.372 20.6045L118.824 25.584ZM118.824 29.928L120.235 34.7248L123.824 33.6692V29.928H118.824ZM113.352 29.112L115.994 24.8667L115.973 24.8538L115.952 24.841L113.352 29.112ZM110.568 25.176L115.238 23.3888L115.225 23.3538L115.211 23.3191L110.568 25.176ZM110.376 24.696L115.019 22.839L113.762 19.696H110.376V24.696ZM109.032 24.696V19.696H104.032V24.696H109.032ZM109.032 30V35H114.032V30H109.032ZM104.328 30L99.3284 30V35L104.328 35V30ZM104.328 13.32V8.32H99.3284V13.32H104.328ZM116.88 14.856L120.141 11.0651L120.122 11.0491L120.103 11.0334L116.88 14.856ZM115.2 23.784L113.745 19.0006L107.241 20.9801L111.068 26.5988L115.2 23.784ZM109.032 17.352V12.352H104.032V17.352H109.032ZM109.032 20.688H104.032V25.688H109.032V20.688ZM118.128 25.632V30.632C118.636 30.632 119.167 30.5735 119.277 30.5635L118.824 25.584L118.372 20.6045C118.332 20.6081 118.295 20.6116 118.262 20.6147C118.228 20.6179 118.201 20.6204 118.174 20.6229C118.119 20.6279 118.088 20.6307 118.065 20.6325C118.019 20.6361 118.054 20.632 118.128 20.632V25.632ZM118.824 25.584H113.824V29.928H118.824H123.824V25.584H118.824ZM118.824 29.928L117.414 25.1312C117.436 25.1246 117.451 25.1212 117.458 25.1196C117.466 25.118 117.468 25.1177 117.466 25.118C117.464 25.1183 117.46 25.1188 117.453 25.1193C117.447 25.1197 117.44 25.12 117.432 25.12V30.12V35.12C118.394 35.12 119.35 34.9851 120.235 34.7248L118.824 29.928ZM117.432 30.12V25.12C116.465 25.12 116.08 24.9205 115.994 24.8667L113.352 29.112L110.711 33.3573C112.784 34.6475 115.135 35.12 117.432 35.12V30.12ZM113.352 29.112L115.952 24.841C116.108 24.9356 116.071 24.9651 115.907 24.7325C115.74 24.4974 115.501 24.0754 115.238 23.3888L110.568 25.176L105.899 26.9632C106.817 29.3634 108.283 31.8799 110.753 33.383L113.352 29.112ZM110.568 25.176L115.211 23.3191L115.019 22.839L110.376 24.696L105.734 26.5529L105.926 27.0329L110.568 25.176ZM110.376 24.696V19.696H109.032V24.696V29.696H110.376V24.696ZM109.032 24.696H104.032V30H109.032H114.032V24.696H109.032ZM109.032 30V25H104.328V30V35H109.032V30ZM104.328 30H109.328V13.32H104.328H99.3284V30L104.328 30ZM104.328 13.32V18.32H112.272V13.32V8.32H104.328V13.32ZM112.272 13.32V18.32C113.16 18.32 113.49 18.5372 113.657 18.6786L116.88 14.856L120.103 11.0334C117.823 9.11083 115.081 8.32 112.272 8.32V13.32ZM116.88 14.856L113.62 18.6469C113.646 18.6689 113.649 18.6756 113.641 18.6659C113.634 18.6558 113.63 18.6468 113.63 18.6468C113.63 18.6479 113.642 18.6753 113.654 18.7404C113.667 18.807 113.68 18.9172 113.68 19.08H118.68H123.68C123.68 16.0584 122.596 13.1765 120.141 11.0651L116.88 14.856ZM118.68 19.08H113.68C113.68 19.2487 113.658 19.3047 113.666 19.2792C113.67 19.2669 113.68 19.2397 113.699 19.2021C113.718 19.1643 113.743 19.123 113.774 19.0817C113.805 19.0404 113.837 19.0059 113.866 18.9787C113.895 18.9518 113.916 18.9366 113.925 18.9311C113.942 18.92 113.894 18.9551 113.745 19.0006L115.2 23.784L116.656 28.5674C118.578 27.9825 120.419 26.8808 121.763 25.0963C123.113 23.3026 123.68 21.1907 123.68 19.08H118.68ZM115.2 23.784L111.068 26.5988C111.811 27.6903 112.803 28.8883 114.241 29.6966C115.829 30.5889 117.323 30.6516 118.242 30.6307L118.128 25.632L118.015 20.6333C117.916 20.6355 118.046 20.6247 118.276 20.6664C118.544 20.715 118.85 20.8155 119.141 20.9794C119.413 21.1323 119.556 21.2751 119.576 21.2956C119.587 21.3069 119.507 21.2251 119.333 20.9692L115.2 23.784ZM111.528 17.352V12.352H109.032V17.352V22.352H111.528V17.352ZM109.032 17.352H104.032V20.688H109.032H114.032V17.352H109.032ZM109.032 20.688V25.688H111.6V20.688V15.688H109.032V20.688ZM111.6 20.688V25.688C112.816 25.688 114.662 25.4798 116.283 24.2231C118.151 22.7752 118.76 20.7157 118.76 19.008H113.76H108.76C108.76 18.7662 108.799 18.3171 109.028 17.7797C109.272 17.2109 109.664 16.7016 110.158 16.3189C111.059 15.6202 111.824 15.688 111.6 15.688V20.688ZM113.76 19.008H118.76C118.76 17.2156 118.077 15.1567 116.182 13.7505C114.566 12.5518 112.745 12.352 111.528 12.352V17.352V22.352C111.8 22.352 111.095 22.4282 110.223 21.7815C109.737 21.421 109.325 20.9221 109.06 20.3326C108.808 19.7716 108.76 19.2889 108.76 19.008H113.76ZM121.157 30H116.157V35H121.157V30ZM121.157 13.32V8.32H116.157V13.32H121.157ZM135.581 17.112L139.776 14.3925L139.767 14.3789L139.759 14.3653L135.581 17.112ZM125.861 17.664V12.664H120.861V17.664H125.861ZM125.861 25.656H120.861V30.656H125.861V25.656ZM128.165 30V25H121.157V30V35H128.165V30ZM121.157 30H126.157V13.32H121.157H116.157V30H121.157ZM121.157 13.32V18.32H128.165V13.32V8.32H121.157V13.32ZM128.165 13.32V18.32C129.801 18.32 130.763 18.8861 131.403 19.8587L135.581 17.112L139.759 14.3653C136.99 10.1539 132.624 8.32 128.165 8.32V13.32ZM135.581 17.112L131.385 19.8315C131.648 20.2382 131.853 20.7859 131.853 21.672H136.853H141.853C141.853 19.0541 141.193 16.5778 139.776 14.3925L135.581 17.112ZM136.853 21.672H131.853C131.853 22.9352 131.404 23.6361 130.886 24.086C130.279 24.6134 129.312 25 128.165 25V30V35C134.657 35 141.853 30.472 141.853 21.672H136.853ZM125.861 17.664H120.861V25.656H125.861H130.861V17.664H125.861ZM125.861 25.656V30.656H127.781V25.656V20.656H125.861V25.656ZM127.781 25.656V30.656C129.782 30.656 132.123 30.1201 134.032 28.4415C136.044 26.672 136.933 24.1983 136.933 21.648H131.933H126.933C126.933 21.7874 126.91 21.7238 126.986 21.5397C127.067 21.342 127.215 21.119 127.427 20.9325C127.842 20.5679 128.107 20.656 127.781 20.656V25.656ZM131.933 21.648H136.933C136.933 19.097 136.027 16.6399 134.032 14.8845C132.136 13.2171 129.804 12.664 127.781 12.664V17.664V22.664C128.085 22.664 127.829 22.7469 127.427 22.3935C127.222 22.213 127.075 21.9948 126.992 21.7949C126.914 21.6068 126.933 21.5316 126.933 21.648H131.933ZM127.781 17.664V12.664H125.861V17.664V22.664H127.781V17.664ZM140.141 33.48L137.29 37.5875L140.649 39.9188L143.601 37.0899L140.141 33.48ZM138.101 32.064L134.948 28.1834L129.785 32.3783L135.25 36.1715L138.101 32.064ZM139.469 29.856L144.397 30.7008L145.326 25.2838L139.846 24.8702L139.469 29.856ZM139.853 25.008V30.008C139.364 30.008 138.7 29.7851 138.205 29.2318C137.75 28.7234 137.733 28.2745 137.733 28.248H142.733H147.733C147.733 26.2775 147.128 24.2086 145.66 22.5662C144.151 20.8789 142.047 20.008 139.853 20.008V25.008ZM142.733 28.248H137.733C137.733 28.3442 137.747 28.8492 136.682 29.8701L140.141 33.48L143.601 37.0899C145.992 34.7988 147.733 31.8478 147.733 28.248H142.733ZM140.141 33.48L142.992 29.3725L140.952 27.9565L138.101 32.064L135.25 36.1715L137.29 37.5875L140.141 33.48ZM138.101 32.064L141.254 35.9446C142.823 34.6698 144.02 32.8996 144.397 30.7008L139.469 29.856L134.541 29.0112C134.579 28.7917 134.66 28.5832 134.766 28.4128C134.866 28.2498 134.952 28.1804 134.948 28.1834L138.101 32.064ZM139.469 29.856L139.846 24.8702C140.331 24.9068 140.925 25.1218 141.426 25.6296C141.951 26.1628 142.213 26.863 142.213 27.504H137.213H132.213C132.213 31.7105 135.492 34.5701 139.093 34.8418L139.469 29.856ZM137.213 27.504H142.213C142.213 28.0602 141.972 28.7959 141.359 29.3621C140.785 29.8922 140.179 30.008 139.853 30.008V25.008V20.008C138.015 20.008 136.09 20.6158 134.574 22.0159C133.019 23.4521 132.213 25.4358 132.213 27.504H137.213ZM151.919 27.96L148.357 31.4684L148.357 31.4684L151.919 27.96ZM152.015 15.432L148.453 11.9227L148.441 11.9357L148.428 11.9488L152.015 15.432ZM166.103 19.776L167.292 24.6325L172.02 23.4746L170.99 18.7172L166.103 19.776ZM161.399 20.928L156.526 22.0487L157.663 26.9907L162.588 25.7845L161.399 20.928ZM161.279 23.376L162.003 18.4287L157.626 17.7881L156.457 22.0548L161.279 23.376ZM166.199 24.096L171.038 25.3547L172.442 19.9564L166.923 19.1487L166.199 24.096ZM157.943 30.336V25.336C156.661 25.336 156.002 24.9801 155.482 24.4516L151.919 27.96L148.357 31.4684C150.956 34.1079 154.281 35.336 157.943 35.336V30.336ZM151.919 27.96L155.482 24.4516C155.011 23.9741 154.591 23.2367 154.591 21.672H149.591H144.591C144.591 25.3393 145.707 28.7779 148.357 31.4684L151.919 27.96ZM149.591 21.672H154.591C154.591 20.3551 154.966 19.5703 155.602 18.9152L152.015 15.432L148.428 11.9488C145.848 14.6057 144.591 17.9489 144.591 21.672H149.591ZM152.015 15.432L155.577 18.9412C156.156 18.3532 156.894 17.984 158.159 17.984V12.984V7.984C154.48 7.984 151.09 9.24676 148.453 11.9227L152.015 15.432ZM158.159 12.984V17.984C159.184 17.984 159.74 18.2699 160.077 18.5587C160.441 18.8706 160.931 19.5181 161.216 20.8348L166.103 19.776L170.99 18.7172C170.339 15.7139 168.921 12.9654 166.579 10.9613C164.211 8.9341 161.262 7.984 158.159 7.984V12.984ZM166.103 19.776L164.914 14.9195L160.21 16.0715L161.399 20.928L162.588 25.7845L167.292 24.6325L166.103 19.776ZM161.399 20.928L166.272 19.8073C165.879 18.1009 165.142 16.2356 163.698 14.7467C162.121 13.1213 160.07 12.328 157.919 12.328V17.328V22.328C157.777 22.328 157.525 22.3016 157.225 22.1782C156.919 22.0526 156.681 21.8746 156.52 21.7093C156.24 21.4204 156.367 21.3551 156.526 22.0487L161.399 20.928ZM157.919 17.328V12.328C155.324 12.328 153.054 13.5217 151.547 15.4253C150.103 17.2503 149.511 19.5028 149.511 21.672H154.511H159.511C159.511 21.2492 159.627 21.3297 159.389 21.6307C159.264 21.7883 159.06 21.9766 158.768 22.1217C158.47 22.2691 158.17 22.328 157.919 22.328V17.328ZM154.511 21.672H149.511C149.511 23.8608 150.121 26.1475 151.639 27.9868C153.222 29.9052 155.53 30.992 158.063 30.992V25.992V20.992C158.228 20.992 158.471 21.0286 158.739 21.1542C159.007 21.2796 159.213 21.4534 159.351 21.6212C159.621 21.9485 159.511 22.0752 159.511 21.672H154.511ZM158.063 25.992V30.992C159.791 30.992 161.658 30.5234 163.259 29.2262C164.824 27.9586 165.668 26.2775 166.101 24.6972L161.279 23.376L156.457 22.0548C156.41 22.2265 156.474 21.8534 156.965 21.4558C157.492 21.0286 157.991 20.992 158.063 20.992V25.992ZM161.279 23.376L160.555 28.3233L165.475 29.0433L166.199 24.096L166.923 19.1487L162.003 18.4287L161.279 23.376ZM166.199 24.096L161.36 22.8373C161.033 24.0936 160.587 24.573 160.307 24.7845C160.013 25.0068 159.367 25.336 157.943 25.336V30.336V35.336C160.935 35.336 163.877 34.6212 166.337 32.7615C168.812 30.891 170.285 28.2504 171.038 25.3547L166.199 24.096ZM182.404 27.888L178.894 24.3268L178.894 24.3268L182.404 27.888ZM169.876 27.888L173.385 24.3268L169.876 27.888ZM169.876 15.432L166.366 11.8708L166.353 11.8836L166.34 11.8965L169.876 15.432ZM182.404 15.432L185.939 11.8965L185.926 11.8836L185.913 11.8708L182.404 15.432ZM173.38 24.84L169.675 28.1976L169.675 28.1976L173.38 24.84ZM178.9 24.84L175.195 21.4824L175.195 21.4824L178.9 24.84ZM178.9 18.48L182.655 15.1794L182.63 15.1507L182.605 15.1224L178.9 18.48ZM173.38 18.48L169.675 15.1224L169.649 15.1507L169.624 15.1794L173.38 18.48ZM182.404 27.888L178.894 24.3268C178.256 24.9551 177.467 25.336 176.14 25.336V30.336V35.336C179.852 35.336 183.239 34.0849 185.913 31.4492L182.404 27.888ZM176.14 30.336V25.336C174.812 25.336 174.023 24.9551 173.385 24.3268L169.876 27.888L166.366 31.4492C169.04 34.0849 172.427 35.336 176.14 35.336V30.336ZM169.876 27.888L173.385 24.3268C172.775 23.7255 172.404 22.9887 172.404 21.672H167.404L162.404 21.672C162.404 25.3953 163.664 28.7865 166.366 31.4492L169.876 27.888ZM167.404 21.672H172.404C172.404 20.3628 172.771 19.6073 173.411 18.9675L169.876 15.432L166.34 11.8965C163.668 14.5687 162.404 17.9412 162.404 21.672L167.404 21.672ZM169.876 15.432L173.385 18.9932C174.023 18.3649 174.812 17.984 176.14 17.984V12.984V7.984C172.427 7.984 169.04 9.23507 166.366 11.8708L169.876 15.432ZM176.14 12.984V17.984C177.467 17.984 178.256 18.3649 178.894 18.9932L182.404 15.432L185.913 11.8708C183.239 9.23507 179.852 7.984 176.14 7.984V12.984ZM182.404 15.432L178.868 18.9675C179.508 19.6073 179.876 20.3628 179.876 21.672H184.876H189.876C189.876 17.9412 188.611 14.5687 185.939 11.8965L182.404 15.432ZM184.876 21.672H179.876C179.876 22.9887 179.504 23.7255 178.894 24.3268L182.404 27.888L185.913 31.4492C188.615 28.7865 189.876 25.3953 189.876 21.672H184.876ZM173.38 24.84L169.675 28.1976C171.43 30.1346 173.775 30.992 176.14 30.992V25.992V20.992C176.147 20.992 176.294 20.9946 176.516 21.0868C176.749 21.1836 176.947 21.3311 177.085 21.4824L173.38 24.84ZM176.14 25.992V30.992C178.504 30.992 180.849 30.1346 182.605 28.1976L178.9 24.84L175.195 21.4824C175.332 21.3311 175.53 21.1836 175.763 21.0868C175.985 20.9946 176.132 20.992 176.14 20.992V25.992ZM178.9 24.84L182.605 28.1976C184.336 26.2872 184.956 23.9195 184.956 21.672H179.956H174.956C174.956 21.9028 174.924 21.9532 174.948 21.8828C174.96 21.8463 174.984 21.7855 175.028 21.7102C175.072 21.6341 175.128 21.5561 175.195 21.4824L178.9 24.84ZM179.956 21.672H184.956C184.956 19.4033 184.326 17.0805 182.655 15.1794L178.9 18.48L175.144 21.7806C175.093 21.7232 175.049 21.6602 175.012 21.5962C174.976 21.5327 174.956 21.4811 174.945 21.4501C174.925 21.3891 174.956 21.4432 174.956 21.672H179.956ZM178.9 18.48L182.605 15.1224C180.849 13.1854 178.504 12.328 176.14 12.328V17.328V22.328C176.132 22.328 175.985 22.3254 175.763 22.2332C175.53 22.1364 175.332 21.9889 175.195 21.8376L178.9 18.48ZM176.14 17.328V12.328C173.775 12.328 171.43 13.1854 169.675 15.1224L173.38 18.48L177.085 21.8376C176.947 21.9889 176.749 22.1364 176.516 22.2332C176.294 22.3254 176.147 22.328 176.14 22.328V17.328ZM173.38 18.48L169.624 15.1794C167.953 17.0805 167.324 19.4033 167.324 21.672H172.324H177.324C177.324 21.4432 177.354 21.3891 177.334 21.4501C177.324 21.4811 177.303 21.5327 177.267 21.5962C177.231 21.6602 177.186 21.7232 177.135 21.7806L173.38 18.48ZM172.324 21.672H167.324C167.324 23.9195 167.943 26.2872 169.675 28.1976L173.38 24.84L177.085 21.4824C177.151 21.5561 177.207 21.6341 177.251 21.7102C177.295 21.7855 177.319 21.8463 177.331 21.8828C177.355 21.9532 177.324 21.9028 177.324 21.672H172.324ZM187.11 30H182.11V35H187.11V30ZM187.11 13.32V8.32H182.11V13.32H187.11ZM201.534 17.112L205.729 14.3925L205.721 14.3789L205.712 14.3653L201.534 17.112ZM191.814 17.664V12.664H186.814V17.664H191.814ZM191.814 25.656H186.814V30.656H191.814V25.656ZM194.118 30V25H187.11V30V35H194.118V30ZM187.11 30H192.11V13.32H187.11H182.11V30H187.11ZM187.11 13.32V18.32H194.118V13.32V8.32H187.11V13.32ZM194.118 13.32V18.32C195.754 18.32 196.716 18.8861 197.356 19.8587L201.534 17.112L205.712 14.3653C202.943 10.1539 198.577 8.32 194.118 8.32V13.32ZM201.534 17.112L197.338 19.8315C197.602 20.2382 197.806 20.7859 197.806 21.672H202.806H207.806C207.806 19.0541 207.146 16.5778 205.729 14.3925L201.534 17.112ZM202.806 21.672H197.806C197.806 22.9352 197.357 23.6361 196.839 24.086C196.232 24.6134 195.265 25 194.118 25V30V35C200.61 35 207.806 30.472 207.806 21.672H202.806ZM191.814 17.664H186.814V25.656H191.814H196.814V17.664H191.814ZM191.814 25.656V30.656H193.734V25.656V20.656H191.814V25.656ZM193.734 25.656V30.656C195.735 30.656 198.076 30.1201 199.985 28.4415C201.997 26.672 202.886 24.1983 202.886 21.648H197.886H192.886C192.886 21.7874 192.863 21.7238 192.939 21.5397C193.02 21.342 193.169 21.119 193.381 20.9325C193.795 20.5679 194.06 20.656 193.734 20.656V25.656ZM197.886 21.648H202.886C202.886 19.097 201.981 16.6399 199.985 14.8845C198.089 13.2171 195.757 12.664 193.734 12.664V17.664V22.664C194.038 22.664 193.782 22.7469 193.381 22.3935C193.175 22.213 193.028 21.9948 192.945 21.7949C192.867 21.6068 192.886 21.5316 192.886 21.648H197.886ZM193.734 17.664V12.664H191.814V17.664V22.664H193.734V17.664ZM217.711 30V35H222.711V30H217.711ZM205.039 30H200.039V35H205.039V30ZM205.039 13.32V8.32H200.039V13.32H205.039ZM217.519 13.32H222.519V8.32H217.519V13.32ZM217.519 17.376V22.376H222.519V17.376H217.519ZM209.743 17.376V12.376H204.743V17.376H209.743ZM209.743 19.584H204.743V24.584H209.743V19.584ZM216.175 19.584H221.175V14.584H216.175V19.584ZM216.175 23.64V28.64H221.175V23.64H216.175ZM209.743 23.64V18.64H204.743V23.64H209.743ZM209.743 25.944H204.743V30.944H209.743V25.944ZM217.711 25.944H222.711V20.944H217.711V25.944ZM217.711 30V25H205.039V30V35H217.711V30ZM205.039 30H210.039V13.32H205.039H200.039V30H205.039ZM205.039 13.32V18.32H217.519V13.32V8.32H205.039V13.32ZM217.519 13.32H212.519V17.376H217.519H222.519V13.32H217.519ZM217.519 17.376V12.376H209.743V17.376V22.376H217.519V17.376ZM209.743 17.376H204.743V19.584H209.743H214.743V17.376H209.743ZM209.743 19.584V24.584H216.175V19.584V14.584H209.743V19.584ZM216.175 19.584H211.175V23.64H216.175H221.175V19.584H216.175ZM216.175 23.64V18.64H209.743V23.64V28.64H216.175V23.64ZM209.743 23.64H204.743V25.944H209.743H214.743V23.64H209.743ZM209.743 25.944V30.944H217.711V25.944V20.944H209.743V25.944ZM217.711 25.944H212.711V30H217.711H222.711V25.944H217.711ZM226.629 28.872L229.583 24.8377L229.559 24.8204L229.535 24.8033L226.629 28.872ZM224.925 23.184L225.905 18.2811L221.736 17.4472L220.243 21.4284L224.925 23.184ZM229.485 24.096L234.1 26.0191L236.446 20.3892L230.465 19.1931L229.485 24.096ZM233.181 23.76L232.481 28.7108L232.496 28.7129L232.511 28.715L233.181 23.76ZM230.973 23.448L230.258 28.3966L230.265 28.3977L230.273 28.3988L230.973 23.448ZM226.749 14.52L223.526 10.6974L223.526 10.6974L226.749 14.52ZM239.085 18.624L239.677 23.5889L244.405 23.0253L244.073 18.2745L239.085 18.624ZM234.453 19.176L229.49 19.7868L230.099 24.7303L235.045 24.1409L234.453 19.176ZM231.621 19.392L232.365 14.4477L232.347 14.4449L232.328 14.4423L231.621 19.392ZM233.853 19.728L233.109 24.6723L233.117 24.6735L233.125 24.6747L233.853 19.728ZM237.525 28.728L240.726 32.5691L240.743 32.5544L240.761 32.5395L237.525 28.728ZM232.197 30.336V25.336C230.427 25.336 229.763 24.9699 229.583 24.8377L226.629 28.872L223.675 32.9063C226.183 34.7421 229.215 35.336 232.197 35.336V30.336ZM226.629 28.872L229.535 24.8033C229.455 24.7465 229.431 24.7178 229.439 24.7267C229.449 24.7373 229.482 24.7768 229.519 24.8455C229.557 24.9152 229.584 24.988 229.599 25.0528C229.614 25.1157 229.613 25.1453 229.613 25.128H224.613H219.613C219.613 28.4162 221.181 31.1249 223.723 32.9407L226.629 28.872ZM224.613 25.128H229.613C229.613 24.8399 229.653 24.8162 229.606 24.9396L224.925 23.184L220.243 21.4284C219.765 22.7038 219.613 23.9761 219.613 25.128H224.613ZM224.925 23.184L223.944 28.0869L228.504 28.9989L229.485 24.096L230.465 19.1931L225.905 18.2811L224.925 23.184ZM229.485 24.096L224.869 22.1729C224.587 22.8497 224.293 23.8089 224.293 24.936H229.293H234.293C234.293 25.2523 234.251 25.5006 234.212 25.6644C234.173 25.8304 234.129 25.9494 234.1 26.0191L229.485 24.096ZM229.293 24.936H224.293C224.293 27.6901 225.972 29.5811 227.666 30.5218C229.192 31.3699 230.871 31.592 232.245 31.592V26.592V21.592C231.819 21.592 232.022 21.5021 232.522 21.7802C232.807 21.9385 233.264 22.2629 233.658 22.8513C234.075 23.4763 234.293 24.2121 234.293 24.936H229.293ZM232.245 26.592V31.592C233.535 31.592 235.194 31.3788 236.707 30.4586C238.458 29.3933 239.765 27.4827 239.765 25.08H234.765H229.765C229.765 24.4704 229.923 23.7879 230.302 23.1514C230.672 22.5314 231.14 22.1401 231.509 21.9154C232.164 21.5172 232.563 21.592 232.245 21.592V26.592ZM234.765 25.08H239.765C239.765 22.93 238.68 21.2555 237.378 20.2415C236.197 19.3208 234.881 18.9443 233.85 18.805L233.181 23.76L232.511 28.715C232.369 28.6957 231.845 28.6072 231.233 28.1305C230.501 27.5605 229.765 26.486 229.765 25.08H234.765ZM233.181 23.76L233.88 18.8092L231.672 18.4972L230.973 23.448L230.273 28.3988L232.481 28.7108L233.181 23.76ZM230.973 23.448L231.688 18.4994C230.91 18.387 230.381 18.2434 230.041 18.1149C229.704 17.9879 229.621 17.9024 229.661 17.9367C229.722 17.9896 229.825 18.1105 229.893 18.2716C229.953 18.4144 229.925 18.4442 229.925 18.264H224.925H219.925C219.925 20.9418 220.87 23.5567 223.123 25.5033C225.152 27.2562 227.753 28.0346 230.258 28.3966L230.973 23.448ZM224.925 18.264H229.925C229.925 18.2416 229.927 18.2541 229.919 18.2917C229.915 18.3096 229.909 18.3302 229.901 18.3524C229.893 18.3745 229.885 18.3953 229.876 18.414C229.857 18.4534 229.843 18.4693 229.849 18.4611C229.857 18.4516 229.892 18.4102 229.972 18.3426L226.749 14.52L223.526 10.6974C221.272 12.5979 219.925 15.2042 219.925 18.264H224.925ZM226.749 14.52L229.972 18.3426C230.011 18.3094 230.401 17.984 231.813 17.984V12.984V7.984C228.905 7.984 225.934 8.66664 223.526 10.6974L226.749 14.52ZM231.813 12.984V17.984C232.632 17.984 233.193 18.0691 233.554 18.1655C233.729 18.2124 233.845 18.2588 233.914 18.2917C233.948 18.3081 233.972 18.3213 233.986 18.33C234 18.3386 234.006 18.3434 234.007 18.3435C234.007 18.3436 234.003 18.3405 233.996 18.3341C233.99 18.3276 233.983 18.3199 233.976 18.3116C233.961 18.2931 233.96 18.2861 233.968 18.3034C233.985 18.3391 234.066 18.5294 234.097 18.9735L239.085 18.624L244.073 18.2745C243.866 15.3244 242.722 12.4457 240.131 10.4384C237.701 8.55589 234.686 7.984 231.813 7.984V12.984ZM239.085 18.624L238.493 13.6591L233.861 14.2111L234.453 19.176L235.045 24.1409L239.677 23.5889L239.085 18.624ZM234.453 19.176L239.415 18.5652C239.253 17.244 238.77 15.2909 237.123 13.734C235.422 12.1259 233.327 11.728 231.645 11.728V16.728V21.728C231.859 21.728 231.071 21.7741 230.253 21C229.488 20.2771 229.461 19.548 229.49 19.7868L234.453 19.176ZM231.645 16.728V11.728C230.373 11.728 228.903 12.0089 227.574 12.8255C226.223 13.6565 224.605 15.3806 224.605 18H229.605H234.605C234.605 19.8754 233.431 20.9635 232.811 21.3445C232.215 21.7111 231.764 21.728 231.645 21.728V16.728ZM229.605 18H224.605C224.605 20.2035 225.743 21.9694 227.276 23.0232C228.541 23.8929 229.935 24.2019 230.914 24.3417L231.621 19.392L232.328 14.4423C231.963 14.3901 232.348 14.3751 232.941 14.7828C233.289 15.0218 233.741 15.431 234.096 16.066C234.461 16.7191 234.605 17.4016 234.605 18H229.605ZM231.621 19.392L230.877 24.3363L233.109 24.6723L233.853 19.728L234.597 14.7837L232.365 14.4477L231.621 19.392ZM233.853 19.728L233.125 24.6747C233.841 24.7802 234.305 24.9111 234.584 25.0182C234.857 25.1233 234.882 25.178 234.796 25.1021C234.689 25.0069 234.565 24.8454 234.488 24.6553C234.42 24.4877 234.445 24.4366 234.445 24.6H239.445H244.445C244.445 22.096 243.607 19.5518 241.435 17.6239C239.48 15.8882 236.968 15.1328 234.581 14.7813L233.853 19.728ZM239.445 24.6H234.445C234.445 24.6973 234.436 24.7498 234.432 24.7677C234.428 24.7841 234.427 24.7825 234.432 24.7724C234.437 24.7625 234.437 24.7652 234.423 24.7833C234.408 24.8026 234.369 24.8486 234.289 24.9165L237.525 28.728L240.761 32.5395C243.131 30.527 244.445 27.7747 244.445 24.6H239.445ZM237.525 28.728L234.324 24.8869C234.205 24.9864 233.705 25.336 232.197 25.336V30.336V35.336C235.201 35.336 238.253 34.6296 240.726 32.5691L237.525 28.728ZM246.306 30V35H251.306V30H246.306ZM241.602 30H236.602V35H241.602V30ZM241.602 13.32V8.32H236.602V13.32H241.602ZM248.13 13.32L252.78 11.4826L251.53 8.32H248.13V13.32ZM251.25 21.216L246.6 23.0534L251.341 35.0532L255.924 22.9918L251.25 21.216ZM254.25 13.32V8.32H250.801L249.576 11.5442L254.25 13.32ZM260.802 13.32H265.802V8.32H260.802V13.32ZM260.802 30V35H265.802V30H260.802ZM256.098 30H251.098V35H256.098V30ZM256.098 19.008H261.098L251.447 17.1722L256.098 19.008ZM253.218 26.304V31.304H256.62L257.869 28.1398L253.218 26.304ZM249.186 26.304L244.535 28.1398L245.784 31.304H249.186V26.304ZM246.306 19.008L250.957 17.1722L241.306 19.008H246.306ZM246.306 30V25H241.602V30V35H246.306V30ZM241.602 30H246.602V13.32H241.602H236.602V30H241.602ZM241.602 13.32V18.32H248.13V13.32V8.32H241.602V13.32ZM248.13 13.32L243.48 15.1574L246.6 23.0534L251.25 21.216L255.9 19.3786L252.78 11.4826L248.13 13.32ZM251.25 21.216L255.924 22.9918L258.924 15.0958L254.25 13.32L249.576 11.5442L246.576 19.4402L251.25 21.216ZM254.25 13.32V18.32H260.802V13.32V8.32L254.25 8.32V13.32ZM260.802 13.32L255.802 13.32V30H260.802H265.802V13.32H260.802ZM260.802 30V25H256.098V30V35H260.802V30ZM256.098 30H261.098V19.008H256.098H251.098V30H256.098ZM256.098 19.008L251.447 17.1722L248.567 24.4682L253.218 26.304L257.869 28.1398L260.749 20.8438L256.098 19.008ZM253.218 26.304V21.304H249.186V26.304V31.304H253.218V26.304ZM249.186 26.304L253.837 24.4682L250.957 17.1722L246.306 19.008L241.655 20.8438L244.535 28.1398L249.186 26.304ZM246.306 19.008H241.306V30H246.306H251.306V19.008H246.306ZM279.373 30V35H286.322L284.113 28.4107L279.373 30ZM274.453 30L269.68 31.4914L270.777 35H274.453V30ZM273.373 26.544L278.145 25.0526L277.049 21.544H273.373V26.544ZM268.021 26.544V21.544H264.295L263.23 25.1134L268.021 26.544ZM266.989 30V35H270.714L271.78 31.4306L266.989 30ZM262.069 30L257.328 28.4107L255.119 35H262.069V30ZM267.661 13.32V8.32H264.063L262.92 11.7307L267.661 13.32ZM273.781 13.32L278.521 11.7307L277.378 8.32H273.781V13.32ZM270.613 17.736L275.386 16.2471L270.468 0.479951L265.815 16.3276L270.613 17.736ZM269.077 22.968L264.279 21.5596L262.398 27.968H269.077V22.968ZM272.245 22.968V27.968H279.042L277.018 21.4791L272.245 22.968ZM279.373 30V25H274.453V30V35H279.373V30ZM274.453 30L279.225 28.5086L278.145 25.0526L273.373 26.544L268.6 28.0354L269.68 31.4914L274.453 30ZM273.373 26.544V21.544H268.021V26.544V31.544H273.373V26.544ZM268.021 26.544L263.23 25.1134L262.198 28.5694L266.989 30L271.78 31.4306L272.812 27.9746L268.021 26.544ZM266.989 30V25H262.069V30V35H266.989V30ZM262.069 30L266.809 31.5893L272.401 14.9093L267.661 13.32L262.92 11.7307L257.328 28.4107L262.069 30ZM267.661 13.32V18.32H273.781V13.32V8.32H267.661V13.32ZM273.781 13.32L269.04 14.9093L274.632 31.5893L279.373 30L284.113 28.4107L278.521 11.7307L273.781 13.32ZM270.613 17.736L265.815 16.3276L264.279 21.5596L269.077 22.968L273.874 24.3764L275.41 19.1444L270.613 17.736ZM269.077 22.968V27.968H272.245V22.968V17.968H269.077V22.968ZM272.245 22.968L277.018 21.4791L275.386 16.2471L270.613 17.736L265.839 19.2249L267.471 24.4569L272.245 22.968ZM294.449 25.632V20.632H294.392L294.335 20.6333L294.449 25.632ZM295.145 25.584H300.145V20.1088L294.692 20.6045L295.145 25.584ZM295.145 29.928L296.556 34.7248L300.145 33.6692V29.928H295.145ZM289.673 29.112L292.314 24.8667L292.293 24.8538L292.272 24.841L289.673 29.112ZM286.889 25.176L291.558 23.3888L291.545 23.3538L291.531 23.3191L286.889 25.176ZM286.697 24.696L291.339 22.839L290.082 19.696H286.697V24.696ZM285.353 24.696V19.696H280.353V24.696H285.353ZM285.353 30V35H290.353V30H285.353ZM280.649 30H275.649V35H280.649V30ZM280.649 13.32V8.32H275.649V13.32H280.649ZM293.201 14.856L296.461 11.0651L296.442 11.0491L296.424 11.0334L293.201 14.856ZM291.521 23.784L290.065 19.0006L283.561 20.9801L287.388 26.5988L291.521 23.784ZM285.353 17.352V12.352H280.353V17.352H285.353ZM285.353 20.688H280.353V25.688H285.353V20.688ZM294.449 25.632V30.632C294.957 30.632 295.487 30.5735 295.597 30.5635L295.145 25.584L294.692 20.6045C294.653 20.6081 294.615 20.6116 294.583 20.6147C294.548 20.6179 294.521 20.6204 294.494 20.6229C294.44 20.6279 294.408 20.6307 294.385 20.6325C294.339 20.6361 294.375 20.632 294.449 20.632V25.632ZM295.145 25.584L290.145 25.584V29.928L295.145 29.928H300.145V25.584H295.145ZM295.145 29.928L293.734 25.1312C293.756 25.1246 293.771 25.1212 293.778 25.1196C293.786 25.118 293.788 25.1177 293.787 25.118C293.785 25.1183 293.78 25.1188 293.774 25.1193C293.767 25.1197 293.76 25.12 293.753 25.12V30.12V35.12C294.714 35.12 295.671 34.9851 296.556 34.7248L295.145 29.928ZM293.753 30.12V25.12C292.786 25.12 292.401 24.9205 292.314 24.8667L289.673 29.112L287.031 33.3573C289.105 34.6475 291.456 35.12 293.753 35.12V30.12ZM289.673 29.112L292.272 24.841C292.428 24.9356 292.392 24.9651 292.227 24.7325C292.061 24.4974 291.821 24.0754 291.558 23.3888L286.889 25.176L282.219 26.9632C283.138 29.3634 284.604 31.8799 287.073 33.383L289.673 29.112ZM286.889 25.176L291.531 23.3191L291.339 22.839L286.697 24.696L282.054 26.5529L282.246 27.0329L286.889 25.176ZM286.697 24.696V19.696H285.353V24.696V29.696H286.697V24.696ZM285.353 24.696H280.353V30H285.353H290.353V24.696H285.353ZM285.353 30V25H280.649V30V35H285.353V30ZM280.649 30H285.649V13.32H280.649H275.649V30H280.649ZM280.649 13.32V18.32H288.593V13.32V8.32H280.649V13.32ZM288.593 13.32V18.32C289.48 18.32 289.81 18.5372 289.978 18.6786L293.201 14.856L296.424 11.0334C294.143 9.11083 291.401 8.32 288.593 8.32V13.32ZM293.201 14.856L289.941 18.6469C289.966 18.6689 289.969 18.6756 289.962 18.6659C289.954 18.6558 289.95 18.6468 289.95 18.6468C289.95 18.6479 289.962 18.6753 289.974 18.7404C289.987 18.807 290.001 18.9172 290.001 19.08L295.001 19.08H300.001C300.001 16.0584 298.916 13.1765 296.461 11.0651L293.201 14.856ZM295.001 19.08L290.001 19.08C290.001 19.2487 289.979 19.3047 289.987 19.2792C289.99 19.2669 290 19.2397 290.019 19.2021C290.038 19.1643 290.063 19.123 290.094 19.0817C290.125 19.0404 290.157 19.0059 290.186 18.9787C290.215 18.9518 290.237 18.9366 290.245 18.9311C290.262 18.92 290.215 18.9551 290.065 19.0006L291.521 23.784L292.977 28.5674C294.898 27.9825 296.74 26.8808 298.083 25.0963C299.434 23.3026 300.001 21.1907 300.001 19.08H295.001ZM291.521 23.784L287.388 26.5988C288.132 27.6903 289.124 28.8883 290.562 29.6966C292.149 30.5889 293.643 30.6516 294.562 30.6307L294.449 25.632L294.335 20.6333C294.237 20.6355 294.366 20.6247 294.596 20.6664C294.864 20.715 295.17 20.8155 295.462 20.9794C295.734 21.1323 295.877 21.2751 295.897 21.2956C295.908 21.3069 295.827 21.2251 295.653 20.9692L291.521 23.784ZM287.849 17.352V12.352H285.353V17.352V22.352H287.849V17.352ZM285.353 17.352H280.353V20.688H285.353H290.353V17.352H285.353ZM285.353 20.688V25.688H287.921V20.688V15.688H285.353V20.688ZM287.921 20.688V25.688C289.137 25.688 290.982 25.4798 292.604 24.2231C294.472 22.7752 295.081 20.7157 295.081 19.008L290.081 19.008H285.081C285.081 18.7662 285.119 18.3171 285.349 17.7797C285.592 17.2109 285.984 16.7016 286.478 16.3189C287.379 15.6202 288.145 15.688 287.921 15.688V20.688ZM290.081 19.008L295.081 19.008C295.081 17.2156 294.397 15.1567 292.502 13.7505C290.886 12.5518 289.065 12.352 287.849 12.352V17.352V22.352C288.12 22.352 287.415 22.4282 286.543 21.7815C286.058 21.421 285.645 20.9221 285.38 20.3326C285.128 19.7716 285.081 19.2889 285.081 19.008H290.081ZM305.336 30V35H310.336V30H305.336ZM300.632 30H295.632V35H300.632V30ZM300.632 17.664H305.632V12.664H300.632V17.664ZM295.976 17.664L290.976 17.664V22.664L295.976 22.664V17.664ZM295.976 13.32V8.32H290.976V13.32H295.976ZM309.992 13.32H314.992V8.32H309.992V13.32ZM309.992 17.664V22.664H314.992V17.664H309.992ZM305.336 17.664V12.664H300.336V17.664H305.336ZM305.336 30V25H300.632V30V35H305.336V30ZM300.632 30H305.632V17.664H300.632H295.632V30H300.632ZM300.632 17.664V12.664H295.976V17.664V22.664H300.632V17.664ZM295.976 17.664H300.976V13.32H295.976H290.976V17.664L295.976 17.664ZM295.976 13.32V18.32H309.992V13.32V8.32H295.976V13.32ZM309.992 13.32H304.992V17.664H309.992H314.992V13.32H309.992ZM309.992 17.664V12.664H305.336V17.664V22.664H309.992V17.664ZM305.336 17.664H300.336V30H305.336H310.336V17.664H305.336ZM316.353 24V29H321.22L321.351 24.1348L316.353 24ZM312.033 24L307.034 24.1348L307.166 29H312.033V24ZM311.745 13.32V8.32H306.608L306.746 13.4548L311.745 13.32ZM316.641 13.32L321.639 13.4548L321.777 8.32H316.641V13.32ZM316.353 24V19H312.033V24V29H316.353V24ZM312.033 24L317.031 23.8652L316.743 13.1852L311.745 13.32L306.746 13.4548L307.034 24.1348L312.033 24ZM311.745 13.32V18.32H316.641V13.32V8.32H311.745V13.32ZM316.641 13.32L311.642 13.1852L311.354 23.8652L316.353 24L321.351 24.1348L321.639 13.4548L316.641 13.32ZM314.193 30.336V25.336C315.298 25.336 316.433 26.2564 316.433 27.624H311.433H306.433C306.433 32.0636 310.064 35.336 314.193 35.336V30.336ZM311.433 27.624H316.433C316.433 28.9916 315.298 29.912 314.193 29.912V24.912V19.912C310.064 19.912 306.433 23.1844 306.433 27.624H311.433ZM314.193 24.912V29.912C313.719 29.912 313.141 29.725 312.666 29.2616C312.182 28.7895 311.953 28.1709 311.953 27.624H316.953H321.953C321.953 23.1876 318.398 19.912 314.193 19.912V24.912ZM316.953 27.624H311.953C311.953 27.0771 312.182 26.4585 312.666 25.9864C313.141 25.523 313.719 25.336 314.193 25.336V30.336V35.336C318.398 35.336 321.953 32.0604 321.953 27.624H316.953Z" fill="#FF00AA" mask="url(#path-1-outside-1_4021_404)"/>
</svg>
