<svg width="156" height="38" viewBox="0 0 156 38" fill="none" xmlns="http://www.w3.org/2000/svg">
<path fill-rule="evenodd" clip-rule="evenodd" d="M73.6386 19C73.6386 20.4933 73.332 21.8133 72.7186 22.96C72.1186 24.1067 71.2786 25 70.1986 25.64C69.132 26.28 67.8853 26.6 66.4586 26.6C65.0586 26.6 63.8186 26.28 62.7386 25.64C61.672 25 60.8386 24.1133 60.2386 22.98C59.6386 21.8333 59.3386 20.5133 59.3386 19.02C59.3386 17.5133 59.6386 16.1933 60.2386 15.06C60.852 13.9133 61.692 13.02 62.7586 12.38C63.8253 11.7267 65.0653 11.4 66.4786 11.4C67.892 11.4 69.132 11.7267 70.1986 12.38C71.2786 13.02 72.1186 13.9133 72.7186 15.06C73.332 16.1933 73.6386 17.5067 73.6386 19ZM70.6386 19C70.6386 18 70.472 17.14 70.1386 16.42C69.8053 15.6867 69.3253 15.1267 68.6986 14.74C68.0853 14.34 67.352 14.14 66.4986 14.14C65.6453 14.14 64.9053 14.34 64.2786 14.74C63.652 15.1267 63.172 15.6867 62.8386 16.42C62.5053 17.14 62.3386 18 62.3386 19C62.3386 20 62.5053 20.8667 62.8386 21.6C63.172 22.32 63.652 22.88 64.2786 23.28C64.9053 23.6667 65.6453 23.86 66.4986 23.86C67.352 23.86 68.0853 23.66 68.6986 23.26C69.3253 22.86 69.8053 22.3 70.1386 21.58C70.472 20.8467 70.6386 19.9867 70.6386 19Z" fill="#22223A"/>
<path d="M51.1261 26.6C49.6728 26.6 48.4128 26.2933 47.3461 25.68C46.2928 25.0533 45.4728 24.1733 44.8861 23.04C44.3128 21.9067 44.0261 20.5667 44.0261 19.02C44.0261 17.5 44.3261 16.1733 44.9261 15.04C45.5261 13.8933 46.3728 13.0067 47.4661 12.38C48.5595 11.74 49.8261 11.42 51.2661 11.42C52.4528 11.42 53.5128 11.64 54.4461 12.08C55.3928 12.5067 56.1661 13.12 56.7661 13.92C57.3795 14.7067 57.7595 15.6333 57.9061 16.7H54.9061C54.6661 15.8867 54.2195 15.26 53.5661 14.82C52.9128 14.38 52.1195 14.16 51.1861 14.16C50.3328 14.16 49.5928 14.36 48.9661 14.76C48.3395 15.1467 47.8595 15.7 47.5261 16.42C47.1928 17.14 47.0261 18.0067 47.0261 19.02C47.0261 19.9933 47.1928 20.8467 47.5261 21.58C47.8728 22.3 48.3595 22.86 48.9861 23.26C49.6128 23.66 50.3461 23.86 51.1861 23.86C52.1328 23.86 52.9461 23.6333 53.6261 23.18C54.3061 22.7267 54.7595 22.1067 54.9861 21.32H57.9461C57.7595 22.3733 57.3528 23.3 56.7261 24.1C56.1128 24.8867 55.3261 25.5 54.3661 25.94C53.4061 26.38 52.3261 26.6 51.1261 26.6Z" fill="#22223A"/>
<path d="M85.3989 21.6219L78.7989 11.66H75.9789V26.36H78.7989V16.4158L85.3989 26.36H88.2189V11.66H85.3989V21.6219Z" fill="#22223A"/>
<path d="M97.6496 26.6C96.1962 26.6 94.9362 26.2933 93.8696 25.68C92.8162 25.0533 91.9962 24.1733 91.4096 23.04C90.8362 21.9067 90.5496 20.5667 90.5496 19.02C90.5496 17.5 90.8496 16.1733 91.4496 15.04C92.0496 13.8933 92.8962 13.0067 93.9896 12.38C95.0829 11.74 96.3496 11.42 97.7896 11.42C98.9762 11.42 100.036 11.64 100.97 12.08C101.916 12.5067 102.69 13.12 103.29 13.92C103.903 14.7067 104.283 15.6333 104.43 16.7H101.43C101.19 15.8867 100.743 15.26 100.09 14.82C99.4362 14.38 98.6429 14.16 97.7096 14.16C96.8562 14.16 96.1162 14.36 95.4896 14.76C94.8629 15.1467 94.3829 15.7 94.0496 16.42C93.7162 17.14 93.5496 18.0067 93.5496 19.02C93.5496 19.9933 93.7162 20.8467 94.0496 21.58C94.3962 22.3 94.8829 22.86 95.5096 23.26C96.1362 23.66 96.8696 23.86 97.7096 23.86C98.6562 23.86 99.4696 23.6333 100.15 23.18C100.83 22.7267 101.283 22.1067 101.51 21.32H104.47C104.283 22.3733 103.876 23.3 103.25 24.1C102.636 24.8867 101.85 25.5 100.89 25.94C99.9296 26.38 98.8496 26.6 97.6496 26.6Z" fill="#22223A"/>
<path fill-rule="evenodd" clip-rule="evenodd" d="M127.096 12.28C126.362 11.8667 125.496 11.66 124.496 11.66H118.616V26.36H121.476V21.36H124.496C125.496 21.36 126.362 21.16 127.096 20.76C127.829 20.3467 128.396 19.7733 128.796 19.04C129.209 18.3067 129.416 17.4667 129.416 16.52C129.416 15.5467 129.209 14.7 128.796 13.98C128.396 13.2467 127.829 12.68 127.096 12.28ZM125.776 14.78C125.349 14.3933 124.722 14.2 123.896 14.2H121.476V18.84H123.876C124.716 18.84 125.349 18.64 125.776 18.24C126.202 17.84 126.416 17.26 126.416 16.5C126.416 15.74 126.202 15.1667 125.776 14.78Z" fill="#22223A"/>
<path d="M106.682 26.36H115.902V23.72H109.542V20.2H115.202V17.7H109.542V14.3H115.902V11.66H106.682V26.36Z" fill="#22223A"/>
<path d="M134.546 14.3H130.286V11.66H141.626V14.3H137.386V26.36H134.546V14.3Z" fill="#22223A"/>
<path d="M146.176 8.49611L152.496 8.49611V7.51611H145.266L145.266 11.6761H146.176L146.176 8.49611Z" fill="#22223A"/>
<path fill-rule="evenodd" clip-rule="evenodd" d="M145.266 12.216L145.266 13.236L147.066 13.876L147.066 16.916L145.266 17.566L145.266 18.596L152.496 15.946V14.856L145.266 12.216ZM147.916 14.176L150.936 15.276C151.01 15.3027 151.083 15.326 151.156 15.346L151.356 15.396C151.303 15.4027 151.236 15.4194 151.156 15.446C151.083 15.4727 151.01 15.496 150.936 15.516L147.916 16.626L147.916 14.176Z" fill="#22223A"/>
<path fill-rule="evenodd" clip-rule="evenodd" d="M145.266 22.4171C145.266 22.8905 145.343 23.3005 145.496 23.6471C145.65 23.9938 145.87 24.2571 146.156 24.4371C146.45 24.6238 146.796 24.7171 147.196 24.7171C147.663 24.7171 148.043 24.5971 148.336 24.3571C148.592 24.1586 148.779 23.8755 148.899 23.508C149.033 23.8295 149.222 24.0793 149.466 24.2571C149.766 24.4771 150.14 24.5871 150.586 24.5871C151.18 24.5871 151.646 24.3838 151.986 23.9771C152.326 23.5771 152.496 23.0238 152.496 22.3171V19.5571H145.266L145.266 22.4171ZM151.326 23.2371C151.526 23.0105 151.626 22.6838 151.626 22.2571V20.5371H149.306V22.3171C149.306 22.7238 149.41 23.0371 149.616 23.2571C149.823 23.4771 150.116 23.5871 150.496 23.5871C150.856 23.5871 151.133 23.4705 151.326 23.2371ZM146.136 22.3971L146.136 20.5371H148.456L148.456 22.3971C148.456 22.8105 148.356 23.1305 148.156 23.3571C147.956 23.5905 147.676 23.7071 147.316 23.7071C146.943 23.7071 146.653 23.5938 146.446 23.3671C146.24 23.1405 146.136 22.8171 146.136 22.3971Z" fill="#22223A"/>
<path d="M151.636 25.8338C151.323 25.6272 150.96 25.5238 150.546 25.5238C150.026 25.5238 149.596 25.6738 149.256 25.9738C148.923 26.2805 148.69 26.7272 148.556 27.3138L148.286 28.5038C148.206 28.8505 148.076 29.1038 147.896 29.2638C147.716 29.4238 147.483 29.5038 147.196 29.5038C146.843 29.5038 146.56 29.3605 146.346 29.0738C146.133 28.7938 146.026 28.4138 146.026 27.9338C146.026 27.4805 146.126 27.1172 146.326 26.8438C146.533 26.5705 146.81 26.4305 147.156 26.4238V25.4238C146.75 25.4505 146.393 25.5672 146.086 25.7738C145.786 25.9872 145.553 26.2772 145.386 26.6438C145.226 27.0172 145.146 27.4472 145.146 27.9338C145.146 28.4472 145.233 28.8938 145.406 29.2738C145.58 29.6605 145.826 29.9572 146.146 30.1638C146.466 30.3772 146.843 30.4838 147.276 30.4838C147.783 30.4838 148.196 30.3338 148.516 30.0338C148.843 29.7405 149.073 29.2972 149.206 28.7038L149.486 27.5138C149.566 27.1738 149.693 26.9205 149.866 26.7538C150.046 26.5872 150.283 26.5038 150.576 26.5038C150.936 26.5038 151.22 26.6405 151.426 26.9138C151.64 27.1872 151.746 27.5505 151.746 28.0038C151.746 28.4105 151.646 28.7338 151.446 28.9738C151.246 29.2138 150.966 29.3472 150.606 29.3738V30.3638C151.026 30.3372 151.386 30.2238 151.686 30.0238C151.986 29.8305 152.216 29.5605 152.376 29.2138C152.543 28.8738 152.626 28.4738 152.626 28.0138C152.626 27.5205 152.54 27.0838 152.366 26.7038C152.193 26.3305 151.95 26.0405 151.636 25.8338Z" fill="#22223A"/>
<path d="M3 3L32.3609 1L41 10L30.5 37L1 34L3 3Z" fill="#CBF936"/>
<path d="M16.2049 19.9268H13.6258V16.8963H9.99609V26.6357H13.6258L16.2049 19.9268Z" fill="#22223A"/>
<path d="M13.6258 11.3643V14.9922H9.99609V11.3643H13.6258Z" fill="#22223A"/>
<path d="M19.208 17.8637L16.3965 25.1771V26.6329H19.9344V16.9411L26.372 26.6329H29.6733V11.3644H26.372V21.0741L19.9344 11.3644H16.3965V17.8637H19.208Z" fill="#22223A"/>
</svg>
