<svg xmlns="http://www.w3.org/2000/svg" viewBox="0 0 636.89 225.48"><defs><style>.cls-1,.cls-4,.cls-5,.cls-6{fill:#282829;}.cls-1,.cls-2{fill-rule:evenodd;}.cls-2{fill:#00afef;}.cls-3{fill:none;stroke:#373435;stroke-miterlimit:22.93;stroke-width:0.57px;}.cls-5{font-size:62.05px;font-family:HelveticaRounded-Bold, Helvetica Rounded;font-weight:700;}.cls-6{font-size:21.93px;font-family:ArialMT, Arial;}</style></defs><g id="Layer_2" data-name="Layer 2"><g id="Layer_1-2" data-name="Layer 1"><path class="cls-1" d="M201.6,55.93c-4.77,8.24-5.17,13.67-2.84,22.45l9.8,36.79c2.34,8.78,5.38,13.29,13.62,18.07l0,0c10.22,5.91,22.64.77,31.17-1.5l14.6-3.89c7.29-1.94,12.05-2,14.94-7,2.25-3.88.76-8.71-3.91-11.41-3.79-2.2-9.11.25-12.44,1.14L242.5,117c-4,1.06-8.82,3.23-13.12.74-4.14-2.4-4.8-8.76-5.76-12.37l-6.91-26c-2.48-9.31-5.1-15.31,7.08-18.54l79.53-21.18c3-.8,6.05-1.94,9.48-.21,4.53,2.29,5.6,10.61,7.23,16.76,1.8,6.77,2.24,14,9.69,15.17a8.85,8.85,0,0,0,8.48-4.07c2.35-4.07.32-8-.59-11.43C334.33,43.55,333.18,31.48,322,25c-11.45-6.64-22.68-1.93-32,.55L230,41.55c-9.73,2.59-22.4,4.11-28.33,14.34Z"/><path class="cls-2" d="M340.92,14.46c-2.73,4.72-.56,9.74,1.8,11.11,5.87,3.4,7.6,1.6,14.15-.14L381,19c4-1.07,8.82-3.24,13.13-.75,4.13,2.4,4.79,8.76,5.75,12.37l6.92,26c1.12,4.24,3.61,9.36.95,13.94-2.44,4.23-11.42,5.5-15.34,6.55l-16.23,4.32L343.94,90,319.86,96.4c-2.78.74-5.23,1.72-8.6.4-4.95-1.94-5.68-8.92-7.27-14.86-.75-2.84-1.41-5.28-2.16-8.11-1.34-5.07-1.65-6.11-5.56-8.37-4.49-2.61-10.83.44-11.94,6.07-.6,3.08,2.09,10.77,2.95,14,2.46,9.25,3.34,19.21,14.51,25.68s22.59,1.67,31.66-.75l60.05-16c13.4-3.56,22.17-3.72,29.72-16.73l0,0c3.77-6.53,3.18-13.56,1.45-20.07l-9.8-36.79c-2.34-8.78-5.38-13.29-13.62-18.07l0,0C391-3.17,378.59,2,370.06,4.24l-14.87,4c-3.79,1-11.87,2.12-14.27,6.26"/><path class="cls-1" d="M98.18,79.86a34,34,0,1,1,68.08.17l-.14,44.9c0,6.61,2.26,9.93,6.75,9.93h2c3.83,0,6-2.19,6.64-6.61V77.09C181.5,51,159.49,30,132.35,30A50,50,0,0,0,90.82,51.67,50.07,50.07,0,0,0,49.28,30c-27.15,0-49,21.31-49,47.22v51c.62,4.42,2.81,6.61,6.65,6.61h2c4.49,0,6.75-3.32,6.75-9.93V80.4c0-18.7,15.26-34.87,34.1-34.87a34.11,34.11,0,0,1,34.11,34.1l-1,47.32c-.11,5.29,2.7,7.91,6.71,7.91,4.31,0,8.63-.48,8.63-5.93Z"/><path class="cls-3" d="M98.18,79.86a34,34,0,1,1,68.08.17l-.14,44.9c0,6.61,2.26,9.93,6.75,9.93h2c3.83,0,6-2.19,6.64-6.61V77.09C181.5,51,159.49,30,132.35,30A50,50,0,0,0,90.82,51.67,50.07,50.07,0,0,0,49.28,30c-27.15,0-49,21.31-49,47.22v51c.62,4.42,2.81,6.61,6.65,6.61h2c4.49,0,6.75-3.32,6.75-9.93V80.4c0-18.7,15.26-34.87,34.1-34.87a34.11,34.11,0,0,1,34.11,34.1l-1,47.32c-.11,5.29,2.7,7.91,6.71,7.91,4.31,0,8.63-.48,8.63-5.93Z"/><path class="cls-4" d="M471.4,7.5v24h22c4.49.65,6.71,2.67,6.71,6v1.41c0,3.32-2.22,5.3-6.71,5.92h-22V92.16c0,12.76-1.16,28.22,14.07,29.31,2.83.2,9.06-.86,13.16-2,4.36-1.18,8.11-.22,8.11,5.29,0,6.13-6.44,9.69-19.28,10.62h-1.41c-13.25,0-22.32-6.41-27.29-19.25a69.32,69.32,0,0,1-2-16.06V44.83H443.42c-10.45-1.46-7.21-13.35,0-13.35h13.35V8.19c0-5.61,5-8.13,9-7.5A6.79,6.79,0,0,1,471.4,7.5Z"/><path class="cls-3" d="M471.4,7.5v24h22c4.49.65,6.71,2.67,6.71,6v1.41c0,3.32-2.22,5.3-6.71,5.92h-22V92.16c0,12.76-1.16,28.22,14.07,29.31,2.83.2,9.06-.86,13.16-2,4.36-1.18,8.11-.22,8.11,5.29,0,6.13-6.44,9.69-19.28,10.62h-1.41c-13.25,0-22.32-6.41-27.29-19.25a69.32,69.32,0,0,1-2-16.06V44.83H443.42c-10.45-1.46-7.21-13.35,0-13.35h13.35V8.19c0-5.61,5-8.13,9-7.5A6.79,6.79,0,0,1,471.4,7.5Z"/><path class="cls-1" d="M562.28,44.59c19.55,0,35.41,17,35.41,38s-15.86,37.95-35.41,37.95-35.42-17-35.42-37.95S542.72,44.59,562.28,44.59ZM598,44.38V36.93c0-4,2.5-6.14,5.92-6,2.12.07,4.87-.11,6.63,1.15,1.56,1.13,2.07,3.08,2.07,5.56V162.12c0,10-15.35,8.49-15.34,0l.05-41a50.31,50.31,0,0,1-34,13A51.58,51.58,0,1,1,598,44.38Z"/><path class="cls-3" d="M562.28,44.59c19.55,0,35.41,17,35.41,38s-15.86,37.95-35.41,37.95-35.42-17-35.42-37.95S542.72,44.59,562.28,44.59ZM598,44.38V36.93c0-4,2.5-6.14,5.92-6,2.12.07,4.87-.11,6.63,1.15,1.56,1.13,2.07,3.08,2.07,5.56V162.12c0,10-15.35,8.49-15.34,0l.05-41a50.31,50.31,0,0,1-34,13A51.58,51.58,0,1,1,598,44.38Z"/><text class="cls-5" transform="translate(196.47 212.2)">a</text><text class="cls-5" transform="translate(236.47 212.2)">c</text><text class="cls-5" transform="translate(271.88 212.2)">c</text><text class="cls-5" transform="translate(307.29 212.2)">e</text><text class="cls-5" transform="translate(347.36 212.2)">s</text><text class="cls-5" transform="translate(382.77 212.2)">s</text><text class="cls-6" transform="translate(620.7 168.81)">®</text></g></g></svg>