<svg width="991" height="155" viewBox="0 0 991 155" fill="none" xmlns="http://www.w3.org/2000/svg">
<path d="M714.155 75.2517C718.427 74.2044 721.779 72.1262 724.215 69.0184C726.648 65.9134 727.867 62.1879 727.867 57.8447C727.867 51.7806 725.452 46.9901 720.616 43.4706C715.786 39.9524 709.171 38.1919 700.78 38.1919H674.402C669.665 38.1919 665.824 42.0292 665.824 46.7638V108.233C665.824 112.966 669.665 116.803 674.402 116.803H701.79C710.783 116.803 717.88 114.876 723.089 111.02C728.297 107.165 730.898 101.866 730.898 95.1281C730.898 89.889 729.419 85.509 726.46 81.9894C723.498 78.4712 719.396 76.2253 714.152 75.2517H714.155ZM680.885 51.2188H699.991C703.886 51.1452 706.941 51.9306 709.153 53.5765C711.363 55.2238 712.469 57.5447 712.469 60.5393C712.469 63.6102 711.363 66.0062 709.153 67.7271C706.942 69.4507 703.887 70.3098 699.991 70.3098H680.885V51.2188ZM711.232 101.08C708.533 102.953 704.787 103.851 699.991 103.776H680.885V82.9999H699.991C704.786 82.9262 708.533 83.8058 711.232 85.6385C713.93 87.474 715.278 89.9995 715.278 93.219C715.278 96.5872 713.928 99.2095 711.232 101.08Z" fill="black"/>
<path d="M900.232 38.1919H887.53C887.002 38.1919 886.575 38.6187 886.575 39.1464V92.4336L848.853 42.0046C847.058 39.6046 844.235 38.1919 841.236 38.1919C835.982 38.1919 831.726 42.4465 831.726 47.6938V115.849C831.726 116.376 832.153 116.803 832.68 116.803H845.494C846.021 116.803 846.449 116.376 846.449 115.849V62.6734L883.887 112.757C885.734 115.227 888.607 116.807 891.693 116.803C896.938 116.795 901.186 112.546 901.186 107.303V39.1464C901.186 38.6187 900.759 38.1919 900.232 38.1919Z" fill="black"/>
<path d="M990.826 115.298L959.746 71.4334L988.53 39.7901C989.087 39.1764 988.651 38.1919 987.822 38.1919H972.645C972.375 38.1919 972.118 38.3078 971.937 38.5069L936.704 77.3858V39.1492C936.704 38.6201 936.277 38.1933 935.748 38.1933H922.599C922.07 38.1933 921.645 38.6201 921.645 39.1492V115.85C921.645 116.378 922.07 116.805 922.599 116.805H935.748C936.277 116.805 936.704 116.378 936.704 115.85V96.7018L949.068 83.1144L973.509 116.415C973.69 116.66 973.976 116.805 974.279 116.805H990.043C990.82 116.805 991.273 115.931 990.824 115.298H990.826Z" fill="black"/>
<path d="M356.528 38.1919C352.412 38.1919 348.682 40.611 347.003 44.3665L323.909 96.0827L300.599 44.3351C298.915 40.596 295.192 38.1919 291.088 38.1919H291.065C285.305 38.1919 280.635 42.8569 280.635 48.6129V115.849C280.635 116.376 281.062 116.803 281.59 116.803H293.392C293.918 116.803 294.346 116.376 294.346 115.849V60.4288L316.963 112.23C317.897 114.369 319.735 116.04 322.006 116.591C325.607 117.462 329.15 115.601 330.554 112.371L353.13 60.4288V115.849C353.13 116.376 353.557 116.803 354.085 116.803H365.998C366.527 116.803 366.954 116.376 366.954 115.849V48.6129C366.954 42.8569 362.285 38.1919 356.524 38.1919H356.528Z" fill="#6DCE35"/>
<path d="M445.467 103.663H402.474V83.8986H439.733C440.261 83.8986 440.688 83.4718 440.688 82.9454V71.7145C440.688 71.1867 440.261 70.7613 439.733 70.7613H402.474V51.3321H444.117C444.645 51.3321 445.072 50.9053 445.072 50.3775V39.1479C445.072 38.6202 444.645 38.1934 444.117 38.1934H395.989C391.252 38.1934 387.41 42.0307 387.41 46.7639V108.234C387.41 112.967 391.252 116.805 395.989 116.805H445.465C445.993 116.805 446.421 116.378 446.421 115.85V104.621C446.421 104.093 445.993 103.666 445.465 103.666L445.467 103.663Z" fill="#6DCE35"/>
<path d="M559.328 38.1919H546.178C545.649 38.1919 545.224 38.6187 545.224 39.1464V115.847C545.224 116.375 545.649 116.802 546.178 116.802H559.328C559.856 116.802 560.283 116.375 560.283 115.847V39.1464C560.283 38.6187 559.856 38.1919 559.328 38.1919Z" fill="#6DCE35"/>
<path d="M512.272 90.7237C513.628 90.1659 514.929 89.5114 516.103 88.7382C519.131 86.7405 521.69 84.0718 523.585 80.9804C526.242 76.6399 527.574 71.3981 527.574 65.259C527.574 56.6503 524.801 49.9862 519.258 45.2693C513.712 40.5525 505.843 38.1934 495.654 38.1934H471.413C466.675 38.1934 462.834 42.0307 462.834 46.7652V115.852C462.834 116.381 463.261 116.806 463.788 116.806H476.938C477.466 116.806 477.895 116.381 477.895 115.852V93.6719H495.652H495.671L512.364 116.416C512.545 116.662 512.83 116.806 513.134 116.806H528.899C529.674 116.806 530.127 115.932 529.68 115.299L512.268 90.725L512.272 90.7237ZM508.693 76.7109C505.695 79.1818 501.348 80.4186 495.654 80.4186H477.896V51.3321H495.654C501.348 51.3321 505.693 52.5307 508.693 54.9253C511.689 57.3226 513.189 60.9171 513.189 65.7062C513.189 70.5731 511.689 74.2413 508.693 76.7109Z" fill="#6DCE35"/>
<path d="M200.904 116.221L227.871 54.7864L254.836 116.221C254.989 116.568 255.333 116.793 255.711 116.793H268.558C269.246 116.793 269.71 116.085 269.433 115.454L238.599 45.2096C234.5 35.8713 221.241 35.8713 217.141 45.2109L186.309 115.454C186.03 116.085 186.493 116.793 187.182 116.793H200.028C200.407 116.793 200.753 116.568 200.904 116.221Z" fill="#6DCE35"/>
<path d="M586.091 116.221L613.057 54.7864L640.023 116.221C640.176 116.568 640.52 116.793 640.899 116.793H653.745C654.433 116.793 654.897 116.085 654.62 115.454L623.784 45.2096C619.686 35.8713 606.427 35.8713 602.327 45.2109L571.494 115.454C571.216 116.085 571.679 116.793 572.368 116.793H585.213C585.593 116.793 585.937 116.568 586.09 116.221H586.091Z" fill="#6DCE35"/>
<path d="M753.678 116.015L780.644 54.5804L807.61 116.015C807.762 116.362 808.106 116.587 808.486 116.587H821.333C822.021 116.587 822.485 115.879 822.208 115.248L791.372 45.0035C787.274 35.6653 774.015 35.6653 769.915 45.0049L739.082 115.248C738.804 115.879 739.266 116.587 739.956 116.587H752.801C753.181 116.587 753.525 116.362 753.678 116.015Z" fill="black"/>
<path d="M50.5972 116.221L77.5632 54.7864L104.529 116.221C104.682 116.568 105.026 116.793 105.405 116.793H118.252C118.94 116.793 119.404 116.085 119.127 115.454L88.292 45.2096C84.1934 35.8713 70.9343 35.8713 66.8344 45.2109L36.0005 115.454C35.7235 116.085 36.1861 116.793 36.8754 116.793H49.721C50.1004 116.793 50.4443 116.568 50.5972 116.221Z" fill="#6DCE35"/>
<path d="M140.598 155H14.5327C6.51841 155 0 148.486 0 140.478V14.5216C0 6.51419 6.51841 0 14.5327 0H140.598C148.612 0 155.13 6.51419 155.13 14.5216V140.478C155.13 148.486 148.612 155 140.598 155ZM14.5327 4.77143C9.15115 4.77143 4.77552 9.14468 4.77552 14.5202V140.477C4.77552 145.854 9.15252 150.226 14.5327 150.226H140.598C145.978 150.226 150.356 145.854 150.356 140.477V14.5202C150.356 9.14332 145.976 4.77143 140.598 4.77143H14.5327Z" fill="#6DCE35"/>
</svg>
