<svg xmlns="http://www.w3.org/2000/svg" viewBox="0 0 859.46 134.5"><defs><style>.cls-1{fill:#231f20;}.cls-2{fill:#73bf44;}</style></defs><g id="Layer_2" data-name="Layer 2"><g id="Layer_1-2" data-name="Layer 1"><path class="cls-1" d="M616.8,87.7c-2.3,1.6-5.6,2.4-9.7,2.3H590.5V72h16.6c4.2,0,7.4.7,9.7,2.3a7.66,7.66,0,0,1,3.5,6.6,8,8,0,0,1-3.5,6.8M590.5,44.4h16.6c3.4,0,6,.6,7.9,2a7,7,0,0,1,2.9,6,7.55,7.55,0,0,1-2.9,6.2c-1.9,1.5-4.6,2.2-7.9,2.2H590.5V44.4Zm28.8,20.9a15,15,0,0,0,11.9-15.1,16.76,16.76,0,0,0-6.3-12.5c-4.2-3.1-9.9-4.6-17.2-4.6H584.8a7.38,7.38,0,0,0-7.4,7.4V93.9a7.38,7.38,0,0,0,7.4,7.4h23.8c7.8,0,14-1.7,18.5-5a16.18,16.18,0,0,0,6.8-13.8c0-5.9-1.3-8.3-3.8-11.4a17.13,17.13,0,0,0-10.7-5.8Z"/><path class="cls-1" d="M780.7,33.1h-11a.79.79,0,0,0-.8.8V80.2L736.2,36.4a8.22,8.22,0,0,0-14.8,4.9v59.2a.79.79,0,0,0,.8.8h11.1a.79.79,0,0,0,.8-.8V54.3l32.5,43.5a8.67,8.67,0,0,0,6.8,3.5,8.24,8.24,0,0,0,8.2-8.2V33.9a.79.79,0,0,0-.8-.8"/><path class="cls-1" d="M859.3,100l-27-38.1,25-27.5a.84.84,0,0,0-.6-1.4H843.5a.71.71,0,0,0-.6.3L812.3,67V33.8a.79.79,0,0,0-.8-.8H800.1a.79.79,0,0,0-.8.8v66.6a.79.79,0,0,0,.8.8h11.4a.79.79,0,0,0,.8-.8V83.8L823,72l21.2,28.9a.91.91,0,0,0,.7.3h13.7a.83.83,0,0,0,.7-1.3"/><path class="cls-2" d="M309.2,33.1h0a9.09,9.09,0,0,0-8.3,5.4l-20,44.9L260.7,38.5a9.13,9.13,0,0,0-8.2-5.3h0a9,9,0,0,0-9,9v58.4a.79.79,0,0,0,.8.8h10.2a.79.79,0,0,0,.8-.8V52.5l19.6,45a6.46,6.46,0,0,0,4.4,3.8,6.37,6.37,0,0,0,7.4-3.7l19.6-45.1v48.1a.79.79,0,0,0,.8.8h10.3a.79.79,0,0,0,.8-.8V42.2a9,9,0,0,0-9-9"/><path class="cls-2" d="M386.3,89.9H349V72.7h32.3a.79.79,0,0,0,.8-.8V62.2a.79.79,0,0,0-.8-.8H349V44.5h36.1a.79.79,0,0,0,.8-.8V34a.79.79,0,0,0-.8-.8H343.4a7.38,7.38,0,0,0-7.4,7.4V94a7.38,7.38,0,0,0,7.4,7.4h42.9a.79.79,0,0,0,.8-.8V90.9a.79.79,0,0,0-.8-.8"/><path class="cls-2" d="M485,33.1H473.6a.79.79,0,0,0-.8.8v66.6a.79.79,0,0,0,.8.8H485a.79.79,0,0,0,.8-.8V33.9a.79.79,0,0,0-.8-.8"/><path class="cls-2" d="M441.1,66.5c-2.6,2.1-6.4,3.2-11.3,3.2H414.4V44.5h15.4c4.9,0,8.7,1,11.3,3.1S445,52.8,445,57s-1.3,7.4-3.9,9.6m3.1,12.1a25.47,25.47,0,0,0,3.3-1.7,23.06,23.06,0,0,0,6.5-6.7,25.71,25.71,0,0,0,3.5-13.6c0-5.3-2.4-13.3-7.2-17.4s-11.6-6.1-20.5-6.1h-21a7.38,7.38,0,0,0-7.4,7.4v60a.79.79,0,0,0,.8.8h11.4a.79.79,0,0,0,.8-.8V81.3h15.4L444.3,101a.91.91,0,0,0,.7.3h13.7a.83.83,0,0,0,.7-1.3L444.3,78.7Z"/><path class="cls-2" d="M174.2,100.8l23.4-53.3L221,100.8a.79.79,0,0,0,.8.5h11.1a.88.88,0,0,0,.8-1.2L207,39.1a10.16,10.16,0,0,0-18.6,0l-26.7,61a.91.91,0,0,0,.8,1.2h11.1a1,1,0,0,0,.8-.5"/><path class="cls-2" d="M508.3,100.8l23.4-53.3,23.4,53.3a.79.79,0,0,0,.8.5H567a.88.88,0,0,0,.8-1.2l-26.7-61a10.16,10.16,0,0,0-18.6,0l-26.7,61a.91.91,0,0,0,.8,1.2h11.1a1,1,0,0,0,.8-.5"/><path class="cls-1" d="M652.1,100.8l23.4-53.3,23.4,53.3a.79.79,0,0,0,.8.5h11.1a.88.88,0,0,0,.8-1.2l-26.7-61a10.16,10.16,0,0,0-18.6,0l-26.7,61a.91.91,0,0,0,.8,1.2h11.1a1,1,0,0,0,.8-.5"/><path class="cls-2" d="M43.8,100.8,67.2,47.5l23.4,53.3a.79.79,0,0,0,.8.5h11.1a.88.88,0,0,0,.8-1.2l-26.7-61a10.16,10.16,0,0,0-18.6,0l-26.7,61a.91.91,0,0,0,.8,1.2H43.2a1,1,0,0,0,.8-.5"/><path class="cls-2" d="M12.5,4.1A8.49,8.49,0,0,0,4,12.6V121.9a8.49,8.49,0,0,0,8.5,8.5H121.8a8.49,8.49,0,0,0,8.5-8.5V12.6a8.49,8.49,0,0,0-8.5-8.5ZM121.9,134.5H12.6A12.61,12.61,0,0,1,0,121.9V12.6A12.61,12.61,0,0,1,12.6,0H121.9a12.61,12.61,0,0,1,12.6,12.6V121.9a12.61,12.61,0,0,1-12.6,12.6Z"/></g></g></svg>