<svg xmlns="http://www.w3.org/2000/svg" viewBox="0 0 105.84 47.93"><defs><style>.cls-1{fill:#131032;}</style></defs><g id="Layer_2" data-name="Layer 2"><g id="Layer_1-2" data-name="Layer 1"><path class="cls-1" d="M48.4,37.5h6.4a.58.58,0,0,0,.6-.6V12.4a.58.58,0,0,0-.6-.6H48.4a.58.58,0,0,0-.6.6V36.9A.58.58,0,0,0,48.4,37.5Z"/><path class="cls-1" d="M12,24.5l12-12a.35.35,0,0,0-.2-.6H14.1c-.1,0-.2,0-.2.1L7.6,18.3V1.9a.35.35,0,0,0-.5-.3L.2,4.4c-.1.1-.2.2-.2.3V37.1a.58.58,0,0,0,.6.6H7.1a.58.58,0,0,0,.6-.6V30.8l6.7,6.7c.1.1.1.1.2.1h9.7a.35.35,0,0,0,.2-.6Z"/><path class="cls-1" d="M105.8,23.8A13,13,0,0,0,93.9,11.9,12.8,12.8,0,0,0,80.2,24.7h0V47.6a.35.35,0,0,0,.5.3l6.7-2.7a.55.55,0,0,0,.3-.5V36.4A13.22,13.22,0,0,0,93,37.5,12.74,12.74,0,0,0,105.8,23.8ZM93.1,30a5.3,5.3,0,1,1,5.3-5.3A5.34,5.34,0,0,1,93.1,30Z"/><path class="cls-1" d="M68.1,18.1h0a4,4,0,0,1,3.3,2,.48.48,0,0,0,.6.2l5.2-2.1a.52.52,0,0,0,.3-.7C76.2,14.4,72.2,12,68,12c-5.5,0-9.9,3.5-9.9,7.8a6.86,6.86,0,0,0,3.2,5.6,16.39,16.39,0,0,0,5.6,2.4h.2c2.6.6,3,1.3,3,2,0,.9-1.1,1.6-2.4,1.6a4.6,4.6,0,0,1-3.6-2.3.57.57,0,0,0-.7-.2L58.3,31a.57.57,0,0,0-.2.7c1.5,4,5.4,5.8,9.6,5.8,5.5,0,9.9-3.5,9.9-7.8A6.6,6.6,0,0,0,77,27a7.6,7.6,0,0,0-3.9-3.7c-1.4-.7-5.4-1.8-6.8-2.6a1.27,1.27,0,0,1-.7-1.1C65.7,18.8,66.7,18.1,68.1,18.1Z"/><circle class="cls-1" cx="51.6" cy="4.7" r="4.7"/><path class="cls-1" d="M44.9,11.9a.35.35,0,0,1,.3.5l-2.8,6.9c-.1.1-.2.2-.3.2h-2a5.34,5.34,0,0,0-5.3,5.3V37.1a.47.47,0,0,1-.5.5H27.9a.58.58,0,0,1-.6-.6V24.7A12.76,12.76,0,0,1,40.1,11.9Z"/></g></g></svg>