<?xml version="1.0" encoding="UTF-8" standalone="no"?>
<!-- Created with Inkscape (http://www.inkscape.org/) -->

<svg
   version="1.1"
   id="svg2"
   width="392"
   height="201.33333"
   viewBox="0 0 392 201.33333"
   sodipodi:docname="customcolor_logo_transparent_background.eps"
   xmlns:inkscape="http://www.inkscape.org/namespaces/inkscape"
   xmlns:sodipodi="http://sodipodi.sourceforge.net/DTD/sodipodi-0.dtd"
   xmlns="http://www.w3.org/2000/svg"
   xmlns:svg="http://www.w3.org/2000/svg">
  <defs
     id="defs6" />
  <sodipodi:namedview
     id="namedview4"
     pagecolor="#ffffff"
     bordercolor="#000000"
     borderopacity="0.25"
     inkscape:showpageshadow="2"
     inkscape:pageopacity="0.0"
     inkscape:pagecheckerboard="0"
     inkscape:deskcolor="#d1d1d1" />
  <g
     id="g8"
     inkscape:groupmode="layer"
     inkscape:label="ink_ext_XXXXXX"
     transform="matrix(1.3333333,0,0,-1.3333333,0,201.33333)">
    <g
       id="g10"
       transform="scale(0.1)">
      <path
         d="M 459.301,10.7383 120.43,362.539 V 10.7383 H 0 V 613.672 H 37.8516 L 370.699,276.52 V 613.672 H 491.09 V 10.7383 Z"
         style="fill:#3d3935;fill-opacity:1;fill-rule:nonzero;stroke:none"
         id="path12" />
      <path
         d="m 906.52,624.84 c -171.989,0 -312.18,-140.192 -312.18,-312.18 0,-172.039 140.191,-312.230312 312.18,-312.230312 172.03,0 312.23,140.191312 312.23,312.230312 0,171.988 -140.2,312.18 -312.23,312.18 z m 0,-123.82 c 104.1,0 188.36,-84.301 188.36,-188.36 0,-104.109 -84.26,-188.398 -188.36,-188.398 -104.059,0 -188.36,84.289 -188.36,188.398 0,104.059 84.301,188.36 188.36,188.36 z"
         style="fill:#3d3935;fill-opacity:1;fill-rule:nonzero;stroke:none"
         id="path14" />
      <path
         d="M 1442.38,613.672 H 1321.95 V 11.6016 h 344.93 V 131.172 h -224.5 z"
         style="fill:#3d3935;fill-opacity:1;fill-rule:nonzero;stroke:none"
         id="path16" />
      <path
         d="M 2042.73,613.672 1735.66,10.7383 H 1870.7 L 2057.34,377.148 2229.38,10.7383 h 133.28 L 2077.97,613.672 Z"
         style="fill:#3d3935;fill-opacity:1;fill-rule:nonzero;stroke:none"
         id="path18" />
      <path
         d="M 2907.97,10.7383 2569.1,362.539 V 10.7383 H 2448.67 V 613.672 h 37.85 L 2819.38,276.52 V 613.672 H 2939.8 V 10.7383 Z"
         style="fill:#3d3935;fill-opacity:1;fill-rule:nonzero;stroke:none"
         id="path20" />
      <path
         d="m 416.602,1348.05 h -0.352 c -59.922,0 -108.75,-48.64 -108.98,-108.56 l -8.559,-306.76 c -0.039,-0.539 -0.039,-1.441 -0.039,-1.992 0,-60.148 48.828,-108.976 108.988,-108.976 21.75,0 53,11.289 69.719,25.187 130.199,108.321 236.84,227.231 335.59,312.661 98.75,85.39 181.211,132.38 270.001,132.42 34.3,0 46.41,-6.29 59.57,-16.21 13.12,-9.88 28.16,-28.67 44.76,-59.3 33.17,-61.25 63.56,-164.72 146.18,-257.11 82.57,-92.34 225.35,-153.32 419.92,-133.469 194.53,19.84 451.01,106.399 826.09,294.369 34.03,16.41 61.64,60.39 61.64,98.17 0,60.15 -48.83,109.02 -109.02,109.02 -14.69,0 -37.23,-5.51 -50.27,-12.3 -362.89,-181.88 -602.54,-257.31 -750.59,-272.39 -148.05,-15.11 -194.22,15.98 -235.31,61.92 -41.06,45.93 -68.95,126.91 -116.96,215.58 -24.02,44.34 -55.27,91.88 -105.19,129.53 -49.96,37.66 -117.62,60.2 -190.9,60.16 C 917.73,1509.96 784.691,1423.36 670.352,1324.45 619.18,1280.2 570.16,1232.42 521.289,1184.73 l 3.91,50.82 c 0.031,0.97 0.071,2.54 0.071,3.51 0,59.96 -48.668,108.79 -108.668,108.99 z"
         style="fill:#3d3935;fill-opacity:1;fill-rule:nonzero;stroke:none"
         id="path22" />
    </g>
  </g>
</svg>
