<svg xmlns="http://www.w3.org/2000/svg" viewBox="0 0 528.4 81.21"><defs><style>.cls-1{fill:#62ab46;}.cls-2{fill:#df4b8d;}.cls-3{fill:#6183da;}.cls-4{fill:#f8cd46;}.cls-5{fill:#5cc3e2;}.cls-6{fill:#ff7e27;}.cls-7{fill:#fff;}</style></defs><g id="Layer_2" data-name="Layer 2"><g id="Layer_1-2" data-name="Layer 1"><rect class="cls-1" x="1.5" y="1.5" width="78.21" height="78.21" rx="3.06"/><rect class="cls-2" x="90.95" y="1.5" width="78.21" height="78.21" rx="3.06"/><rect class="cls-3" x="180.39" y="1.5" width="78.21" height="78.21" rx="3.06"/><rect class="cls-4" x="269.82" y="1.5" width="78.21" height="78.21" rx="3.06"/><rect class="cls-5" x="359.25" y="1.5" width="78.21" height="78.21" rx="3.06"/><rect class="cls-6" x="448.69" y="1.5" width="78.21" height="78.21" rx="3.06"/><path class="cls-7" d="M325.87,34.66c0,12.06-7.66,14-17.69,14h-5.24V60.45h-9V20.75h14.25C318.21,20.75,325.87,22.67,325.87,34.66Zm-17.13,6.08c5.35,0,8.11-.56,8.11-6.08s-2.76-6-8.11-6h-5.8V40.75h5.8Z"/><path class="cls-7" d="M387.86,60.45c-3.05,0-4.76-1.61-4.76-4.65v-35H392V52.69l19-.55V59.9Z"/><path class="cls-7" d="M133.54,20.82h-9.1V60.45h9.1Z"/><path class="cls-7" d="M497.37,20.82l-7.68,15-1.91,3.4-2.23-4h0l-7.34-14.38H468.6L483.26,47.7V60.45h9V47.7L507,20.82Z"/><path class="cls-7" d="M227.56,20.78H239.3V60.39h-7.68V45.54l.95-18c-2.84,8.63-5.68,15.94-8.52,24.57h-8.39c-2.88-8.65-5.75-16-8.62-24.63L208,45.55V60.4h-7.61V20.79h11.57l7.78,22.83Q223.64,32.19,227.56,20.78Z"/><path class="cls-7" d="M22,47.72h8c.31,3.49,3.18,5.7,9.29,5.75,5.75,0,8.89-1.95,8.89-4.87,0-2.57-2.08-3.85-6.51-4.6l-4.6-.8c-7-1.23-14-3.09-14-11.19,0-7,5.93-11.19,16.32-11.19,9.69,0,16.42,3.41,16.5,12.61H48c-.58-3.36-3.19-5.62-8.76-5.62-5,0-7.7,1.73-7.7,4.6,0,2.26,1.81,3.67,5.62,4.38l4,.71C48.22,38.78,56.93,40,56.93,48.87c0,7.38-6,11.58-17.64,11.58C28,60.45,22,56.43,22,47.72Z"/><path class="cls-7" d="M75.82,2.39a3,3,0,0,1,3,3V75.82a3,3,0,0,1-3,3H5.39a3,3,0,0,1-3-3V5.39a3,3,0,0,1,3-3H75.82m0-2.39H5.39A5.4,5.4,0,0,0,0,5.39V75.82a5.4,5.4,0,0,0,5.39,5.39H75.82a5.4,5.4,0,0,0,5.39-5.39V5.39A5.4,5.4,0,0,0,75.82,0Z"/><path class="cls-7" d="M165.27,2.39a3,3,0,0,1,3,3V75.82a3,3,0,0,1-3,3H94.84a3,3,0,0,1-3-3V5.39a3,3,0,0,1,3-3h70.43m0-2.39H94.84a5.4,5.4,0,0,0-5.39,5.39V75.82a5.4,5.4,0,0,0,5.39,5.39h70.43a5.4,5.4,0,0,0,5.39-5.39V5.39A5.4,5.4,0,0,0,165.27,0Z"/><path class="cls-7" d="M254.71,2.39a3,3,0,0,1,3,3V75.82a3,3,0,0,1-3,3H184.28a3,3,0,0,1-3-3V5.39a3,3,0,0,1,3-3h70.43m0-2.39H184.28a5.4,5.4,0,0,0-5.39,5.39V75.82a5.4,5.4,0,0,0,5.39,5.39h70.43a5.4,5.4,0,0,0,5.39-5.39V5.39A5.4,5.4,0,0,0,254.71,0Z"/><path class="cls-7" d="M344.14,2.39a3,3,0,0,1,3,3V75.82a3,3,0,0,1-3,3H273.71a3,3,0,0,1-3-3V5.39a3,3,0,0,1,3-3h70.43m0-2.39H273.71a5.4,5.4,0,0,0-5.39,5.39V75.82a5.4,5.4,0,0,0,5.39,5.39h70.43a5.4,5.4,0,0,0,5.39-5.39V5.39A5.4,5.4,0,0,0,344.14,0Z"/><path class="cls-7" d="M433.57,2.39a3,3,0,0,1,3,3V75.82a3,3,0,0,1-3,3H363.14a3,3,0,0,1-3-3V5.39a3,3,0,0,1,3-3h70.43m0-2.39H363.14a5.4,5.4,0,0,0-5.39,5.39V75.82a5.4,5.4,0,0,0,5.39,5.39h70.43A5.4,5.4,0,0,0,439,75.82V5.39A5.4,5.4,0,0,0,433.57,0Z"/><path class="cls-7" d="M523,2.39a3,3,0,0,1,3,3V75.82a3,3,0,0,1-3,3H452.58a3,3,0,0,1-3-3V5.39a3,3,0,0,1,3-3H523M523,0H452.58a5.4,5.4,0,0,0-5.39,5.39V75.82a5.4,5.4,0,0,0,5.39,5.39H523a5.4,5.4,0,0,0,5.39-5.39V5.39A5.4,5.4,0,0,0,523,0Z"/></g></g></svg>