<svg id="Layer_1" data-name="Layer 1" xmlns="http://www.w3.org/2000/svg" viewBox="0 0 500.16 204"><defs><style>.cls-1{fill:#007dc5;}.cls-2{fill:#58595b;}</style></defs><path class="cls-1" d="M356.83,113.71H364l-8.32-12.64h0l-3.1-4.71.47-.21a25.88,25.88,0,0,0,3-1.51,10.93,10.93,0,0,0,2.68-2.51,10.43,10.43,0,0,0,1.66-3.19,11.78,11.78,0,0,0,.58-3.75,12,12,0,0,0-.84-4.57,8.76,8.76,0,0,0-2.63-3.52,13.1,13.1,0,0,0-4.67-2.33,25,25,0,0,0-6.94-.84H334v39.78h6.63V97.83h5.73ZM340.62,93.27V78.91h5.21c2.86,0,5,.6,6.44,1.76a6.23,6.23,0,0,1,2.18,5.09,8.24,8.24,0,0,1-.53,3,6.57,6.57,0,0,1-1.63,2.4,7.51,7.51,0,0,1-2.74,1.56,11.87,11.87,0,0,1-3.82.56Z"/><path class="cls-1" d="M399.18,75.27A21.62,21.62,0,0,0,391,73.85a22.91,22.91,0,0,0-8.38,1.46,18.09,18.09,0,0,0-6.32,4.1,18.33,18.33,0,0,0-4,6.31,22.52,22.52,0,0,0-1.42,8.1,21.65,21.65,0,0,0,1.46,8,18.89,18.89,0,0,0,4.05,6.32,18.55,18.55,0,0,0,6.15,4.13,20,20,0,0,0,7.79,1.49,37,37,0,0,0,4.49-.26,25.51,25.51,0,0,0,3.89-.77,19.57,19.57,0,0,0,3.39-1.32,20.88,20.88,0,0,0,2.9-1.75V94.2h-12.3v4.72h6.48v8l-.24.12a18.32,18.32,0,0,1-3.6,1.28,18.75,18.75,0,0,1-4.43.47,14,14,0,0,1-5.36-1,12,12,0,0,1-4.25-2.94,13.35,13.35,0,0,1-2.77-4.69,18.83,18.83,0,0,1-1-6.29,18.24,18.24,0,0,1,.92-5.94,13.51,13.51,0,0,1,2.66-4.59,11.47,11.47,0,0,1,4.19-3,13.86,13.86,0,0,1,5.45-1,18.71,18.71,0,0,1,3.26.25,17.86,17.86,0,0,1,2.55.65,12.17,12.17,0,0,1,2.1,1,36.5,36.5,0,0,1,3.23,2.19l2.93-4.64A18.84,18.84,0,0,0,399.18,75.27Z"/><polygon class="cls-1" points="321.3 79.08 321.3 73.93 296.76 73.93 296.76 113.71 321.3 113.71 321.3 108.54 303.45 108.54 303.45 96.17 317.51 96.17 317.51 91.22 303.45 91.22 303.45 79.08 321.3 79.08"/><path class="cls-1" d="M175.79,112.39a18.76,18.76,0,0,0,3.44,1,17.68,17.68,0,0,0,3.63.37,15.38,15.38,0,0,0,5.67-1,12.11,12.11,0,0,0,4.16-2.67,11.34,11.34,0,0,0,2.59-4,13.71,13.71,0,0,0,.88-4.91,10,10,0,0,0-.74-4,8.6,8.6,0,0,0-2-2.8,11.71,11.71,0,0,0-2.82-1.92,33,33,0,0,0-3.31-1.36c-1.13-.4-2.25-.76-3.34-1.11a20,20,0,0,1-3-1.22,6.93,6.93,0,0,1-2.19-1.7,4,4,0,0,1-.89-2.63,5.67,5.67,0,0,1,.42-2.2,4.81,4.81,0,0,1,1.28-1.75,6.16,6.16,0,0,1,2.06-1.11,8.71,8.71,0,0,1,2.8-.4,10.44,10.44,0,0,1,3.06.45,19.26,19.26,0,0,1,5.53,2.68l2.28-4.45a14.15,14.15,0,0,0-4.65-2.78,17.89,17.89,0,0,0-6.3-1.08,14.33,14.33,0,0,0-5.34.93,12,12,0,0,0-3.92,2.48,10.45,10.45,0,0,0-2.42,3.53,10.6,10.6,0,0,0-.83,4.09,11.52,11.52,0,0,0,.75,4.43,8.7,8.7,0,0,0,2,3,10.68,10.68,0,0,0,2.81,1.94,29.56,29.56,0,0,0,3.29,1.3c1.13.37,2.23.71,3.32,1a16,16,0,0,1,3,1.18,7,7,0,0,1,2.2,1.78,4.53,4.53,0,0,1,.87,2.84,5.88,5.88,0,0,1-1.87,4.65,7.63,7.63,0,0,1-5.15,1.61,12.56,12.56,0,0,1-3.63-.59,18.58,18.58,0,0,1-6.28-3.2L170.48,109a16.27,16.27,0,0,0,2.24,1.81A18.27,18.27,0,0,0,175.79,112.39Z"/><polygon class="cls-1" points="282.06 113.71 282.06 73.93 276.32 73.93 276.52 103.23 253.56 73.93 248.96 73.93 248.96 113.71 254.7 113.71 254.7 84.53 277.44 113.71 282.06 113.71"/><polygon class="cls-1" points="234.87 73.93 223.14 93.36 211.33 73.93 205.21 73.93 220.06 98.31 210.61 113.71 217.1 113.71 241.35 73.93 234.87 73.93"/><polygon class="cls-1" points="442.21 73.93 430.49 93.36 418.68 73.93 412.55 73.93 427.4 98.31 417.96 113.71 424.45 113.71 448.69 73.93 442.21 73.93"/><path class="cls-2" d="M172.17,133.18V122.79h1.29v10.39Z"/><path class="cls-2" d="M187.26,133.18l-6.06-8.28v8.28h-1.29V122.79h1.32l6,8.11v-8.11h1.29v10.39Z"/><path class="cls-2" d="M197.34,133.18V124h-3.29v-1.16h7.88V124h-3.3v9.23Z"/><path class="cls-2" d="M207.47,133.18V122.79h6.81V124h-5.52v3.34h5.41v1.15h-5.41V132h5.52v1.15Z"/><path class="cls-2" d="M226.28,133.18l-2.64-4.13h-2.07v4.13h-1.29V122.79h4.17a3,3,0,0,1,3.25,3.13,2.87,2.87,0,0,1-2.69,3l2.8,4.24Zm.08-7.26a1.93,1.93,0,0,0-2.07-2h-2.72v4h2.72A2,2,0,0,0,226.36,125.92Z"/><path class="cls-2" d="M241,133.18,235,124.9v8.28h-1.29V122.79H235l6,8.11v-8.11h1.29v10.39Z"/><path class="cls-2" d="M256.13,133.18l-.92-2.31H250l-.91,2.31h-1.48l4.17-10.39h1.6l4.19,10.39Zm-3.5-9.05-2.21,5.59h4.4Z"/><path class="cls-2" d="M264.26,133.18V124H261v-1.16h7.87V124h-3.3v9.23Z"/><path class="cls-2" d="M274.39,133.18V122.79h1.3v10.39Z"/><path class="cls-2" d="M281.67,128a5.15,5.15,0,1,1,5.15,5.37A5.06,5.06,0,0,1,281.67,128Zm9,0c0-2.42-1.49-4.21-3.81-4.21S283,125.57,283,128s1.48,4.22,3.81,4.22S290.63,130.41,290.63,128Z"/><path class="cls-2" d="M305.32,133.18l-6.06-8.28v8.28H298V122.79h1.32l6,8.11v-8.11h1.29v10.39Z"/><path class="cls-2" d="M320.41,133.18l-.91-2.31h-5.17l-.92,2.31h-1.48l4.17-10.39h1.61l4.18,10.39Zm-3.5-9.05-2.21,5.59h4.41Z"/><path class="cls-2" d="M327.26,133.18V122.79h1.29V132h4.83v1.15Z"/><path class="cls-2" d="M346.38,131.71l.76-1a4.36,4.36,0,0,0,3.27,1.48c1.85,0,2.44-1,2.44-1.79,0-2.68-6.15-1.2-6.15-4.9,0-1.71,1.53-2.88,3.57-2.88a4.87,4.87,0,0,1,3.69,1.45l-.78,1a4,4,0,0,0-3-1.25c-1.24,0-2.13.67-2.13,1.65,0,2.34,6.15,1,6.15,4.87,0,1.51-1,3.05-3.83,3.05A5.11,5.11,0,0,1,346.38,131.71Z"/><path class="cls-2" d="M362.94,133.18v-4.39l-4.09-6h1.51l3.22,4.83,3.22-4.83h1.51l-4.08,6v4.39Z"/><path class="cls-2" d="M372.66,131.71l.77-1a4.35,4.35,0,0,0,3.27,1.48c1.85,0,2.44-1,2.44-1.79,0-2.68-6.15-1.2-6.15-4.9,0-1.71,1.53-2.88,3.56-2.88a4.87,4.87,0,0,1,3.69,1.45l-.77,1a4,4,0,0,0-3-1.25c-1.24,0-2.13.67-2.13,1.65,0,2.34,6.15,1,6.15,4.87,0,1.51-1,3.05-3.83,3.05A5.14,5.14,0,0,1,372.66,131.71Z"/><path class="cls-2" d="M388.94,133.18V124h-3.29v-1.16h7.88V124h-3.3v9.23Z"/><path class="cls-2" d="M399.07,133.18V122.79h6.8V124h-5.51v3.34h5.4v1.15h-5.4V132h5.51v1.15Z"/><path class="cls-2" d="M420.75,133.18v-8.55l-3.54,8.55h-.53l-3.51-8.55v8.55h-1.3V122.79h1.86l3.22,7.82,3.23-7.82H422v10.39Z"/><path class="cls-2" d="M427.8,131.71l.76-1a4.38,4.38,0,0,0,3.27,1.48c1.85,0,2.44-1,2.44-1.79,0-2.68-6.14-1.2-6.14-4.9,0-1.71,1.52-2.88,3.56-2.88a4.87,4.87,0,0,1,3.69,1.45l-.78,1a4,4,0,0,0-3-1.25c-1.25,0-2.14.67-2.14,1.65,0,2.34,6.15,1,6.15,4.87,0,1.51-1,3.05-3.83,3.05A5.11,5.11,0,0,1,427.8,131.71Z"/><path class="cls-1" d="M145.09,73.36c-34.45.4-36,15.19-37.47,30.12v0C105.35,126,103,148.69,52.33,150h-1.8a4,4,0,0,0,4,3.94h88.28a4.06,4.06,0,0,0,4.06-4.06V73.36Z"/><path class="cls-1" d="M52.33,133.05c34.17-1.1,35.73-16.21,37.24-31.2h0c2.28-22.62,4.58-45,55.52-45.47h1.81a4.06,4.06,0,0,0-4.05-3.94H54.57a4.05,4.05,0,0,0-4,4.06v76.55Z"/></svg>