<svg width="687" height="108" viewBox="0 0 687 108" fill="none" xmlns="http://www.w3.org/2000/svg">
<mask id="path-1-outside-1_2016_565" maskUnits="userSpaceOnUse" x="0" y="0" width="687" height="108" fill="black">
<rect fill="white" width="687" height="108"/>
<path d="M40.6325 70H28.3925L17.8325 36.64H27.6725L34.7285 60.544L41.3525 36.64H51.1925L40.6325 70ZM63.1351 70H53.7271V36.64H63.1351V70ZM85.2759 70H69.1959V36.64H84.2679C91.7559 36.64 95.8359 39.76 95.8359 45.184C95.8359 48.88 93.2919 51.616 89.8839 52.528C94.6359 53.632 97.0359 56.272 97.0359 60.448C97.0359 66.592 92.8119 70 85.2759 70ZM78.6039 43.216V49.696H82.6839C85.3239 49.696 86.6199 48.592 86.6199 46.336C86.6199 44.272 85.3239 43.216 82.6839 43.216H78.6039ZM78.6039 56.56V63.424H82.9239C85.8519 63.424 87.3399 62.272 87.3399 60.016C87.3399 57.712 85.8039 56.56 82.7799 56.56H78.6039ZM127.071 70H101.727V36.64H126.687V44.752H111.135V49.168H123.999V57.28H111.135V61.888H127.071V70ZM157.722 70.672C152.778 70.672 148.794 69.088 145.674 65.92C142.554 62.752 141.018 58.576 141.018 53.344C141.018 48.304 142.65 44.176 145.866 40.864C149.082 37.6 153.21 35.968 158.154 35.968C166.41 35.968 172.17 40.912 174.042 49.552L164.634 51.856C163.53 47.056 161.178 44.656 157.674 44.656C153.69 44.656 150.858 48.16 150.858 53.344C150.858 58.528 153.738 61.984 157.962 61.984C161.274 61.984 163.434 60.256 164.394 56.752L174.234 58.192C172.074 66.496 166.554 70.672 157.722 70.672ZM206.643 65.776C203.331 69.04 199.155 70.672 194.115 70.672C189.075 70.672 184.899 69.04 181.587 65.776C178.275 62.512 176.643 58.384 176.643 53.344C176.643 48.304 178.275 44.176 181.587 40.864C184.899 37.6 189.075 35.968 194.115 35.968C199.155 35.968 203.331 37.6 206.643 40.864C209.955 44.176 211.587 48.304 211.587 53.344C211.587 58.384 209.955 62.512 206.643 65.776ZM188.595 59.68C189.987 61.216 191.859 61.984 194.115 61.984C196.371 61.984 198.243 61.216 199.635 59.68C201.027 58.144 201.747 56.032 201.747 53.344C201.747 50.656 201.027 48.544 199.635 46.96C198.243 45.424 196.371 44.656 194.115 44.656C191.859 44.656 189.987 45.424 188.595 46.96C187.203 48.544 186.483 50.656 186.483 53.344C186.483 56.032 187.203 58.144 188.595 59.68ZM230.071 70H216.055V36.64H230.071C236.167 36.64 241.495 39.04 244.903 44.224C246.583 46.816 247.447 49.84 247.447 53.344C247.447 64.144 238.903 70 230.071 70ZM225.463 45.328V61.312H229.303C233.959 61.312 237.607 58.816 237.607 53.296C237.607 47.872 233.959 45.328 229.303 45.328H225.463ZM277.259 70H251.915V36.64H276.875V44.752H261.323V49.168H274.187V57.28H261.323V61.888H277.259V70ZM310.406 70H300.998V57.856L289.286 36.64H299.894L305.846 48.4L311.51 36.64H322.118L310.406 57.856V70ZM351.159 65.776C347.847 69.04 343.671 70.672 338.631 70.672C333.591 70.672 329.415 69.04 326.103 65.776C322.791 62.512 321.159 58.384 321.159 53.344C321.159 48.304 322.791 44.176 326.103 40.864C329.415 37.6 333.591 35.968 338.631 35.968C343.671 35.968 347.847 37.6 351.159 40.864C354.471 44.176 356.103 48.304 356.103 53.344C356.103 58.384 354.471 62.512 351.159 65.776ZM333.111 59.68C334.503 61.216 336.375 61.984 338.631 61.984C340.887 61.984 342.759 61.216 344.151 59.68C345.543 58.144 346.263 56.032 346.263 53.344C346.263 50.656 345.543 48.544 344.151 46.96C342.759 45.424 340.887 44.656 338.631 44.656C336.375 44.656 334.503 45.424 333.111 46.96C331.719 48.544 330.999 50.656 330.999 53.344C330.999 56.032 331.719 58.144 333.111 59.68ZM386.587 66.928C383.947 69.424 380.203 70.672 375.307 70.672C370.411 70.672 366.667 69.424 364.027 66.928C361.387 64.432 360.091 60.832 360.091 56.176V36.64H369.499V54.736C369.499 59.392 371.515 61.984 375.307 61.984C379.099 61.984 381.115 59.392 381.115 54.736V36.64H390.523V56.176C390.523 60.832 389.227 64.432 386.587 66.928ZM423.702 61.264C424.134 61.264 424.566 61.216 425.094 61.168V69.856C424.278 70.096 423.318 70.24 422.31 70.24C419.046 70.24 416.31 69.568 414.15 68.224C411.942 66.88 410.07 64.24 408.582 60.352L408.198 59.392H405.51V70H396.102V36.64H411.99C415.686 36.64 418.758 37.648 421.206 39.712C423.606 41.776 424.806 44.608 424.806 48.16C424.806 53.008 422.262 56.224 417.846 57.568C420.102 60.88 421.59 61.312 423.702 61.264ZM410.502 44.704H405.51V51.376H410.646C413.526 51.376 414.966 50.272 414.966 48.016C414.966 45.808 413.478 44.704 410.502 44.704ZM454.261 70.672C449.509 70.672 445.813 69.712 443.125 67.744C440.437 65.824 439.093 63.328 439.093 60.256C439.093 58.816 439.285 57.52 439.717 56.368L448.837 58.192C448.597 58.768 448.453 59.344 448.453 59.872C448.453 61.936 450.757 63.184 454.357 63.184C457.573 63.184 459.397 62.032 459.397 60.16C459.397 58.672 458.005 57.76 456.229 57.52L451.813 56.896C443.509 55.696 439.717 52.336 439.717 46.528C439.717 43.6 440.917 41.104 443.365 39.04C445.813 36.976 449.173 35.968 453.493 35.968C462.661 35.968 467.509 39.712 468.037 47.248L458.773 48.352C458.389 45.232 456.949 43.456 453.157 43.456C450.853 43.456 449.077 44.512 449.077 46C449.077 47.488 450.421 48.4 453.109 48.784L457.573 49.456C465.397 50.608 468.757 53.776 468.757 59.2C468.757 62.56 467.461 65.296 464.917 67.456C462.325 69.616 458.773 70.672 454.261 70.672ZM489.118 70H479.71V45.328H470.398V36.64H498.43V45.328H489.118V70ZM531.128 70H521.288L519.128 63.088H508.424L506.36 70H496.52L507.704 36.64H519.944L531.128 70ZM513.608 45.472L510.536 55.936H516.872L513.608 45.472ZM561.28 61.264C561.712 61.264 562.144 61.216 562.672 61.168V69.856C561.856 70.096 560.896 70.24 559.888 70.24C556.624 70.24 553.888 69.568 551.728 68.224C549.52 66.88 547.648 64.24 546.16 60.352L545.776 59.392H543.088V70H533.68V36.64H549.568C553.264 36.64 556.336 37.648 558.784 39.712C561.184 41.776 562.384 44.608 562.384 48.16C562.384 53.008 559.84 56.224 555.424 57.568C557.68 60.88 559.168 61.312 561.28 61.264ZM548.08 44.704H543.088V51.376H548.224C551.104 51.376 552.544 50.272 552.544 48.016C552.544 45.808 551.056 44.704 548.08 44.704ZM583.055 70H573.647V45.328H564.335V36.64H592.367V45.328H583.055V70ZM622.368 66.928C619.728 69.424 615.984 70.672 611.088 70.672C606.192 70.672 602.448 69.424 599.808 66.928C597.168 64.432 595.872 60.832 595.872 56.176V36.64H605.28V54.736C605.28 59.392 607.296 61.984 611.088 61.984C614.88 61.984 616.896 59.392 616.896 54.736V36.64H626.304V56.176C626.304 60.832 625.008 64.432 622.368 66.928ZM641.291 70H631.883V36.64H647.099C650.795 36.64 653.819 37.696 656.267 39.76C658.667 41.872 659.867 44.704 659.867 48.256C659.867 51.808 658.667 54.64 656.267 56.704C653.819 58.816 650.795 59.872 647.099 59.872H641.291V70ZM641.291 44.704V51.808H645.707C648.587 51.808 650.027 50.608 650.027 48.256C650.027 45.904 648.539 44.704 645.563 44.704H641.291ZM672.588 58H663.948L663.372 36.64H673.164L672.588 58ZM668.268 70.672C665.244 70.672 662.748 68.32 662.748 65.248C662.748 62.176 665.244 59.824 668.268 59.824C671.388 59.824 673.788 62.128 673.788 65.248C673.788 68.368 671.388 70.672 668.268 70.672Z"/>
</mask>
<path d="M40.6325 70H28.3925L17.8325 36.64H27.6725L34.7285 60.544L41.3525 36.64H51.1925L40.6325 70ZM63.1351 70H53.7271V36.64H63.1351V70ZM85.2759 70H69.1959V36.64H84.2679C91.7559 36.64 95.8359 39.76 95.8359 45.184C95.8359 48.88 93.2919 51.616 89.8839 52.528C94.6359 53.632 97.0359 56.272 97.0359 60.448C97.0359 66.592 92.8119 70 85.2759 70ZM78.6039 43.216V49.696H82.6839C85.3239 49.696 86.6199 48.592 86.6199 46.336C86.6199 44.272 85.3239 43.216 82.6839 43.216H78.6039ZM78.6039 56.56V63.424H82.9239C85.8519 63.424 87.3399 62.272 87.3399 60.016C87.3399 57.712 85.8039 56.56 82.7799 56.56H78.6039ZM127.071 70H101.727V36.64H126.687V44.752H111.135V49.168H123.999V57.28H111.135V61.888H127.071V70ZM157.722 70.672C152.778 70.672 148.794 69.088 145.674 65.92C142.554 62.752 141.018 58.576 141.018 53.344C141.018 48.304 142.65 44.176 145.866 40.864C149.082 37.6 153.21 35.968 158.154 35.968C166.41 35.968 172.17 40.912 174.042 49.552L164.634 51.856C163.53 47.056 161.178 44.656 157.674 44.656C153.69 44.656 150.858 48.16 150.858 53.344C150.858 58.528 153.738 61.984 157.962 61.984C161.274 61.984 163.434 60.256 164.394 56.752L174.234 58.192C172.074 66.496 166.554 70.672 157.722 70.672ZM206.643 65.776C203.331 69.04 199.155 70.672 194.115 70.672C189.075 70.672 184.899 69.04 181.587 65.776C178.275 62.512 176.643 58.384 176.643 53.344C176.643 48.304 178.275 44.176 181.587 40.864C184.899 37.6 189.075 35.968 194.115 35.968C199.155 35.968 203.331 37.6 206.643 40.864C209.955 44.176 211.587 48.304 211.587 53.344C211.587 58.384 209.955 62.512 206.643 65.776ZM188.595 59.68C189.987 61.216 191.859 61.984 194.115 61.984C196.371 61.984 198.243 61.216 199.635 59.68C201.027 58.144 201.747 56.032 201.747 53.344C201.747 50.656 201.027 48.544 199.635 46.96C198.243 45.424 196.371 44.656 194.115 44.656C191.859 44.656 189.987 45.424 188.595 46.96C187.203 48.544 186.483 50.656 186.483 53.344C186.483 56.032 187.203 58.144 188.595 59.68ZM230.071 70H216.055V36.64H230.071C236.167 36.64 241.495 39.04 244.903 44.224C246.583 46.816 247.447 49.84 247.447 53.344C247.447 64.144 238.903 70 230.071 70ZM225.463 45.328V61.312H229.303C233.959 61.312 237.607 58.816 237.607 53.296C237.607 47.872 233.959 45.328 229.303 45.328H225.463ZM277.259 70H251.915V36.64H276.875V44.752H261.323V49.168H274.187V57.28H261.323V61.888H277.259V70ZM310.406 70H300.998V57.856L289.286 36.64H299.894L305.846 48.4L311.51 36.64H322.118L310.406 57.856V70ZM351.159 65.776C347.847 69.04 343.671 70.672 338.631 70.672C333.591 70.672 329.415 69.04 326.103 65.776C322.791 62.512 321.159 58.384 321.159 53.344C321.159 48.304 322.791 44.176 326.103 40.864C329.415 37.6 333.591 35.968 338.631 35.968C343.671 35.968 347.847 37.6 351.159 40.864C354.471 44.176 356.103 48.304 356.103 53.344C356.103 58.384 354.471 62.512 351.159 65.776ZM333.111 59.68C334.503 61.216 336.375 61.984 338.631 61.984C340.887 61.984 342.759 61.216 344.151 59.68C345.543 58.144 346.263 56.032 346.263 53.344C346.263 50.656 345.543 48.544 344.151 46.96C342.759 45.424 340.887 44.656 338.631 44.656C336.375 44.656 334.503 45.424 333.111 46.96C331.719 48.544 330.999 50.656 330.999 53.344C330.999 56.032 331.719 58.144 333.111 59.68ZM386.587 66.928C383.947 69.424 380.203 70.672 375.307 70.672C370.411 70.672 366.667 69.424 364.027 66.928C361.387 64.432 360.091 60.832 360.091 56.176V36.64H369.499V54.736C369.499 59.392 371.515 61.984 375.307 61.984C379.099 61.984 381.115 59.392 381.115 54.736V36.64H390.523V56.176C390.523 60.832 389.227 64.432 386.587 66.928ZM423.702 61.264C424.134 61.264 424.566 61.216 425.094 61.168V69.856C424.278 70.096 423.318 70.24 422.31 70.24C419.046 70.24 416.31 69.568 414.15 68.224C411.942 66.88 410.07 64.24 408.582 60.352L408.198 59.392H405.51V70H396.102V36.64H411.99C415.686 36.64 418.758 37.648 421.206 39.712C423.606 41.776 424.806 44.608 424.806 48.16C424.806 53.008 422.262 56.224 417.846 57.568C420.102 60.88 421.59 61.312 423.702 61.264ZM410.502 44.704H405.51V51.376H410.646C413.526 51.376 414.966 50.272 414.966 48.016C414.966 45.808 413.478 44.704 410.502 44.704ZM454.261 70.672C449.509 70.672 445.813 69.712 443.125 67.744C440.437 65.824 439.093 63.328 439.093 60.256C439.093 58.816 439.285 57.52 439.717 56.368L448.837 58.192C448.597 58.768 448.453 59.344 448.453 59.872C448.453 61.936 450.757 63.184 454.357 63.184C457.573 63.184 459.397 62.032 459.397 60.16C459.397 58.672 458.005 57.76 456.229 57.52L451.813 56.896C443.509 55.696 439.717 52.336 439.717 46.528C439.717 43.6 440.917 41.104 443.365 39.04C445.813 36.976 449.173 35.968 453.493 35.968C462.661 35.968 467.509 39.712 468.037 47.248L458.773 48.352C458.389 45.232 456.949 43.456 453.157 43.456C450.853 43.456 449.077 44.512 449.077 46C449.077 47.488 450.421 48.4 453.109 48.784L457.573 49.456C465.397 50.608 468.757 53.776 468.757 59.2C468.757 62.56 467.461 65.296 464.917 67.456C462.325 69.616 458.773 70.672 454.261 70.672ZM489.118 70H479.71V45.328H470.398V36.64H498.43V45.328H489.118V70ZM531.128 70H521.288L519.128 63.088H508.424L506.36 70H496.52L507.704 36.64H519.944L531.128 70ZM513.608 45.472L510.536 55.936H516.872L513.608 45.472ZM561.28 61.264C561.712 61.264 562.144 61.216 562.672 61.168V69.856C561.856 70.096 560.896 70.24 559.888 70.24C556.624 70.24 553.888 69.568 551.728 68.224C549.52 66.88 547.648 64.24 546.16 60.352L545.776 59.392H543.088V70H533.68V36.64H549.568C553.264 36.64 556.336 37.648 558.784 39.712C561.184 41.776 562.384 44.608 562.384 48.16C562.384 53.008 559.84 56.224 555.424 57.568C557.68 60.88 559.168 61.312 561.28 61.264ZM548.08 44.704H543.088V51.376H548.224C551.104 51.376 552.544 50.272 552.544 48.016C552.544 45.808 551.056 44.704 548.08 44.704ZM583.055 70H573.647V45.328H564.335V36.64H592.367V45.328H583.055V70ZM622.368 66.928C619.728 69.424 615.984 70.672 611.088 70.672C606.192 70.672 602.448 69.424 599.808 66.928C597.168 64.432 595.872 60.832 595.872 56.176V36.64H605.28V54.736C605.28 59.392 607.296 61.984 611.088 61.984C614.88 61.984 616.896 59.392 616.896 54.736V36.64H626.304V56.176C626.304 60.832 625.008 64.432 622.368 66.928ZM641.291 70H631.883V36.64H647.099C650.795 36.64 653.819 37.696 656.267 39.76C658.667 41.872 659.867 44.704 659.867 48.256C659.867 51.808 658.667 54.64 656.267 56.704C653.819 58.816 650.795 59.872 647.099 59.872H641.291V70ZM641.291 44.704V51.808H645.707C648.587 51.808 650.027 50.608 650.027 48.256C650.027 45.904 648.539 44.704 645.563 44.704H641.291ZM672.588 58H663.948L663.372 36.64H673.164L672.588 58ZM668.268 70.672C665.244 70.672 662.748 68.32 662.748 65.248C662.748 62.176 665.244 59.824 668.268 59.824C671.388 59.824 673.788 62.128 673.788 65.248C673.788 68.368 671.388 70.672 668.268 70.672Z" fill="white"/>
<path d="M40.6325 70V83H50.1532L53.0264 73.9232L40.6325 70ZM28.3925 70L15.9986 73.9232L18.8718 83H28.3925V70ZM17.8325 36.64V23.64H0.0816269L5.43862 40.5632L17.8325 36.64ZM27.6725 36.64L40.1407 32.9596L37.3897 23.64H27.6725V36.64ZM34.7285 60.544L22.2603 64.2244L35.1232 107.801L47.2564 64.0156L34.7285 60.544ZM41.3525 36.64V23.64H31.465L28.8246 33.1684L41.3525 36.64ZM51.1925 36.64L63.5864 40.5632L68.9434 23.64H51.1925V36.64ZM40.6325 70V57H28.3925V70V83H40.6325V70ZM28.3925 70L40.7864 66.0768L30.2264 32.7168L17.8325 36.64L5.43862 40.5632L15.9986 73.9232L28.3925 70ZM17.8325 36.64V49.64H27.6725V36.64V23.64H17.8325V36.64ZM27.6725 36.64L15.2043 40.3204L22.2603 64.2244L34.7285 60.544L47.1967 56.8636L40.1407 32.9596L27.6725 36.64ZM34.7285 60.544L47.2564 64.0156L53.8804 40.1116L41.3525 36.64L28.8246 33.1684L22.2006 57.0724L34.7285 60.544ZM41.3525 36.64V49.64H51.1925V36.64V23.64H41.3525V36.64ZM51.1925 36.64L38.7986 32.7168L28.2386 66.0768L40.6325 70L53.0264 73.9232L63.5864 40.5632L51.1925 36.64ZM63.1351 70V83H76.1351V70H63.1351ZM53.7271 70H40.7271V83H53.7271V70ZM53.7271 36.64V23.64H40.7271V36.64H53.7271ZM63.1351 36.64H76.1351V23.64H63.1351V36.64ZM63.1351 70V57H53.7271V70V83H63.1351V70ZM53.7271 70H66.7271V36.64H53.7271H40.7271V70H53.7271ZM53.7271 36.64V49.64H63.1351V36.64V23.64H53.7271V36.64ZM63.1351 36.64H50.1351V70H63.1351H76.1351V36.64H63.1351ZM69.1959 70H56.1959V83H69.1959V70ZM69.1959 36.64V23.64H56.1959V36.64H69.1959ZM89.8839 52.528L86.5233 39.9699L86.942 65.1908L89.8839 52.528ZM78.6039 43.216V30.216H65.6039V43.216H78.6039ZM78.6039 49.696H65.6039V62.696H78.6039V49.696ZM78.6039 56.56V43.56H65.6039V56.56H78.6039ZM78.6039 63.424H65.6039V76.424H78.6039V63.424ZM85.2759 70V57H69.1959V70V83H85.2759V70ZM69.1959 70H82.1959V36.64H69.1959H56.1959V70H69.1959ZM69.1959 36.64V49.64H84.2679V36.64V23.64H69.1959V36.64ZM84.2679 36.64V49.64C85.2673 49.64 85.785 49.7472 85.9302 49.7853C86.0679 49.8215 85.6876 49.746 85.0906 49.301C84.443 48.8183 83.7825 48.0758 83.3313 47.1226C82.896 46.203 82.8359 45.4719 82.8359 45.184H95.8359H108.836C108.836 38.8234 106.226 32.6272 100.629 28.455C95.5908 24.6995 89.5464 23.64 84.2679 23.64V36.64ZM95.8359 45.184H82.8359C82.8359 43.9035 83.3242 42.5582 84.1977 41.5219C85.0044 40.5648 85.9002 40.1366 86.5233 39.9699L89.8839 52.528L93.2445 65.0861C101.345 62.9183 108.836 55.7334 108.836 45.184H95.8359ZM89.8839 52.528L86.942 65.1908C87.6751 65.3611 86.7385 65.3144 85.6009 64.0567C85.0232 63.4181 84.5872 62.6692 84.3212 61.912C84.066 61.1853 84.0359 60.6499 84.0359 60.448H97.0359H110.036C110.036 55.7138 108.597 50.721 104.883 46.6153C101.357 42.7176 96.8447 40.7989 92.8257 39.8652L89.8839 52.528ZM97.0359 60.448H84.0359C84.0359 60.4951 84.0301 60.0543 84.3332 59.356C84.6559 58.6125 85.1786 57.9295 85.7944 57.4302C86.927 56.5119 87.3153 57 85.2759 57V70V83C90.7725 83 97.0407 81.7841 102.169 77.6258C107.717 73.1276 110.036 66.7386 110.036 60.448H97.0359ZM78.6039 43.216H65.6039V49.696H78.6039H91.6039V43.216H78.6039ZM78.6039 49.696V62.696H82.6839V49.696V36.696H78.6039V49.696ZM82.6839 49.696V62.696C85.4894 62.696 90.0858 62.1592 94.0797 58.7515C98.4821 54.9954 99.6199 49.9825 99.6199 46.336H86.6199H73.6199C73.6199 44.9455 74.1097 41.6126 77.204 38.9725C79.8899 36.6808 82.5183 36.696 82.6839 36.696V49.696ZM86.6199 46.336H99.6199C99.6199 42.4156 98.2429 37.4265 93.7515 33.8416C89.8173 30.7014 85.394 30.216 82.6839 30.216V43.216V56.216C82.6137 56.216 80.1585 56.2586 77.5322 54.1624C74.3489 51.6215 73.6199 48.1924 73.6199 46.336H86.6199ZM82.6839 43.216V30.216H78.6039V43.216V56.216H82.6839V43.216ZM78.6039 56.56H65.6039V63.424H78.6039H91.6039V56.56H78.6039ZM78.6039 63.424V76.424H82.9239V63.424V50.424H78.6039V63.424ZM82.9239 63.424V76.424C85.7497 76.424 90.2003 75.9254 94.1763 72.8545C98.7677 69.3084 100.34 64.2472 100.34 60.016H87.3399H74.3399C74.3399 59.1645 74.4805 57.8301 75.1434 56.3084C75.8373 54.7155 76.9311 53.322 78.2834 52.2775C79.5717 51.2825 80.7962 50.8302 81.5795 50.6266C82.3451 50.4277 82.8437 50.424 82.9239 50.424V63.424ZM87.3399 60.016H100.34C100.34 55.6995 98.7087 50.5878 94.033 47.0535C90.0334 44.0301 85.5789 43.56 82.7799 43.56V56.56V69.56C82.752 69.56 82.3018 69.5616 81.58 69.379C80.8437 69.1927 79.64 68.7661 78.3547 67.7945C76.9993 66.7699 75.8804 65.3815 75.1654 63.7666C74.4829 62.2248 74.3399 60.8713 74.3399 60.016H87.3399ZM82.7799 56.56V43.56H78.6039V56.56V69.56H82.7799V56.56ZM127.071 70V83H140.071V70H127.071ZM101.727 70H88.7271V83H101.727V70ZM101.727 36.64V23.64H88.7271V36.64H101.727ZM126.687 36.64H139.687V23.64H126.687V36.64ZM126.687 44.752V57.752H139.687V44.752H126.687ZM111.135 44.752V31.752H98.1351V44.752H111.135ZM111.135 49.168H98.1351V62.168H111.135V49.168ZM123.999 49.168H136.999V36.168H123.999V49.168ZM123.999 57.28V70.28H136.999V57.28H123.999ZM111.135 57.28V44.28H98.1351V57.28H111.135ZM111.135 61.888H98.1351V74.888H111.135V61.888ZM127.071 61.888H140.071V48.888H127.071V61.888ZM127.071 70V57H101.727V70V83H127.071V70ZM101.727 70H114.727V36.64H101.727H88.7271V70H101.727ZM101.727 36.64V49.64H126.687V36.64V23.64H101.727V36.64ZM126.687 36.64H113.687V44.752H126.687H139.687V36.64H126.687ZM126.687 44.752V31.752H111.135V44.752V57.752H126.687V44.752ZM111.135 44.752H98.1351V49.168H111.135H124.135V44.752H111.135ZM111.135 49.168V62.168H123.999V49.168V36.168H111.135V49.168ZM123.999 49.168H110.999V57.28H123.999H136.999V49.168H123.999ZM123.999 57.28V44.28H111.135V57.28V70.28H123.999V57.28ZM111.135 57.28H98.1351V61.888H111.135H124.135V57.28H111.135ZM111.135 61.888V74.888H127.071V61.888V48.888H111.135V61.888ZM127.071 61.888H114.071V70H127.071H140.071V61.888H127.071ZM145.674 65.92L136.412 75.042L145.674 65.92ZM145.866 40.864L136.606 31.7399L136.573 31.7737L136.54 31.8078L145.866 40.864ZM174.042 49.552L177.134 62.1789L189.427 59.1684L186.747 46.7992L174.042 49.552ZM164.634 51.856L151.965 54.7699L154.92 67.6191L167.726 64.4829L164.634 51.856ZM164.394 56.752L166.277 43.889L154.895 42.2235L151.856 53.3169L164.394 56.752ZM174.234 58.192L186.815 61.4646L190.466 47.429L176.117 45.329L174.234 58.192ZM157.722 70.672V57.672C155.873 57.672 155.354 57.2218 154.936 56.798L145.674 65.92L136.412 75.042C142.234 80.9542 149.684 83.672 157.722 83.672V70.672ZM145.674 65.92L154.936 56.798C154.65 56.5071 154.018 55.8426 154.018 53.344H141.018H128.018C128.018 61.3094 130.458 68.9969 136.412 75.042L145.674 65.92ZM141.018 53.344H154.018C154.018 51.432 154.503 50.6301 155.193 49.9202L145.866 40.864L136.54 31.8078C130.797 37.7219 128.018 45.176 128.018 53.344H141.018ZM145.866 40.864L155.126 49.988C155.668 49.4384 156.348 48.968 158.154 48.968V35.968V22.968C150.073 22.968 142.496 25.7616 136.606 31.7399L145.866 40.864ZM158.154 35.968V48.968C159.58 48.968 159.974 49.3405 160.039 49.3965C160.175 49.5128 160.876 50.1776 161.337 52.3048L174.042 49.552L186.747 46.7992C185.336 40.2864 182.221 34.1592 176.945 29.6435C171.599 25.0675 164.984 22.968 158.154 22.968V35.968ZM174.042 49.552L170.95 36.9251L161.542 39.2291L164.634 51.856L167.726 64.4829L177.134 62.1789L174.042 49.552ZM164.634 51.856L177.303 48.9421C176.449 45.2256 174.791 40.9159 171.385 37.4046C167.635 33.5387 162.74 31.656 157.674 31.656V44.656V57.656C157.043 57.656 156.147 57.5423 155.146 57.1314C154.132 56.715 153.314 56.1172 152.723 55.5074C151.645 54.3961 151.716 53.6864 151.965 54.7699L164.634 51.856ZM157.674 44.656V31.656C151.524 31.656 146.133 34.4969 142.578 38.9889C139.185 43.2768 137.858 48.4816 137.858 53.344H150.858H163.858C163.858 53.0224 163.948 53.8832 162.966 55.1231C162.461 55.7614 161.713 56.4309 160.704 56.931C159.684 57.4371 158.624 57.656 157.674 57.656V44.656ZM150.858 53.344H137.858C137.858 58.2572 139.227 63.5546 142.8 67.8833C146.543 72.4175 152.01 74.984 157.962 74.984V61.984V48.984C158.708 48.984 159.632 49.1441 160.588 49.592C161.542 50.0394 162.305 50.6697 162.852 51.3327C163.929 52.6374 163.858 53.6148 163.858 53.344H150.858ZM157.962 61.984V74.984C161.958 74.984 166.402 73.8953 170.243 70.7836C173.989 67.7487 175.95 63.7703 176.932 60.1871L164.394 56.752L151.856 53.3169C151.878 53.2377 152.279 51.8753 153.877 50.5804C155.571 49.2087 157.279 48.984 157.962 48.984V61.984ZM164.394 56.752L162.512 69.615L172.352 71.055L174.234 58.192L176.117 45.329L166.277 43.889L164.394 56.752ZM174.234 58.192L161.653 54.9194C161.383 55.955 161.092 56.5415 160.912 56.8335C160.748 57.1001 160.651 57.1675 160.64 57.1759C160.626 57.1869 160.492 57.2911 160.096 57.4064C159.672 57.5296 158.918 57.672 157.722 57.672V70.672V83.672C164.177 83.672 170.75 82.1268 176.32 77.9161C181.927 73.6773 185.181 67.7478 186.815 61.4646L174.234 58.192ZM206.643 65.776L197.518 56.5168L206.643 65.776ZM181.587 65.776L190.712 56.5168L181.587 65.776ZM181.587 40.864L172.462 31.6048L172.428 31.6381L172.395 31.6716L181.587 40.864ZM206.643 40.864L215.836 31.6716L215.802 31.6381L215.768 31.6048L206.643 40.864ZM188.595 59.68L178.962 68.4098L188.595 59.68ZM199.635 59.68L190.002 50.9502L190.002 50.9502L199.635 59.68ZM199.635 46.96L209.4 38.3785L209.335 38.3039L209.268 38.2303L199.635 46.96ZM188.595 46.96L178.962 38.2302L178.896 38.3039L178.83 38.3785L188.595 46.96ZM206.643 65.776L197.518 56.5168C196.854 57.1712 196.055 57.672 194.115 57.672V70.672V83.672C202.255 83.672 209.808 80.9088 215.768 75.0352L206.643 65.776ZM194.115 70.672V57.672C192.175 57.672 191.376 57.1712 190.712 56.5168L181.587 65.776L172.462 75.0352C178.422 80.9088 185.975 83.672 194.115 83.672V70.672ZM181.587 65.776L190.712 56.5168C190.119 55.9326 189.643 55.2555 189.643 53.344H176.643H163.643C163.643 61.5125 166.431 69.0914 172.462 75.0352L181.587 65.776ZM176.643 53.344H189.643C189.643 51.452 190.11 50.7263 190.78 50.0564L181.587 40.864L172.395 31.6716C166.441 37.6257 163.643 45.156 163.643 53.344H176.643ZM181.587 40.864L190.712 50.1232C191.376 49.4688 192.175 48.968 194.115 48.968V35.968V22.968C185.975 22.968 178.422 25.7312 172.462 31.6048L181.587 40.864ZM194.115 35.968V48.968C196.055 48.968 196.854 49.4688 197.518 50.1232L206.643 40.864L215.768 31.6048C209.808 25.7312 202.255 22.968 194.115 22.968V35.968ZM206.643 40.864L197.451 50.0564C198.121 50.7263 198.587 51.452 198.587 53.344H211.587H224.587C224.587 45.156 221.79 37.6257 215.836 31.6716L206.643 40.864ZM211.587 53.344H198.587C198.587 55.2555 198.111 55.9326 197.518 56.5168L206.643 65.776L215.768 75.0352C221.799 69.0914 224.587 61.5125 224.587 53.344H211.587ZM188.595 59.68L178.962 68.4098C183.109 72.985 188.645 74.984 194.115 74.984V61.984V48.984C194.472 48.984 195.166 49.0484 196.02 49.4034C196.902 49.7701 197.663 50.3266 198.228 50.9502L188.595 59.68ZM194.115 61.984V74.984C199.586 74.984 205.122 72.985 209.268 68.4098L199.635 59.68L190.002 50.9502C190.568 50.3266 191.328 49.7701 192.21 49.4034C193.064 49.0484 193.758 48.984 194.115 48.984V61.984ZM199.635 59.68L209.268 68.4098C213.352 63.9034 214.747 58.3812 214.747 53.344H201.747H188.747C188.747 53.5409 188.72 53.3119 188.887 52.812C189.068 52.2732 189.419 51.5938 190.002 50.9502L199.635 59.68ZM201.747 53.344H214.747C214.747 48.2517 213.326 42.8462 209.4 38.3785L199.635 46.96L189.87 55.5415C189.372 54.9753 189.052 54.3635 188.88 53.849C188.721 53.3715 188.747 53.1524 188.747 53.344H201.747ZM199.635 46.96L209.268 38.2303C205.122 33.655 199.586 31.656 194.115 31.656V44.656V57.656C193.758 57.656 193.065 57.5916 192.21 57.2366C191.328 56.8699 190.568 56.3134 190.002 55.6897L199.635 46.96ZM194.115 44.656V31.656C188.645 31.656 183.109 33.655 178.962 38.2302L188.595 46.96L198.228 55.6898C197.663 56.3134 196.902 56.8699 196.02 57.2366C195.166 57.5916 194.472 57.656 194.115 57.656V44.656ZM188.595 46.96L178.83 38.3785C174.904 42.8462 173.483 48.2517 173.483 53.344H186.483H199.483C199.483 53.1524 199.509 53.3715 199.35 53.849C199.178 54.3635 198.858 54.9753 198.36 55.5415L188.595 46.96ZM186.483 53.344H173.483C173.483 58.3812 174.878 63.9034 178.962 68.4098L188.595 59.68L198.228 50.9502C198.811 51.5938 199.162 52.2732 199.343 52.812C199.511 53.3119 199.483 53.5409 199.483 53.344H186.483ZM216.055 70H203.055V83H216.055V70ZM216.055 36.64V23.64H203.055V36.64H216.055ZM244.903 44.224L255.812 37.1534L255.789 37.1179L255.766 37.0827L244.903 44.224ZM225.463 45.328V32.328H212.463V45.328H225.463ZM225.463 61.312H212.463V74.312H225.463V61.312ZM230.071 70V57H216.055V70V83H230.071V70ZM216.055 70H229.055V36.64H216.055H203.055V70H216.055ZM216.055 36.64V49.64H230.071V36.64V23.64H216.055V36.64ZM230.071 36.64V49.64C231.416 49.64 232.249 49.9015 232.726 50.1377C233.15 50.3476 233.587 50.675 234.04 51.3653L244.903 44.224L255.766 37.0827C249.59 27.688 239.837 23.64 230.071 23.64V36.64ZM244.903 44.224L233.994 51.2946C234.176 51.5745 234.447 52.0914 234.447 53.344H247.447H260.447C260.447 47.5886 258.991 42.0575 255.812 37.1534L244.903 44.224ZM247.447 53.344H234.447C234.447 54.2975 234.267 54.8434 234.138 55.1275C234.005 55.4186 233.821 55.6688 233.547 55.907C232.94 56.4341 231.729 57 230.071 57V70V83C244.302 83 260.447 72.9839 260.447 53.344H247.447ZM225.463 45.328H212.463V61.312H225.463H238.463V45.328H225.463ZM225.463 61.312V74.312H229.303V61.312V48.312H225.463V61.312ZM229.303 61.312V74.312C233.808 74.312 239.273 73.1057 243.787 69.1356C248.569 64.9292 250.607 59.0987 250.607 53.296H237.607H224.607C224.607 53.2444 224.618 52.7217 224.939 51.9401C225.274 51.1229 225.84 50.2943 226.616 49.6124C228.142 48.2703 229.454 48.312 229.303 48.312V61.312ZM237.607 53.296H250.607C250.607 47.4769 248.528 41.6861 243.787 37.5164C239.306 33.5753 233.865 32.328 229.303 32.328V45.328V58.328C229.303 58.328 229.028 58.3298 228.555 58.1762C228.064 58.0171 227.349 57.6845 226.616 57.0396C225.858 56.3733 225.294 55.5581 224.954 54.7378C224.627 53.9485 224.607 53.4002 224.607 53.296H237.607ZM229.303 45.328V32.328H225.463V45.328V58.328H229.303V45.328ZM277.259 70V83H290.259V70H277.259ZM251.915 70H238.915V83H251.915V70ZM251.915 36.64V23.64H238.915V36.64H251.915ZM276.875 36.64H289.875V23.64H276.875V36.64ZM276.875 44.752V57.752H289.875V44.752H276.875ZM261.323 44.752V31.752H248.323V44.752H261.323ZM261.323 49.168H248.323V62.168H261.323V49.168ZM274.187 49.168H287.187V36.168H274.187V49.168ZM274.187 57.28V70.28H287.187V57.28H274.187ZM261.323 57.28V44.28H248.323V57.28H261.323ZM261.323 61.888H248.323V74.888H261.323V61.888ZM277.259 61.888H290.259V48.888H277.259V61.888ZM277.259 70V57H251.915V70V83H277.259V70ZM251.915 70H264.915V36.64H251.915H238.915V70H251.915ZM251.915 36.64V49.64H276.875V36.64V23.64H251.915V36.64ZM276.875 36.64H263.875V44.752H276.875H289.875V36.64H276.875ZM276.875 44.752V31.752H261.323V44.752V57.752H276.875V44.752ZM261.323 44.752H248.323V49.168H261.323H274.323V44.752H261.323ZM261.323 49.168V62.168H274.187V49.168V36.168H261.323V49.168ZM274.187 49.168H261.187V57.28H274.187H287.187V49.168H274.187ZM274.187 57.28V44.28H261.323V57.28V70.28H274.187V57.28ZM261.323 57.28H248.323V61.888H261.323H274.323V57.28H261.323ZM261.323 61.888V74.888H277.259V61.888V48.888H261.323V61.888ZM277.259 61.888H264.259V70H277.259H290.259V61.888H277.259ZM310.406 70V83H323.406V70H310.406ZM300.998 70H287.998V83H300.998V70ZM300.998 57.856H313.998V54.506L312.379 51.5733L300.998 57.856ZM289.286 36.64V23.64H267.26L277.905 42.9227L289.286 36.64ZM299.894 36.64L311.493 30.7695L307.884 23.64H299.894V36.64ZM305.846 48.4L294.247 54.2705L306.135 77.7589L317.558 54.041L305.846 48.4ZM311.51 36.64V23.64H303.342L299.797 30.999L311.51 36.64ZM322.118 36.64L333.499 42.9227L344.143 23.64H322.118V36.64ZM310.406 57.856L299.025 51.5733L297.406 54.506V57.856H310.406ZM310.406 70V57H300.998V70V83H310.406V70ZM300.998 70H313.998V57.856H300.998H287.998V70H300.998ZM300.998 57.856L312.379 51.5733L300.667 30.3573L289.286 36.64L277.905 42.9227L289.617 64.1387L300.998 57.856ZM289.286 36.64V49.64H299.894V36.64V23.64H289.286V36.64ZM299.894 36.64L288.295 42.5105L294.247 54.2705L305.846 48.4L317.445 42.5295L311.493 30.7695L299.894 36.64ZM305.846 48.4L317.558 54.041L323.222 42.281L311.51 36.64L299.797 30.999L294.133 42.759L305.846 48.4ZM311.51 36.64V49.64H322.118V36.64V23.64H311.51V36.64ZM322.118 36.64L310.737 30.3573L299.025 51.5733L310.406 57.856L321.787 64.1387L333.499 42.9227L322.118 36.64ZM310.406 57.856H297.406V70H310.406H323.406V57.856H310.406ZM351.159 65.776L342.034 56.5168L351.159 65.776ZM326.103 65.776L335.228 56.5168L326.103 65.776ZM326.103 40.864L316.978 31.6048L316.944 31.6381L316.91 31.6716L326.103 40.864ZM351.159 40.864L360.351 31.6716L360.318 31.6381L360.284 31.6048L351.159 40.864ZM333.111 59.68L323.478 68.4098L333.111 59.68ZM344.151 59.68L334.518 50.9502V50.9502L344.151 59.68ZM344.151 46.96L353.916 38.3785L353.85 38.3039L353.784 38.2303L344.151 46.96ZM333.111 46.96L323.478 38.2302L323.411 38.3039L323.346 38.3785L333.111 46.96ZM351.159 65.776L342.034 56.5168C341.37 57.1712 340.571 57.672 338.631 57.672V70.672V83.672C346.77 83.672 354.324 80.9088 360.284 75.0352L351.159 65.776ZM338.631 70.672V57.672C336.69 57.672 335.892 57.1712 335.228 56.5168L326.103 65.776L316.978 75.0352C322.938 80.9088 330.491 83.672 338.631 83.672V70.672ZM326.103 65.776L335.228 56.5168C334.635 55.9326 334.159 55.2555 334.159 53.344H321.159H308.159C308.159 61.5125 310.946 69.0914 316.978 75.0352L326.103 65.776ZM321.159 53.344H334.159C334.159 51.452 334.625 50.7263 335.295 50.0564L326.103 40.864L316.91 31.6716C310.956 37.6257 308.159 45.156 308.159 53.344H321.159ZM326.103 40.864L335.228 50.1232C335.892 49.4688 336.69 48.968 338.631 48.968V35.968V22.968C330.491 22.968 322.938 25.7312 316.978 31.6048L326.103 40.864ZM338.631 35.968V48.968C340.571 48.968 341.37 49.4688 342.034 50.1232L351.159 40.864L360.284 31.6048C354.324 25.7312 346.77 22.968 338.631 22.968V35.968ZM351.159 40.864L341.966 50.0564C342.636 50.7263 343.103 51.452 343.103 53.344H356.103H369.103C369.103 45.156 366.305 37.6257 360.351 31.6716L351.159 40.864ZM356.103 53.344H343.103C343.103 55.2555 342.626 55.9326 342.034 56.5168L351.159 65.776L360.284 75.0352C366.315 69.0914 369.103 61.5125 369.103 53.344H356.103ZM333.111 59.68L323.478 68.4098C327.624 72.985 333.16 74.984 338.631 74.984V61.984V48.984C338.988 48.984 339.681 49.0484 340.536 49.4034C341.418 49.7701 342.178 50.3266 342.744 50.9502L333.111 59.68ZM338.631 61.984V74.984C344.101 74.984 349.637 72.985 353.784 68.4098L344.151 59.68L334.518 50.9502C335.083 50.3266 335.843 49.7701 336.726 49.4034C337.58 49.0484 338.274 48.984 338.631 48.984V61.984ZM344.151 59.68L353.784 68.4098C357.867 63.9034 359.263 58.3812 359.263 53.344H346.263H333.263C333.263 53.5409 333.235 53.3119 333.403 52.812C333.584 52.2732 333.935 51.5938 334.518 50.9502L344.151 59.68ZM346.263 53.344H359.263C359.263 48.2517 357.842 42.8462 353.916 38.3785L344.151 46.96L334.386 55.5415C333.888 54.9753 333.567 54.3635 333.396 53.849C333.237 53.3715 333.263 53.1524 333.263 53.344H346.263ZM344.151 46.96L353.784 38.2303C349.637 33.655 344.101 31.656 338.631 31.656V44.656V57.656C338.274 57.656 337.58 57.5916 336.726 57.2366C335.843 56.8699 335.083 56.3134 334.518 55.6897L344.151 46.96ZM338.631 44.656V31.656C333.16 31.656 327.624 33.655 323.478 38.2302L333.111 46.96L342.744 55.6898C342.178 56.3134 341.418 56.8699 340.536 57.2366C339.681 57.5916 338.988 57.656 338.631 57.656V44.656ZM333.111 46.96L323.346 38.3785C319.419 42.8462 317.999 48.2517 317.999 53.344H330.999H343.999C343.999 53.1524 344.025 53.3715 343.866 53.849C343.694 54.3635 343.373 54.9753 342.876 55.5415L333.111 46.96ZM330.999 53.344H317.999C317.999 58.3812 319.394 63.9034 323.478 68.4098L333.111 59.68L342.744 50.9502C343.327 51.5938 343.678 52.2732 343.859 52.812C344.026 53.3119 343.999 53.5409 343.999 53.344H330.999ZM386.587 66.928L377.656 57.4816L386.587 66.928ZM364.027 66.928L355.096 76.3744L364.027 66.928ZM360.091 36.64V23.64H347.091V36.64H360.091ZM369.499 36.64H382.499V23.64H369.499V36.64ZM381.115 36.64V23.64H368.115V36.64H381.115ZM390.523 36.64H403.523V23.64H390.523V36.64ZM386.587 66.928L377.656 57.4816C377.831 57.3162 377.925 57.3222 377.694 57.3992C377.407 57.4945 376.677 57.672 375.307 57.672V70.672V83.672C382.367 83.672 389.737 81.84 395.518 76.3744L386.587 66.928ZM375.307 70.672V57.672C373.937 57.672 373.207 57.4945 372.92 57.3992C372.688 57.3222 372.783 57.3162 372.958 57.4816L364.027 66.928L355.096 76.3744C360.877 81.84 368.247 83.672 375.307 83.672V70.672ZM364.027 66.928L372.958 57.4816C373.054 57.5722 373.143 57.6795 373.211 57.7857C373.278 57.8893 373.295 57.9428 373.283 57.9095C373.253 57.8287 373.091 57.3233 373.091 56.176H360.091H347.091C347.091 63.257 349.127 70.7315 355.096 76.3744L364.027 66.928ZM360.091 56.176H373.091V36.64H360.091H347.091V56.176H360.091ZM360.091 36.64V49.64H369.499V36.64V23.64H360.091V36.64ZM369.499 36.64H356.499V54.736H369.499H382.499V36.64H369.499ZM369.499 54.736H356.499C356.499 58.6752 357.315 63.8073 360.805 68.1967C364.68 73.0697 370.195 74.984 375.307 74.984V61.984V48.984C375.837 48.984 376.822 49.0766 378.007 49.5948C379.244 50.1355 380.337 50.9844 381.156 52.0153C382.69 53.9447 382.499 55.4528 382.499 54.736H369.499ZM375.307 61.984V74.984C380.419 74.984 385.934 73.0697 389.808 68.1967C393.298 63.8073 394.115 58.6752 394.115 54.736H381.115H368.115C368.115 55.4528 367.923 53.9447 369.457 52.0153C370.277 50.9844 371.37 50.1355 372.607 49.5948C373.792 49.0766 374.777 48.984 375.307 48.984V61.984ZM381.115 54.736H394.115V36.64H381.115H368.115V54.736H381.115ZM381.115 36.64V49.64H390.523V36.64V23.64H381.115V36.64ZM390.523 36.64H377.523V56.176H390.523H403.523V36.64H390.523ZM390.523 56.176H377.523C377.523 57.3233 377.361 57.8287 377.331 57.9095C377.319 57.9428 377.335 57.8893 377.402 57.7857C377.471 57.6795 377.56 57.5722 377.656 57.4816L386.587 66.928L395.518 76.3744C401.486 70.7315 403.523 63.257 403.523 56.176H390.523ZM423.702 61.264V48.264H423.554L423.407 48.2674L423.702 61.264ZM425.094 61.168H438.094V46.9326L423.917 48.2214L425.094 61.168ZM425.094 69.856L428.762 82.3278L438.094 79.5831V69.856H425.094ZM414.15 68.224L421.018 57.1863L420.964 57.1526L420.909 57.1194L414.15 68.224ZM408.582 60.352L420.723 55.7054L420.689 55.6144L420.652 55.5239L408.582 60.352ZM408.198 59.392L420.268 54.5639L417 46.392H408.198V59.392ZM405.51 59.392V46.392H392.51V59.392H405.51ZM405.51 70V83H418.51V70H405.51ZM396.102 70H383.102V83H396.102V70ZM396.102 36.64V23.64H383.102V36.64H396.102ZM421.206 39.712L429.683 29.8556L429.634 29.8142L429.586 29.7732L421.206 39.712ZM417.846 57.568L414.061 45.1312L397.151 50.2778L407.102 64.8865L417.846 57.568ZM405.51 44.704V31.704H392.51V44.704H405.51ZM405.51 51.376H392.51V64.376H405.51V51.376ZM423.702 61.264V74.264C424.893 74.264 426.143 74.1263 426.271 74.1146L425.094 61.168L423.917 48.2214C423.834 48.2289 423.757 48.2361 423.691 48.2423C423.619 48.249 423.569 48.2537 423.516 48.2586C423.412 48.2683 423.364 48.2723 423.339 48.2743C423.317 48.276 423.345 48.2735 423.405 48.2707C423.467 48.2677 423.569 48.264 423.702 48.264V61.264ZM425.094 61.168H412.094V69.856H425.094H438.094V61.168H425.094ZM425.094 69.856L421.426 57.3842C421.658 57.3161 421.835 57.2829 421.959 57.2654C422.086 57.2475 422.2 57.24 422.31 57.24V70.24V83.24C424.508 83.24 426.706 82.9324 428.762 82.3278L425.094 69.856ZM422.31 70.24V57.24C420.775 57.24 420.595 56.923 421.018 57.1863L414.15 68.224L407.282 79.2617C412.025 82.213 417.317 83.24 422.31 83.24V70.24ZM414.15 68.224L420.909 57.1194C421.645 57.5671 421.856 57.9423 421.707 57.7318C421.554 57.5149 421.183 56.9073 420.723 55.7054L408.582 60.352L396.441 64.9986C398.383 70.0729 401.633 75.8238 407.391 79.3286L414.15 68.224ZM408.582 60.352L420.652 55.5239L420.268 54.5639L408.198 59.392L396.128 64.2201L396.512 65.1801L408.582 60.352ZM408.198 59.392V46.392H405.51V59.392V72.392H408.198V59.392ZM405.51 59.392H392.51V70H405.51H418.51V59.392H405.51ZM405.51 70V57H396.102V70V83H405.51V70ZM396.102 70H409.102V36.64H396.102H383.102V70H396.102ZM396.102 36.64V49.64H411.99V36.64V23.64H396.102V36.64ZM411.99 36.64V49.64C412.656 49.64 412.941 49.7301 412.97 49.7397C412.986 49.7451 412.965 49.7392 412.922 49.7154C412.879 49.6913 412.845 49.6661 412.826 49.6508L421.206 39.712L429.586 29.7732C424.392 25.3937 418.183 23.64 411.99 23.64V36.64ZM421.206 39.712L412.73 49.5684C412.616 49.4707 412.466 49.319 412.312 49.1105C412.158 48.9008 412.034 48.6797 411.944 48.4682C411.758 48.0306 411.806 47.8546 411.806 48.16H424.806H437.806C437.806 41.3695 435.346 34.7261 429.683 29.8556L421.206 39.712ZM424.806 48.16H411.806C411.806 48.2474 411.818 47.3932 412.596 46.3591C413.357 45.3487 414.143 45.1063 414.061 45.1312L417.846 57.568L421.631 70.0048C425.965 68.6857 430.231 66.1633 433.368 61.9969C436.522 57.8068 437.806 52.9206 437.806 48.16H424.806ZM417.846 57.568L407.102 64.8865C408.696 67.2275 410.995 70.0616 414.458 72.0085C418.31 74.1735 421.925 74.3078 423.997 74.2606L423.702 61.264L423.407 48.2674C423.309 48.2696 423.792 48.2469 424.532 48.3809C425.371 48.533 426.302 48.84 427.198 49.3435C428.826 50.2584 429.252 51.2205 428.59 50.2495L417.846 57.568ZM410.502 44.704V31.704H405.51V44.704V57.704H410.502V44.704ZM405.51 44.704H392.51V51.376H405.51H418.51V44.704H405.51ZM405.51 51.376V64.376H410.646V51.376V38.376H405.51V51.376ZM410.646 51.376V64.376C413.376 64.376 417.849 63.9176 421.85 60.8174C426.491 57.2204 427.966 52.1177 427.966 48.016H414.966H401.966C401.966 47.218 402.092 45.9028 402.744 44.3795C403.431 42.7744 404.531 41.3453 405.923 40.2666C407.245 39.2415 408.505 38.7817 409.301 38.5772C410.077 38.3779 410.579 38.376 410.646 38.376V51.376ZM414.966 48.016H427.966C427.966 43.687 426.301 38.5822 421.596 35.0917C417.619 32.1406 413.218 31.704 410.502 31.704V44.704V57.704C410.485 57.704 410.045 57.7066 409.334 57.5308C408.611 57.352 407.404 56.9367 406.104 55.9723C404.729 54.9522 403.573 53.5516 402.829 51.8946C402.118 50.3118 401.966 48.9119 401.966 48.016H414.966ZM443.125 67.744L450.804 57.2548L450.743 57.2098L450.681 57.1655L443.125 67.744ZM439.717 56.368L442.266 43.6205L431.426 41.4524L427.545 51.8034L439.717 56.368ZM448.837 58.192L460.837 63.192L466.936 48.5544L451.386 45.4445L448.837 58.192ZM456.229 57.52L454.41 70.3921L454.449 70.3976L454.488 70.4029L456.229 57.52ZM451.813 56.896L449.954 69.7624L449.974 69.7653L449.994 69.7681L451.813 56.896ZM443.365 39.04L434.985 29.1012V29.1012L443.365 39.04ZM468.037 47.248L469.575 60.1567L481.871 58.6914L481.005 46.3394L468.037 47.248ZM458.773 48.352L445.87 49.94L447.452 62.7931L460.311 61.2607L458.773 48.352ZM453.109 48.784L455.044 35.9288L454.996 35.9216L454.947 35.9147L453.109 48.784ZM457.573 49.456L455.638 62.3112L455.658 62.3143L455.679 62.3173L457.573 49.456ZM464.917 67.456L473.239 77.4429L473.285 77.4046L473.331 77.3658L464.917 67.456ZM454.261 70.672V57.672C451.085 57.672 450.467 57.0081 450.804 57.2548L443.125 67.744L435.445 78.2332C441.158 82.4159 447.933 83.672 454.261 83.672V70.672ZM443.125 67.744L450.681 57.1655C450.676 57.1617 450.789 57.242 450.961 57.4305C451.138 57.6238 451.35 57.9029 451.547 58.2687C451.979 59.071 452.093 59.8252 452.093 60.256H439.093H426.093C426.093 67.8837 429.766 74.1776 435.569 78.3225L443.125 67.744ZM439.093 60.256H452.093C452.093 59.9389 452.139 60.266 451.889 60.9326L439.717 56.368L427.545 51.8034C426.431 54.774 426.093 57.6931 426.093 60.256H439.093ZM439.717 56.368L437.167 69.1155L446.287 70.9395L448.837 58.192L451.386 45.4445L442.266 43.6205L439.717 56.368ZM448.837 58.192L436.837 53.192C436.176 54.7789 435.453 57.0998 435.453 59.872H448.453H461.453C461.453 61.5882 461.018 62.7571 460.837 63.192L448.837 58.192ZM448.453 59.872H435.453C435.453 66.7231 439.647 71.3912 443.742 73.666C447.403 75.7 451.324 76.184 454.357 76.184V63.184V50.184C453.79 50.184 454.759 50.044 456.368 50.938C457.263 51.435 458.572 52.3832 459.677 54.0354C460.845 55.7825 461.453 57.8352 461.453 59.872H448.453ZM454.357 63.184V76.184C457.229 76.184 461.164 75.7161 464.84 73.4801C469.135 70.8671 472.397 66.1262 472.397 60.16H459.397H446.397C446.397 58.4346 446.842 56.5333 447.894 54.767C448.921 53.0437 450.237 51.9304 451.326 51.2679C453.285 50.0759 454.701 50.184 454.357 50.184V63.184ZM459.397 60.16H472.397C472.397 54.7933 469.681 50.6195 466.468 48.1162C463.566 45.8557 460.382 44.9631 457.97 44.6371L456.229 57.52L454.488 70.4029C453.852 70.3169 452.252 70.0003 450.49 68.6278C448.417 67.0125 446.397 64.0387 446.397 60.16H459.397ZM456.229 57.52L458.048 44.6479L453.632 44.0239L451.813 56.896L449.994 69.7681L454.41 70.3921L456.229 57.52ZM451.813 56.896L453.672 44.0296C452.272 43.8273 451.436 43.5845 451.007 43.4229C450.589 43.265 450.749 43.2567 451.15 43.6033C451.608 43.9985 452.095 44.6134 452.417 45.3774C452.719 46.0937 452.717 46.5611 452.717 46.528H439.717H426.717C426.717 52.6192 428.89 58.7301 434.151 63.2767C438.83 67.3194 444.687 69.0013 449.954 69.7624L451.813 56.896ZM439.717 46.528H452.717C452.717 46.9005 452.626 47.5029 452.317 48.1384C452.021 48.7481 451.71 49.0079 451.745 48.9788L443.365 39.04L434.985 29.1012C429.859 33.4234 426.717 39.451 426.717 46.528H439.717ZM443.365 39.04L451.745 48.9788C451.482 49.2006 451.32 49.2247 451.491 49.1732C451.707 49.1078 452.318 48.968 453.493 48.968V35.968V22.968C447.229 22.968 440.513 24.4405 434.985 29.1012L443.365 39.04ZM453.493 35.968V48.968C454.936 48.968 455.788 49.119 456.199 49.229C456.583 49.3318 456.425 49.3549 456.043 49.0586C455.856 48.9135 455.659 48.7254 455.479 48.5001C455.299 48.2756 455.174 48.0636 455.094 47.8968C454.937 47.5666 455.027 47.5673 455.069 48.1566L468.037 47.248L481.005 46.3394C480.547 39.7995 477.976 33.1607 471.967 28.5054C466.376 24.1741 459.588 22.968 453.493 22.968V35.968ZM468.037 47.248L466.499 34.3393L457.235 35.4433L458.773 48.352L460.311 61.2607L469.575 60.1567L468.037 47.248ZM458.773 48.352L471.676 46.764C471.31 43.7968 470.191 39.0858 466.175 35.2882C462.018 31.3573 456.962 30.456 453.157 30.456V43.456V56.456C453.144 56.456 450.704 56.4427 448.311 54.1798C447.208 53.1369 446.576 52.0259 446.239 51.204C445.927 50.4425 445.87 49.9416 445.87 49.94L458.773 48.352ZM453.157 43.456V30.456C450.197 30.456 446.679 31.1072 443.445 33.0953C440.15 35.1209 436.077 39.4127 436.077 46H449.077H462.077C462.077 51.0993 458.892 54.1191 457.061 55.2447C455.291 56.3328 453.813 56.456 453.157 56.456V43.456ZM449.077 46H436.077C436.077 51.506 438.936 55.9172 442.72 58.5185C445.808 60.6412 449.129 61.3475 451.27 61.6533L453.109 48.784L454.947 35.9147C454.401 35.8365 455.706 35.8948 457.45 37.0935C458.454 37.7842 459.706 38.9278 460.678 40.669C461.677 42.4573 462.077 44.3325 462.077 46H449.077ZM453.109 48.784L451.174 61.6392L455.638 62.3112L457.573 49.456L459.508 36.6008L455.044 35.9288L453.109 48.784ZM457.573 49.456L455.679 62.3173C456.956 62.5053 457.658 62.7214 457.959 62.8369C458.245 62.9469 457.963 62.887 457.468 62.4476C456.917 61.958 456.395 61.2559 456.063 60.4385C455.755 59.6792 455.757 59.182 455.757 59.2H468.757H481.757C481.757 53.5032 479.83 47.5326 474.73 43.0044C470.192 38.9756 464.499 37.3356 459.467 36.5947L457.573 49.456ZM468.757 59.2H455.757C455.757 59.201 455.757 59.0973 455.796 58.9149C455.835 58.7287 455.905 58.5071 456.013 58.2749C456.249 57.7711 456.513 57.5373 456.503 57.5462L464.917 67.456L473.331 77.3658C478.73 72.7815 481.757 66.4463 481.757 59.2H468.757ZM464.917 67.456L456.594 57.4691C456.781 57.3133 456.846 57.3403 456.566 57.4246C456.244 57.5212 455.527 57.672 454.261 57.672V70.672V83.672C460.717 83.672 467.588 82.1522 473.239 77.4429L464.917 67.456ZM489.117 70V83H502.117V70H489.117ZM479.71 70H466.71V83H479.71V70ZM479.71 45.328H492.71V32.328H479.71V45.328ZM470.397 45.328H457.397V58.328H470.397V45.328ZM470.397 36.64V23.64H457.397V36.64H470.397ZM498.43 36.64H511.43V23.64H498.43V36.64ZM498.43 45.328V58.328H511.43V45.328H498.43ZM489.117 45.328V32.328H476.117V45.328H489.117ZM489.117 70V57H479.71V70V83H489.117V70ZM479.71 70H492.71V45.328H479.71H466.71V70H479.71ZM479.71 45.328V32.328H470.397V45.328V58.328H479.71V45.328ZM470.397 45.328H483.397V36.64H470.397H457.397V45.328H470.397ZM470.397 36.64V49.64H498.43V36.64V23.64H470.397V36.64ZM498.43 36.64H485.43V45.328H498.43H511.43V36.64H498.43ZM498.43 45.328V32.328H489.117V45.328V58.328H498.43V45.328ZM489.117 45.328H476.117V70H489.117H502.117V45.328H489.117ZM531.128 70V83H549.197L543.454 65.8678L531.128 70ZM521.288 70L508.88 73.8776L511.731 83H521.288V70ZM519.128 63.088L531.536 59.2104L528.685 50.088H519.128V63.088ZM508.424 63.088V50.088H498.739L495.967 59.3684L508.424 63.088ZM506.36 70V83H516.045L518.816 73.7196L506.36 70ZM496.52 70L484.194 65.8678L478.451 83H496.52V70ZM507.704 36.64V23.64H498.351L495.378 32.5078L507.704 36.64ZM519.944 36.64L532.27 32.5078L529.297 23.64H519.944V36.64ZM513.608 45.472L526.018 41.6009L513.231 0.606274L501.134 41.81L513.608 45.472ZM510.536 55.936L498.062 52.274L493.171 68.936H510.536V55.936ZM516.872 55.936V68.936H534.545L529.282 52.0649L516.872 55.936ZM531.128 70V57H521.288V70V83H531.128V70ZM521.288 70L533.696 66.1224L531.536 59.2104L519.128 63.088L506.72 66.9656L508.88 73.8776L521.288 70ZM519.128 63.088V50.088H508.424V63.088V76.088H519.128V63.088ZM508.424 63.088L495.967 59.3684L493.904 66.2804L506.36 70L518.816 73.7196L520.88 66.8076L508.424 63.088ZM506.36 70V57H496.52V70V83H506.36V70ZM496.52 70L508.846 74.1322L520.03 40.7722L507.704 36.64L495.378 32.5078L484.194 65.8678L496.52 70ZM507.704 36.64V49.64H519.944V36.64V23.64H507.704V36.64ZM519.944 36.64L507.618 40.7722L518.802 74.1322L531.128 70L543.454 65.8678L532.27 32.5078L519.944 36.64ZM513.608 45.472L501.134 41.81L498.062 52.274L510.536 55.936L523.01 59.598L526.082 49.134L513.608 45.472ZM510.536 55.936V68.936H516.872V55.936V42.936H510.536V55.936ZM516.872 55.936L529.282 52.0649L526.018 41.6009L513.608 45.472L501.198 49.3431L504.462 59.8071L516.872 55.936ZM561.28 61.264V48.264H561.133L560.985 48.2674L561.28 61.264ZM562.672 61.168H575.672V46.9326L561.495 48.2214L562.672 61.168ZM562.672 69.856L566.34 82.3278L575.672 79.5831V69.856H562.672ZM551.728 68.224L558.596 57.1863L558.542 57.1526L558.488 57.1194L551.728 68.224ZM546.16 60.352L558.301 55.7054L558.267 55.6144L558.23 55.5239L546.16 60.352ZM545.776 59.392L557.846 54.5639L554.578 46.392H545.776V59.392ZM543.088 59.392V46.392H530.088V59.392H543.088ZM543.088 70V83H556.088V70H543.088ZM533.68 70H520.68V83H533.68V70ZM533.68 36.64V23.64H520.68V36.64H533.68ZM558.784 39.712L567.261 29.8556L567.213 29.8142L567.164 29.7732L558.784 39.712ZM555.424 57.568L551.639 45.1312L534.729 50.2778L544.68 64.8865L555.424 57.568ZM543.088 44.704V31.704H530.088V44.704H543.088ZM543.088 51.376H530.088V64.376H543.088V51.376ZM561.28 61.264V74.264C562.471 74.264 563.721 74.1263 563.849 74.1146L562.672 61.168L561.495 48.2214C561.413 48.2289 561.335 48.2361 561.269 48.2423C561.197 48.249 561.147 48.2537 561.094 48.2586C560.99 48.2683 560.942 48.2723 560.917 48.2743C560.895 48.276 560.923 48.2735 560.983 48.2707C561.045 48.2677 561.148 48.264 561.28 48.264V61.264ZM562.672 61.168H549.672V69.856H562.672H575.672V61.168H562.672ZM562.672 69.856L559.004 57.3842C559.236 57.3161 559.413 57.2829 559.537 57.2654C559.664 57.2475 559.778 57.24 559.888 57.24V70.24V83.24C562.086 83.24 564.285 82.9324 566.34 82.3278L562.672 69.856ZM559.888 70.24V57.24C558.353 57.24 558.173 56.923 558.596 57.1863L551.728 68.224L544.86 79.2617C549.603 82.213 554.895 83.24 559.888 83.24V70.24ZM551.728 68.224L558.488 57.1194C559.223 57.5671 559.434 57.9423 559.285 57.7318C559.132 57.5149 558.761 56.9073 558.301 55.7054L546.16 60.352L534.019 64.9986C535.961 70.0729 539.211 75.8238 544.969 79.3286L551.728 68.224ZM546.16 60.352L558.23 55.5239L557.846 54.5639L545.776 59.392L533.706 64.2201L534.09 65.1801L546.16 60.352ZM545.776 59.392V46.392H543.088V59.392V72.392H545.776V59.392ZM543.088 59.392H530.088V70H543.088H556.088V59.392H543.088ZM543.088 70V57H533.68V70V83H543.088V70ZM533.68 70H546.68V36.64H533.68H520.68V70H533.68ZM533.68 36.64V49.64H549.568V36.64V23.64H533.68V36.64ZM549.568 36.64V49.64C550.235 49.64 550.519 49.7301 550.548 49.7397C550.564 49.7451 550.543 49.7392 550.5 49.7154C550.457 49.6913 550.423 49.6661 550.404 49.6508L558.784 39.712L567.164 29.7732C561.97 25.3937 555.761 23.64 549.568 23.64V36.64ZM558.784 39.712L550.308 49.5684C550.194 49.4707 550.044 49.319 549.89 49.1105C549.736 48.9008 549.612 48.6797 549.522 48.4682C549.336 48.0306 549.384 47.8546 549.384 48.16H562.384H575.384C575.384 41.3695 572.924 34.7261 567.261 29.8556L558.784 39.712ZM562.384 48.16H549.384C549.384 48.2474 549.396 47.3932 550.174 46.3591C550.935 45.3487 551.721 45.1063 551.639 45.1312L555.424 57.568L559.209 70.0048C563.543 68.6857 567.809 66.1633 570.946 61.9969C574.101 57.8068 575.384 52.9206 575.384 48.16H562.384ZM555.424 57.568L544.68 64.8865C546.275 67.2275 548.573 70.0616 552.036 72.0085C555.888 74.1735 559.503 74.3078 561.576 74.2606L561.28 61.264L560.985 48.2674C560.887 48.2696 561.37 48.2469 562.11 48.3809C562.949 48.533 563.88 48.84 564.776 49.3435C566.404 50.2584 566.83 51.2205 566.169 50.2495L555.424 57.568ZM548.08 44.704V31.704H543.088V44.704V57.704H548.08V44.704ZM543.088 44.704H530.088V51.376H543.088H556.088V44.704H543.088ZM543.088 51.376V64.376H548.224V51.376V38.376H543.088V51.376ZM548.224 51.376V64.376C550.954 64.376 555.427 63.9176 559.428 60.8174C564.069 57.2204 565.544 52.1177 565.544 48.016H552.544H539.544C539.544 47.218 539.67 45.9028 540.322 44.3795C541.009 42.7744 542.109 41.3453 543.501 40.2666C544.824 39.2415 546.083 38.7817 546.879 38.5772C547.655 38.3779 548.157 38.376 548.224 38.376V51.376ZM552.544 48.016H565.544C565.544 43.687 563.879 38.5822 559.174 35.0917C555.197 32.1406 550.797 31.704 548.08 31.704V44.704V57.704C548.063 57.704 547.623 57.7066 546.912 57.5308C546.189 57.352 544.982 56.9367 543.682 55.9723C542.307 54.9522 541.151 53.5516 540.407 51.8946C539.696 50.3118 539.544 48.9119 539.544 48.016H552.544ZM583.055 70V83H596.055V70H583.055ZM573.647 70H560.647V83H573.647V70ZM573.647 45.328H586.647V32.328H573.647V45.328ZM564.335 45.328H551.335V58.328H564.335V45.328ZM564.335 36.64V23.64H551.335V36.64H564.335ZM592.367 36.64H605.367V23.64H592.367V36.64ZM592.367 45.328V58.328H605.367V45.328H592.367ZM583.055 45.328V32.328H570.055V45.328H583.055ZM583.055 70V57H573.647V70V83H583.055V70ZM573.647 70H586.647V45.328H573.647H560.647V70H573.647ZM573.647 45.328V32.328H564.335V45.328V58.328H573.647V45.328ZM564.335 45.328H577.335V36.64H564.335H551.335V45.328H564.335ZM564.335 36.64V49.64H592.367V36.64V23.64H564.335V36.64ZM592.367 36.64H579.367V45.328H592.367H605.367V36.64H592.367ZM592.367 45.328V32.328H583.055V45.328V58.328H592.367V45.328ZM583.055 45.328H570.055V70H583.055H596.055V45.328H583.055ZM622.368 66.928L613.437 57.4816L622.368 66.928ZM599.808 66.928L590.877 76.3744L599.808 66.928ZM595.872 36.64V23.64H582.872V36.64H595.872ZM605.28 36.64H618.28V23.64H605.28V36.64ZM616.896 36.64V23.64H603.896V36.64H616.896ZM626.304 36.64H639.304V23.64H626.304V36.64ZM622.368 66.928L613.437 57.4816C613.612 57.3162 613.707 57.3222 613.475 57.3992C613.188 57.4945 612.458 57.672 611.088 57.672V70.672V83.672C618.148 83.672 625.518 81.84 631.299 76.3744L622.368 66.928ZM611.088 70.672V57.672C609.718 57.672 608.988 57.4945 608.701 57.3992C608.47 57.3222 608.564 57.3162 608.739 57.4816L599.808 66.928L590.877 76.3744C596.658 81.84 604.028 83.672 611.088 83.672V70.672ZM599.808 66.928L608.739 57.4816C608.835 57.5722 608.924 57.6795 608.993 57.7857C609.06 57.8893 609.076 57.9428 609.064 57.9095C609.034 57.8287 608.872 57.3233 608.872 56.176H595.872H582.872C582.872 63.257 584.909 70.7315 590.877 76.3744L599.808 66.928ZM595.872 56.176H608.872V36.64H595.872H582.872V56.176H595.872ZM595.872 36.64V49.64H605.28V36.64V23.64H595.872V36.64ZM605.28 36.64H592.28V54.736H605.28H618.28V36.64H605.28ZM605.28 54.736H592.28C592.28 58.6752 593.097 63.8073 596.587 68.1967C600.461 73.0697 605.976 74.984 611.088 74.984V61.984V48.984C611.618 48.984 612.603 49.0766 613.788 49.5948C615.025 50.1355 616.118 50.9844 616.938 52.0153C618.472 53.9447 618.28 55.4528 618.28 54.736H605.28ZM611.088 61.984V74.984C616.2 74.984 621.715 73.0697 625.59 68.1967C629.08 63.8073 629.896 58.6752 629.896 54.736H616.896H603.896C603.896 55.4528 603.705 53.9447 605.239 52.0153C606.058 50.9844 607.151 50.1355 608.388 49.5948C609.573 49.0766 610.558 48.984 611.088 48.984V61.984ZM616.896 54.736H629.896V36.64H616.896H603.896V54.736H616.896ZM616.896 36.64V49.64H626.304V36.64V23.64H616.896V36.64ZM626.304 36.64H613.304V56.176H626.304H639.304V36.64H626.304ZM626.304 56.176H613.304C613.304 57.3233 613.142 57.8287 613.112 57.9095C613.1 57.9428 613.117 57.8893 613.184 57.7857C613.252 57.6795 613.341 57.5722 613.437 57.4816L622.368 66.928L631.299 76.3744C637.268 70.7315 639.304 63.257 639.304 56.176H626.304ZM641.291 70V83H654.291V70H641.291ZM631.883 70H618.883V83H631.883V70ZM631.883 36.64V23.64H618.883V36.64H631.883ZM656.267 39.76L664.856 30.0007L664.752 29.9099L664.647 29.8212L656.267 39.76ZM656.267 56.704L647.791 46.8476L647.783 46.8543L647.775 46.861L656.267 56.704ZM641.291 59.872V46.872H628.291V59.872H641.291ZM641.291 44.704V31.704H628.291V44.704H641.291ZM641.291 51.808H628.291V64.808H641.291V51.808ZM641.291 70V57H631.883V70V83H641.291V70ZM631.883 70H644.883V36.64H631.883H618.883V70H631.883ZM631.883 36.64V49.64H647.099V36.64V23.64H631.883V36.64ZM647.099 36.64V49.64C647.7 49.64 647.936 49.7237 647.939 49.7246C647.946 49.727 647.929 49.7214 647.903 49.7064C647.876 49.6915 647.87 49.684 647.888 49.6988L656.267 39.76L664.647 29.8212C659.577 25.5461 653.478 23.64 647.099 23.64V36.64ZM656.267 39.76L647.679 49.5193C647.596 49.4461 647.469 49.3181 647.333 49.1313C647.196 48.943 647.082 48.7396 646.998 48.5399C646.821 48.1223 646.867 47.9552 646.867 48.256H659.867H672.867C672.867 41.4322 670.391 34.8717 664.856 30.0007L656.267 39.76ZM659.867 48.256H646.867C646.867 48.5614 646.819 48.3854 647.005 47.9478C647.095 47.7363 647.219 47.5152 647.373 47.3055C647.527 47.097 647.677 46.9453 647.791 46.8476L656.267 56.704L664.744 66.5604C670.407 61.6899 672.867 55.0465 672.867 48.256H659.867ZM656.267 56.704L647.775 46.861C647.764 46.8707 647.78 46.8559 647.819 46.8333C647.859 46.8104 647.889 46.7986 647.896 46.7963C647.92 46.788 647.701 46.872 647.099 46.872V59.872V72.872C653.486 72.872 659.647 70.9581 664.759 66.547L656.267 56.704ZM647.099 59.872V46.872H641.291V59.872V72.872H647.099V59.872ZM641.291 59.872H628.291V70H641.291H654.291V59.872H641.291ZM641.291 44.704H628.291V51.808H641.291H654.291V44.704H641.291ZM641.291 51.808V64.808H645.707V51.808V38.808H641.291V51.808ZM645.707 51.808V64.808C648.637 64.808 653.215 64.2459 657.22 60.9419C661.696 57.2497 663.027 52.203 663.027 48.256H650.027H637.027C637.027 46.661 637.639 43.3903 640.674 40.8861C643.239 38.7701 645.658 38.808 645.707 38.808V51.808ZM650.027 48.256H663.027C663.027 44.1633 661.585 39.0812 657.022 35.4387C653.009 32.2343 648.464 31.704 645.563 31.704V44.704V57.704C645.475 57.704 644.953 57.6995 644.157 57.4868C643.338 57.2677 642.091 56.788 640.8 55.7573C637.726 53.3028 637.027 49.9967 637.027 48.256H650.027ZM645.563 44.704V31.704H641.291V44.704V57.704H645.563V44.704ZM672.588 58V71H685.242L685.583 58.3504L672.588 58ZM663.948 58L650.953 58.3504L651.294 71H663.948V58ZM663.372 36.64V23.64H650.017L650.377 36.9904L663.372 36.64ZM673.164 36.64L686.159 36.9904L686.519 23.64H673.164V36.64ZM672.588 58V45H663.948V58V71H672.588V58ZM663.948 58L676.943 57.6496L676.367 36.2896L663.372 36.64L650.377 36.9904L650.953 58.3504L663.948 58ZM663.372 36.64V49.64H673.164V36.64V23.64H663.372V36.64ZM673.164 36.64L660.169 36.2896L659.593 57.6496L672.588 58L685.583 58.3504L686.159 36.9904L673.164 36.64ZM668.268 70.672V57.672C672.049 57.672 675.748 60.7706 675.748 65.248H662.748H649.748C649.748 75.8694 658.44 83.672 668.268 83.672V70.672ZM662.748 65.248H675.748C675.748 69.7254 672.049 72.824 668.268 72.824V59.824V46.824C658.44 46.824 649.748 54.6266 649.748 65.248H662.748ZM668.268 59.824V72.824C666.568 72.824 664.651 72.1649 663.119 70.6705C661.564 69.153 660.788 67.1378 660.788 65.248H673.788H686.788C686.788 54.6494 678.265 46.824 668.268 46.824V59.824ZM673.788 65.248H660.788C660.788 63.3582 661.564 61.343 663.119 59.8255C664.651 58.3311 666.568 57.672 668.268 57.672V70.672V83.672C678.265 83.672 686.788 75.8466 686.788 65.248H673.788Z" fill="#FF00A8" mask="url(#path-1-outside-1_2016_565)"/>
</svg>
